<svg width="1980" height="1320" viewBox="0 0 1980 1320" fill="none" xmlns="http://www.w3.org/2000/svg">
<path d="M200 155V270.8L107.2 155.6L106.8 155.2H96.6004V300H111.6V184.2L204.4 299.4L204.8 300H215V155.2L200 155Z" fill="black"/>
<path d="M341.925 155L291.525 227.6L241.125 155H223.925L283.925 241.6V241.8V300H291.325H298.725V241.8V241.6L358.725 155H341.925Z" fill="black"/>
<path d="M482.039 257.4C482.039 242.2 474.039 228.8 462.039 221.2C470.839 214.4 476.439 203.8 476.439 192C476.439 172.4 461.039 155.4 441.439 155H363.639V300L370.039 300.2H440.239C454.839 300.2 463.839 294.8 471.639 285.8C478.439 278 481.839 267.6 481.839 257.4H482.039ZM378.439 169.4H437.639C445.239 169.4 452.239 172 457.039 178C460.239 182 462.039 187 462.039 192.2C462.039 199 458.839 205.6 453.439 209.8C450.239 212.4 446.239 214.2 442.239 214.6C441.439 214.8 378.239 214.8 378.239 214.8L378.439 169.4ZM439.439 286H378.239V229.2H438.039C448.239 229.4 457.839 234.2 463.239 243.2C465.839 247.6 467.239 252.6 467.239 257.8C467.239 273.4 454.639 286 439.239 286.2L439.439 286Z" fill="black"/>
<path d="M648.375 214.8V270.8C637.775 281.6 622.575 287.8 606.575 287.8C573.175 287.8 547.975 262 547.975 227.8C547.975 193.6 572.775 167.8 605.575 167.8C621.775 167.8 637.575 174.6 647.775 185.8L658.975 176.6L657.975 175.6C657.375 175 656.775 174.4 656.175 173.8C643.375 161 625.175 153.8 605.575 153.8C564.375 153.8 533.175 185.8 533.175 228.2C533.175 271.2 564.375 302.4 607.375 302.4C622.175 302.4 636.775 297.6 648.775 289.2V300.6H663.575V237.4V215.2L648.375 214.8Z" fill="black"/>
<path d="M784.919 299.8L747.719 228.8C767.719 228.4 783.919 212 783.919 191.8C783.919 172.2 768.119 155 746.119 155H686.719V300H701.719V228.8H731.519L768.719 300L784.919 299.8ZM701.719 214.4V169.2H745.319C752.919 169.2 759.919 171.8 764.719 177.8C767.919 181.8 769.719 186.8 769.719 192C769.719 198.8 766.519 205.4 761.119 209.6C757.919 212.2 753.919 214 749.919 214.4C749.119 214.6 701.719 214.6 701.519 214.6L701.719 214.4Z" fill="black"/>
<path d="M871.475 153.6C830.475 153.6 799.675 185.6 799.675 227.8C799.675 270 830.475 301.8 871.275 301.8C912.075 301.8 942.875 270 942.875 227.8C942.875 185.6 912.075 153.8 871.075 153.8L871.475 153.6ZM871.075 287.8C838.675 287.8 814.275 262.2 814.275 228.2C814.275 194.2 838.675 168.4 871.075 168.4C903.475 168.4 927.875 194.2 927.875 228.4C927.875 262.6 903.475 288.4 871.075 288.4V287.8Z" fill="black"/>
<path d="M1042.65 155H943.446V169.6H985.646V300H1000.65V169.6H1042.85L1042.65 155Z" fill="black"/>
<path d="M1068.77 227.4H1135.77V214.4H1068.77V169.4H1149.57V155H1053.77V300H1149.57V285.6H1068.77V227.4Z" fill="black"/>
<path d="M1226.12 227.2C1219.92 223.4 1212.92 220.4 1206.32 217.6C1191.12 211.2 1177.92 205.6 1177.92 191.6C1177.92 177.6 1189.12 167.8 1205.12 167.8C1215.32 167.8 1223.12 171 1232.12 179L1233.12 180L1240.12 166.8C1234.92 162.4 1222.92 153.6 1204.32 153.6C1180.12 153.6 1162.52 169.8 1162.52 192.2C1162.52 208.2 1173.12 216.8 1182.32 222.6C1188.12 226.2 1194.72 229 1201.12 231.8C1217.12 238.6 1232.32 245 1232.32 262.6C1232.32 278.2 1217.92 287.8 1204.52 287.8C1185.32 287.8 1174.72 277.2 1167.72 268L1166.72 266.8L1159.12 281C1171.12 295 1186.32 302.2 1204.52 302.2C1228.92 302.2 1247.32 285.2 1247.32 262.8C1247.32 248.2 1240.12 236.6 1225.32 227.4L1226.12 227.2Z" fill="black"/>
<path d="M1401.16 227.8C1401.16 185.6 1370.36 153.8 1329.56 153.8C1288.76 153.8 1257.96 185.6 1257.96 227.8C1257.96 261.2 1277.36 288.2 1305.76 298L1373.16 328L1379.96 313L1347.96 299.6C1379.36 291.6 1401.36 263.4 1401.36 227.8H1401.16ZM1272.96 227.8C1272.96 193.8 1297.36 168.2 1329.76 168.2C1362.16 168.2 1386.56 194 1386.56 228C1386.56 262 1362.16 287.8 1329.76 287.8C1323.96 287.8 1318.36 287 1313.16 285.4L1302.36 280.8C1284.56 271 1272.96 251.4 1272.96 227.8Z" fill="black"/>
<path d="M1519.88 242C1519.88 253.2 1518.08 260.8 1513.88 267.6C1506.08 280 1492.08 287.4 1476.68 287.4C1461.28 287.4 1447.28 280 1439.48 267.8C1435.28 261 1433.48 253.4 1433.48 242.2V155H1418.48V241.6C1418.48 255.6 1421.08 266 1426.88 275.4C1437.48 292 1456.08 301.8 1476.68 301.8C1497.28 301.8 1515.88 292 1526.28 275.4C1532.08 266.2 1534.68 255.8 1534.68 241.8V155.2H1519.68L1519.88 242Z" fill="black"/>
<path d="M1575.65 227.4H1642.65V214.4H1575.65V169.4H1656.45V155H1560.65V300H1656.45V285.6H1575.65V227.4Z" fill="black"/>
<path d="M204.4 510H219.6L157.4 365.8L157 365H147L84.4004 510H99.6004L117.2 469.4H186.6L204.4 510ZM123.2 455.2L151.8 389.2L180.4 455.2H123.2Z" fill="black"/>
<path d="M345.36 467.4C345.36 452.2 337.36 438.8 325.36 431.2C334.16 424.4 339.76 413.8 339.76 402C339.76 382.4 324.36 365.4 304.76 365H226.96V510L233.36 510.2H303.56C318.16 510.2 327.16 504.8 334.96 495.8C341.76 488 345.16 477.6 345.16 467.4H345.36ZM241.76 379.4H300.96C308.56 379.4 315.56 382 320.36 388C323.56 392 325.36 397 325.36 402.2C325.36 409 322.16 415.6 316.76 419.8C313.56 422.4 309.56 424.2 305.56 424.6C304.76 424.8 241.56 424.8 241.56 424.8L241.76 379.4ZM302.76 496H241.56V439.2H301.36C311.56 439.4 321.16 444.2 326.56 453.2C329.16 457.6 330.56 462.6 330.56 467.8C330.56 483.4 317.96 496 302.56 496.2L302.76 496Z" fill="black"/>
<path d="M474.943 462C467.343 483.6 449.143 498.4 424.943 498.4C392.543 498.4 371.543 472.8 371.543 438.6C371.543 404.4 392.743 377.4 425.143 377.4C448.543 377.4 466.143 391.4 474.343 411.6L488.543 407.8C478.943 381 455.343 363.6 424.943 363.6C383.943 363.6 355.143 395.6 355.143 438C355.143 480.4 383.943 512.2 424.943 512.2C456.743 512.2 481.543 493.6 490.143 464.8L474.943 462Z" fill="black"/>
<path d="M627.077 437.4C627.077 412.6 616.277 391.4 598.877 378.4C586.477 369.2 570.877 365 549.877 365H508.477V510H549.877C570.877 510 586.477 505.8 598.877 496.6C616.277 483.6 627.077 462.4 627.077 437.6V437.4ZM590.877 484.4C580.677 492.4 567.877 496 549.277 496H523.477V379.6H549.277C567.877 379.6 580.677 383.2 590.877 391.2C604.477 401.8 612.477 418 612.477 438C612.477 458 604.477 474.2 590.877 484.8V484.4Z" fill="black"/>
<path d="M660.529 437.4H727.529V424.4H660.529V379.4H741.328V365H645.529V510H741.328V495.6H660.529V437.4Z" fill="black"/>
<path d="M779.277 441.8H835.877V427.4H779.077V379.4H846.077V365H764.077V510H779.077L779.277 441.8Z" fill="black"/>
<path d="M969.391 424.8V480.8C958.791 491.6 943.591 497.8 927.591 497.8C894.191 497.8 868.991 472 868.991 437.8C868.991 403.6 893.791 377.8 926.591 377.8C942.791 377.8 958.591 384.6 968.791 395.8L979.991 386.6L978.991 385.6C978.391 385 977.791 384.4 977.191 383.8C964.391 371 946.191 363.8 926.591 363.8C885.391 363.8 854.191 395.8 854.191 438.2C854.191 481.2 885.391 512.4 928.391 512.4C943.191 512.4 957.791 507.6 969.791 499.2V510.6H984.591V447.4V425.2L969.391 424.8Z" fill="black"/>
<path d="M1109.33 424.4H1020.73V365H1005.73V510H1020.73V438.8H1109.33V510H1124.33V365H1109.33V424.4Z" fill="black"/>
<path d="M1150.67 510H1165.67V365H1150.67V510Z" fill="black"/>
<path d="M1248.53 365H1233.53L1233.73 469.4C1233.73 477.2 1232.73 482 1230.33 486C1226.13 493.2 1218.33 497.6 1209.53 497.6C1202.53 497.6 1195.93 494.6 1191.33 489.6L1181.93 500.8C1189.13 508 1198.93 512.2 1209.53 512.2C1222.73 512.2 1234.93 505.8 1241.93 495.2C1246.53 488.6 1248.53 480.6 1248.53 469.2V365Z" fill="black"/>
<path d="M1379.21 509.8L1317.21 426L1373.01 364.8H1354.81L1290.61 435.2V365H1275.61V509.8H1290.61V455.2L1307.01 437.2L1360.61 509.8H1379.21Z" fill="black"/>
<path d="M1411.18 365H1396.18V510H1475.98V495.6H1410.98L1411.18 365Z" fill="black"/>
<path d="M1627.23 376.2L1626.23 364.8H1617.03L1612.03 375.8L1562.83 483.4L1513.63 375.8L1508.63 364.8H1499.43L1498.43 376.2L1487.43 509.8H1502.63L1511.23 404.2L1555.23 500.2H1570.43L1614.43 404.2L1623.03 509.8H1638.23L1627.23 376.2Z" fill="black"/>
<path d="M1758.87 365V480.8L1666.07 365.6L1665.67 365.2H1655.47V510H1670.47V394.2L1763.27 509.4L1763.67 510H1773.87V365.2L1758.87 365Z" fill="black"/>
<path d="M159.6 573.6C118.6 573.6 87.8004 605.6 87.8004 647.8C87.8004 690 118.6 721.8 159.4 721.8C200.2 721.8 231 690 231 647.8C231 605.6 200.2 573.8 159.2 573.8L159.6 573.6ZM159.2 707.8C126.8 707.8 102.4 682.2 102.4 648.2C102.4 614.2 126.8 588.4 159.2 588.4C191.6 588.4 216 614.2 216 648.4C216 682.6 191.6 708.4 159.2 708.4V707.8Z" fill="black"/>
<path d="M308.771 575.2V575H246.371V720H261.371V648.8H307.371C327.371 648.4 343.571 632 343.571 612C343.571 592.2 328.171 576.2 308.771 575.2ZM261.371 634.4V589.2H304.971C312.571 589.2 319.571 591.8 324.571 597.8C327.571 601.8 329.371 606.8 329.371 612C329.371 618.8 326.171 625.2 320.971 629.6C317.771 632 313.771 633.8 309.771 634.4H261.371Z" fill="black"/>
<path d="M487.6 647.8C487.6 605.6 456.8 573.8 416 573.8C375.2 573.8 344.4 605.6 344.4 647.8C344.4 681.2 363.8 708.2 392.2 718L459.6 748L466.4 733L434.4 719.6C465.8 711.6 487.8 683.4 487.8 647.8H487.6ZM359.4 647.8C359.4 613.8 383.8 588.2 416.2 588.2C448.6 588.2 473 614 473 648C473 682 448.6 707.8 416.2 707.8C410.4 707.8 404.8 707 399.6 705.4L388.8 700.8C371 691 359.4 671.4 359.4 647.8Z" fill="black"/>
<path d="M604.529 719.8L567.329 648.8C587.329 648.4 603.529 632 603.529 611.8C603.529 592.2 587.729 575 565.729 575H506.329V720H521.329V648.8H551.129L588.329 720L604.529 719.8ZM521.329 634.4V589.2H564.929C572.529 589.2 579.529 591.8 584.329 597.8C587.529 601.8 589.329 606.8 589.329 612C589.329 618.8 586.129 625.4 580.729 629.6C577.529 632.2 573.529 634 569.529 634.4C568.729 634.6 521.329 634.6 521.129 634.6L521.329 634.4Z" fill="black"/>
<path d="M685.885 647.2C679.685 643.4 672.685 640.4 666.085 637.6C650.885 631.2 637.685 625.6 637.685 611.6C637.685 597.6 648.885 587.8 664.885 587.8C675.085 587.8 682.885 591 691.885 599L692.885 600L699.885 586.8C694.685 582.4 682.685 573.6 664.085 573.6C639.885 573.6 622.285 589.8 622.285 612.2C622.285 628.2 632.885 636.8 642.085 642.6C647.885 646.2 654.485 649 660.885 651.8C676.885 658.6 692.085 665 692.085 682.6C692.085 698.2 677.685 707.8 664.285 707.8C645.085 707.8 634.485 697.2 627.485 688L626.485 686.8L618.885 701C630.885 715 646.085 722.2 664.285 722.2C688.685 722.2 707.085 705.2 707.085 682.8C707.085 668.2 699.885 656.6 685.085 647.4L685.885 647.2Z" fill="black"/>
<path d="M809.521 575H710.321V589.6H752.521V720H767.521V589.6H809.721L809.521 575Z" fill="black"/>
<path d="M921.446 662C921.446 673.2 919.646 680.8 915.446 687.6C907.646 700 893.646 707.4 878.246 707.4C862.846 707.4 848.846 700 841.046 687.8C836.846 681 835.046 673.4 835.046 662.2V575H820.046V661.6C820.046 675.6 822.646 686 828.446 695.4C839.046 712 857.646 721.8 878.246 721.8C898.846 721.8 917.446 712 927.846 695.4C933.646 686.2 936.246 675.8 936.246 661.8V575.2H921.246L921.446 662Z" fill="black"/>
<path d="M1053.21 575L1006.21 694.6L959.208 575H944.208L1001.81 719.8H1010.81L1068.41 575H1053.21Z" fill="black"/>
<path d="M1240.54 575L1202.14 692.6L1201.94 692.2L1166.74 584.6H1153.74L1118.54 692.6L1118.34 692.2L1079.94 574.8H1065.34L1113.34 719.8H1123.34L1159.94 608.8L1196.54 719.8H1206.54L1254.54 574.8L1240.54 575Z" fill="black"/>
<path d="M1383.54 720L1328.74 643.2L1377.34 575H1359.74L1319.94 630.8L1280.14 575H1262.54L1309.94 641.4L1253.94 720H1271.54L1318.74 653.8L1365.94 720H1383.54Z" fill="black"/>
<path d="M1496.65 575L1446.25 647.6L1395.85 575H1378.65L1438.65 661.6V661.8V720H1446.05H1453.45V661.8V661.6L1513.45 575H1496.65Z" fill="black"/>
<path d="M1530.77 706.2L1614.97 584V574.8H1520.37V588.2H1596.37L1511.57 711.2V719.8H1617.57V706.2H1530.77Z" fill="black"/>
<path d="M124.2 931.8C143.6 931.8 157.8 920.2 157.8 920.2L160.4 930H172.2V867C172.2 856.2 169 848.2 162.6 842.4C156.2 836.6 146.2 833.6 132.6 833.6C115.6 833.6 103.4 841.4 98.0004 847.4L104.8 855.8C108.6 853 116.2 845 132 845C153.2 845 157.2 855 157.2 863.8V879.4C157.2 879.4 140.4 873.8 126.6 873.8C114.8 873.8 105.2 876.8 98.8004 881.8C92.6004 886.8 89.6004 893.6 89.6004 902.6C89.6004 910.8 92.2004 917.4 97.8004 922.6C103.2 927.8 114 931.8 123.2 931.8H124.2ZM127.4 885C143.2 885 156.8 889.4 156.8 889.4V895V909C156.8 909 141.2 920 126.6 920C107.4 920 103.8 909.8 103.8 901.8C103.8 894 107.8 884.8 127.2 884.8L127.4 885Z" fill="black"/>
<path d="M241.525 931.6C255.325 931.6 265.325 927.8 273.925 919C282.325 910.4 286.525 898.2 286.525 882.8C286.525 867.8 282.525 855.6 274.525 846.8C266.525 838 254.925 833.6 241.325 833.6C217.325 833.6 205.525 845.4 205.525 845.4V785.4H190.925V930.2H205.325V921.2C205.325 921.2 218.925 932 241.125 932L241.525 931.6ZM205.325 908.4V858.4L206.325 857.6C214.525 850.6 224.325 845.8 235.325 845.8C246.325 845.8 255.125 848.4 261.725 855.4C268.325 862.4 271.725 871.8 271.725 883.4C271.725 895 268.325 904.4 261.725 911.4C255.125 918.4 246.125 920.6 235.125 920.6C218.725 920.6 205.325 908.6 205.325 908.6V908.4Z" fill="black"/>
<path d="M373.911 862.2L387.711 858.4V858.2C379.511 842.8 363.911 833.6 346.111 833.6C318.911 833.6 298.511 854.8 298.511 882.8C298.511 910.8 318.911 932 346.111 932C363.711 932 379.111 923 387.311 908L387.511 907.8L372.711 905.2V905.4C366.511 913.8 356.911 918.6 346.311 918.6C327.111 918.6 312.711 903.4 312.711 883.2C312.711 863 327.111 847.8 346.311 847.8C357.711 847.8 367.911 853.2 374.111 862.8L373.911 862.2Z" fill="black"/>
<path d="M476.7 844.8C476.7 844.8 464.9 833.6 440.9 833.6C427.3 833.6 415.9 837.8 407.9 846.8C399.9 855.6 395.9 867.8 395.9 882.8C395.9 898.4 400.1 910.6 408.7 919.4C417.3 928.2 427.1 931.8 440.9 931.8C463.1 931.8 476.7 920.6 476.7 920.6V930H491.1V779.4H476.7V844.8ZM446.7 920.2C435.9 920.2 426.7 918 420.3 910.8C413.7 904 410.3 894.4 410.3 882.8C410.3 871.4 413.7 862 420.3 855C426.7 848 435.7 845.4 446.5 845.4C457.5 845.4 467.3 849.8 475.5 856.8L476.7 857.6V907.8C476.7 907.8 463.3 920.2 446.7 920.2Z" fill="black"/>
<path d="M584.664 847.6C576.464 838.6 565.064 833.6 552.464 833.6C526.064 833.6 506.864 854.2 506.864 882.6C506.864 910.6 527.864 931.8 555.664 931.8C579.664 931.8 592.864 913.6 596.264 908V907.8L581.664 905.2C579.664 907.8 576.464 911.6 571.864 914.6C567.064 917.8 561.664 919.4 555.664 919.4C537.464 919.4 522.264 905.2 521.064 887L520.864 884.2H597.464C597.464 883.6 597.464 883 597.464 882.6C597.464 869 592.864 856.6 584.664 847.6ZM521.864 872.6L522.664 869.4C526.264 855.6 538.664 846 552.864 846C566.064 846 578.464 856.2 581.664 869.6L582.464 872.8H521.864V872.6Z" fill="black"/>
<path d="M632.169 835.2V816.8V809C632.169 795.4 637.169 789.2 648.769 789.2C652.169 789.2 655.769 789.6 659.369 790.2V777.6C655.969 776.6 651.969 776.2 647.569 776.2H647.369C637.969 776.2 630.769 778.8 625.569 784C620.369 789.2 617.769 795.8 617.769 804V835.2H602.969V846H617.769V929.8H632.169V846H659.369V835.2H632.169Z" fill="black"/>
<path d="M744.199 835.2V852.2C741.599 844.4 727.799 833.6 708.399 833.6C694.599 833.6 684.599 837.4 675.999 846.2C667.599 855 663.199 867.2 663.199 882.6C663.199 897.6 667.199 909.8 675.199 918.6C683.199 927.4 694.599 931.8 707.999 931.8C729.399 931.8 741.599 918.6 743.599 911.4V927C743.599 939.2 741.799 947.4 737.799 953.6C732.599 961.6 723.399 966 711.999 966C695.599 966 685.999 957.8 679.399 949.8L668.599 959.8C675.599 969.2 690.799 979.4 712.799 979.4C730.999 979.4 745.199 971.4 752.799 956.8C756.199 950 757.999 941.6 758.199 929.8V835.4L744.199 835.2ZM734.199 909.4C728.399 916 720.999 919.8 710.799 919.8C701.199 919.8 692.799 916.8 686.999 910.2C680.799 903.4 677.199 894.2 677.199 882.8C677.199 871.4 680.799 862.2 686.799 855.4C689.799 852.2 696.799 846.4 710.799 846.4C724.799 846.4 731.199 852.6 733.999 855.8C739.999 862.6 743.599 871.6 743.599 883C743.599 894.4 740.199 902.8 734.199 909.6V909.4Z" fill="black"/>
<path d="M831.219 833.6C813.819 833.6 802.619 840 793.419 851.2V779.4H779.019V930.2H793.419V866.4V865.8C802.219 853.2 812.019 847 825.619 847C840.819 847 846.419 856.6 846.419 870.4V930.4H860.819V868.2C860.819 851 850.019 834 830.819 834L831.219 833.6Z" fill="black"/>
<path d="M888.007 930H902.407V835.2H888.007V930ZM888.207 809.2C890.407 811.2 892.807 812.2 895.607 812.2C898.407 812.2 900.807 811.2 902.807 809.2C904.807 807.2 905.807 804.8 905.807 802C905.807 799.2 904.807 796.8 902.807 794.8C900.807 792.8 898.407 791.8 895.607 791.8C892.807 791.8 890.407 792.8 888.207 794.8C886.007 796.8 885.007 799.2 885.007 802C885.007 805 886.007 807.4 888.207 809.4V809.2Z" fill="black"/>
<path d="M946.433 835.4H931.033V951.8C931.033 956.2 929.633 959.8 927.033 962.6C924.433 965.4 920.833 966.8 916.233 966.8C913.033 966.8 910.833 965.8 908.833 965L903.233 976.2C907.433 978.4 912.633 979.4 918.833 979.4C927.233 979.4 934.033 977 938.833 972C943.633 967 946.033 960.4 946.033 952.4V835.6L946.433 835.4ZM931.433 810.6C933.433 812.6 935.633 813.6 938.233 813.6C940.833 813.6 943.033 812.6 945.033 810.6C947.033 808.6 948.033 806.2 948.033 803.4C948.033 800.6 947.033 798.4 945.033 796.6C943.033 794.6 940.833 793.6 938.233 793.6C935.633 793.6 933.233 794.6 931.233 796.6C929.233 798.6 928.233 800.8 928.233 803.4C928.233 806.2 929.233 808.6 931.233 810.6H931.433Z" fill="black"/>
<path d="M1007.45 871.4L1050.85 835.2H1032.05L982.852 876.6V785H968.452V930H982.852V892.4L997.452 880.2L1037.25 930H1054.45L1007.45 871.4Z" fill="black"/>
<path d="M1068.91 930H1083.31V779.2H1068.91V930Z" fill="black"/>
<path d="M1123.4 930V866.2V865.6C1132.2 853 1142 846.8 1155.6 846.8C1170.8 846.8 1176.4 856.4 1176.4 870.2V930.2H1190.8C1190.8 930.2 1190.8 866.6 1190.8 865.8C1199.6 853.2 1209.4 847 1223 847C1238.2 847 1243.8 856.6 1243.8 870.4V930.4H1258.2V868.2C1258.2 851 1247.4 834 1228.2 834C1210.8 834 1199.6 840.4 1190.4 851.6C1190.4 851.6 1189.4 852.8 1188 854.6C1183.8 843.2 1174.2 834.4 1160.4 834.4C1143 834.4 1131.8 840.8 1122.6 852V836.4H1108.2V930.8L1123.4 930Z" fill="black"/>
<path d="M1294.11 930V866.2V865.4C1302.91 852.8 1312.71 846.6 1326.31 846.6C1341.71 846.6 1347.31 856.2 1347.31 870V930H1361.71V867.8C1361.71 850.6 1350.91 833.6 1331.71 833.6C1314.31 833.6 1303.11 840 1293.91 851V835.4H1279.51V930H1294.11Z" fill="black"/>
<path d="M1425.13 833.6C1397.93 833.6 1377.53 854.8 1377.53 882.8C1377.53 910.8 1397.93 932 1425.13 932C1452.33 932 1472.73 910.8 1472.73 882.8C1472.73 854.8 1452.33 833.6 1425.13 833.6ZM1425.13 918.4C1405.93 918.4 1391.53 903.2 1391.53 883C1391.53 862.8 1405.93 847.6 1425.13 847.6C1444.33 847.6 1458.73 863 1458.73 883.2C1458.73 903.4 1444.33 918.8 1425.13 918.8V918.4Z" fill="black"/>
<path d="M1502.17 844.2V835.4H1488.37V979.2H1502.17V916C1502.17 916 1513.17 926.8 1535.97 926.8C1548.77 926.8 1559.57 922.8 1567.17 914.4C1574.77 906 1578.57 894.6 1578.57 880.4C1578.57 865.6 1574.57 854 1566.57 845.8C1558.37 837.4 1548.97 833.8 1535.97 833.8C1514.97 833.8 1502.17 844.4 1502.17 844.4V844.2ZM1530.37 844.8C1540.77 844.8 1549.37 846.8 1555.57 853.4C1561.77 860 1564.97 869 1564.97 880C1564.97 891 1561.77 899.8 1555.57 906.4C1549.37 913 1540.97 915.4 1530.57 915.4C1520.17 915.4 1510.97 911.2 1503.17 904.6L1502.17 903.8V856.2C1502.17 856.2 1514.77 844.4 1530.37 844.4V844.8Z" fill="black"/>
<path d="M1630.98 833.4C1617.98 833.4 1608.58 837 1600.38 845.4C1592.38 853.6 1588.38 865.2 1588.38 880C1588.38 894.4 1592.18 906 1599.78 914.4C1607.38 922.8 1618.38 927 1631.18 927C1653.98 927 1664.98 916.2 1664.98 916.2V979.4H1678.78V835.6H1664.98V844.4C1664.98 844.4 1652.18 833.8 1631.18 833.8L1630.98 833.4ZM1664.98 856.6V904.2L1663.98 905C1656.18 911.6 1646.98 915.8 1636.58 915.8C1626.18 915.8 1617.78 913.4 1611.58 906.8C1605.38 900.2 1602.18 891.4 1602.18 880.4C1602.18 869.4 1605.38 860.4 1611.58 853.8C1617.78 847.2 1626.38 845.2 1636.78 845.2C1652.38 845.2 1664.98 857 1664.98 857V856.6Z" fill="black"/>
<path d="M1757.15 833.4C1735.95 833.4 1725.35 842.2 1717.75 852V835.4H1703.35V930H1717.75V868.2C1717.75 868.2 1727.95 847.8 1757.15 847.8V833.4Z" fill="black"/>
<path d="M1796.09 932C1813.29 932 1826.29 920.4 1826.29 905.2C1826.29 895.2 1821.29 887.4 1810.89 881.2C1806.69 878.6 1802.09 876.8 1797.49 875C1786.29 870.4 1779.49 867.2 1779.49 859.6C1779.49 851.6 1786.29 846 1796.09 846C1802.69 846 1807.49 848 1813.29 853L1815.89 855.2L1821.69 843.8C1813.89 837.4 1804.89 834 1795.69 834C1778.69 834 1766.29 845 1766.29 860.2C1766.29 871.4 1774.29 877.4 1780.29 881C1784.29 883.4 1788.89 885.2 1793.29 887C1803.89 891.4 1813.09 895.2 1813.09 905.4C1813.09 914.4 1804.29 920 1796.09 920C1783.89 920 1777.09 913.6 1772.49 908L1770.09 905L1764.09 917.8L1764.49 918.4C1772.69 927.8 1783.29 932.6 1795.89 932.6L1796.09 932Z" fill="black"/>
<path d="M1860.73 846.6H1887.93V835.6H1860.53V799.8H1845.93V835.6H1830.93V846.6H1845.93V904.2C1845.93 912.6 1848.53 919.2 1853.73 924.4C1858.93 929.6 1866.13 932.2 1875.53 932.2H1875.73C1880.13 932.2 1883.73 931.8 1887.13 930.8V918C1883.53 918.6 1880.33 919 1876.93 919C1865.13 919 1860.13 912.6 1860.13 899V891.6L1860.73 846.6Z" fill="black"/>
<path d="M124.4 1141.8C141.8 1141.8 153 1135.4 162.2 1124.2V1140H176.6V1045.4H162.2V1109.6C153.4 1122.4 143.6 1128.6 129.8 1128.6C114.4 1128.6 108.8 1119 108.8 1105.2V1045.4H94.2004V1107.4C94.2004 1124.8 105 1142 124.2 1142L124.4 1141.8Z" fill="black"/>
<path d="M256.672 1045.4L229.072 1115.6L228.872 1115L201.472 1045.6H186.872L225.072 1140.2H232.872L271.072 1045.6L256.672 1045.4Z" fill="black"/>
<path d="M394.093 1045.2L368.493 1116.6L344.493 1049.6H332.693L308.293 1116.6L282.893 1045.2H268.693L303.693 1140H313.293L338.293 1072L363.293 1140H372.893L407.693 1045.4L394.093 1045.2Z" fill="black"/>
<path d="M465.13 1090L498.93 1045.6H482.33L456.73 1079.2L431.13 1045.6H414.53L447.53 1089.2L408.73 1140.2V1140.4H425.33L455.73 1100.4L486.13 1140.4H502.73L465.13 1090Z" fill="black"/>
<path d="M609.036 1045.2L562.836 1112.4L516.636 1045.4H499.436L554.436 1124.6L509.836 1189.2H526.036L626.036 1045.4L609.036 1045.2Z" fill="black"/>
<path d="M647.286 1127.4L707.086 1053.2V1045.4H631.486V1057.8H687.686L627.286 1132.6V1139.8H708.686V1127.4H647.286Z" fill="black"/>
</svg>
