<svg width="1980" height="1320" viewBox="0 0 1980 1320" fill="none" xmlns="http://www.w3.org/2000/svg">
<path d="M146.96 176.48C141.38 173.06 135.08 170.36 129.14 167.84C115.46 162.08 103.58 157.04 103.58 144.44C103.58 131.84 113.66 123.02 128.06 123.02C137.24 123.02 144.26 125.9 152.36 133.1L153.26 134L159.56 122.12C154.88 118.16 144.08 110.24 127.34 110.24C105.56 110.24 89.7202 124.82 89.7202 144.98C89.7202 159.38 99.2602 167.12 107.54 172.34C112.76 175.58 118.7 178.1 124.46 180.62C138.86 186.74 152.54 192.5 152.54 208.34C152.54 222.38 139.58 231.02 127.52 231.02C110.24 231.02 100.7 221.48 94.4002 213.2L93.5002 212.12L86.6602 224.9C97.4602 237.5 111.14 243.98 127.52 243.98C149.48 243.98 166.04 228.68 166.04 208.52C166.04 195.38 159.56 184.94 146.24 176.66L146.96 176.48Z" fill="black"/>
<path d="M238.792 110.24C201.892 110.24 174.173 139.04 174.173 177.02C174.173 215 201.893 243.62 238.613 243.62C275.333 243.62 303.053 215 303.053 177.02C303.053 139.04 275.332 110.42 238.432 110.42L238.792 110.24ZM238.432 231.02C209.272 231.02 187.312 207.98 187.312 177.38C187.312 146.78 209.272 123.56 238.432 123.56C267.592 123.56 289.552 146.78 289.552 177.56C289.552 208.34 267.592 231.56 238.432 231.56V231.02Z" fill="black"/>
<path d="M373.406 110.24C336.506 110.24 308.786 139.04 308.786 177.02C308.786 215 336.506 243.62 373.226 243.62C409.946 243.62 437.666 215 437.666 177.02C437.666 139.04 409.946 110.42 373.046 110.42L373.406 110.24ZM373.046 231.02C343.886 231.02 321.926 207.98 321.926 177.38C321.926 146.78 343.886 123.56 373.046 123.56C402.206 123.56 424.166 146.78 424.166 177.56C424.166 208.34 402.206 231.56 373.046 231.56V231.02Z" fill="black"/>
<path d="M543.299 111.5L497.939 176.84L452.579 111.5H437.099L491.099 189.44V189.62V242H497.759H504.419V189.62V189.44L558.419 111.5H543.299Z" fill="black"/>
<path d="M581.382 176.66H641.682V164.96H581.382V124.46H654.102V111.5H567.882V242H654.102V229.04H581.382V176.66Z" fill="black"/>
<path d="M727.675 110.24C690.775 110.24 663.055 139.04 663.055 177.02C663.055 215 690.775 243.62 727.495 243.62C764.215 243.62 791.935 215 791.935 177.02C791.935 139.04 764.215 110.42 727.315 110.42L727.675 110.24ZM727.315 231.02C698.155 231.02 676.195 207.98 676.195 177.38C676.195 146.78 698.155 123.56 727.315 123.56C756.475 123.56 778.435 146.78 778.435 177.56C778.435 208.34 756.475 231.56 727.315 231.56V231.02Z" fill="black"/>
<path d="M898.649 111.5V215.72L815.129 112.04L814.769 111.68H805.589V242H819.089V137.78L902.609 241.46L902.969 242H912.149V111.68L898.649 111.5Z" fill="black"/>
<path d="M1066.66 164.96H986.919V111.5H973.419V242H986.919V177.92H1066.66V242H1080.16V111.5H1066.66V164.96Z" fill="black"/>
<path d="M1157.14 110.24C1120.24 110.24 1092.52 139.04 1092.52 177.02C1092.52 215 1120.24 243.62 1156.96 243.62C1193.68 243.62 1221.4 215 1221.4 177.02C1221.4 139.04 1193.68 110.42 1156.78 110.42L1157.14 110.24ZM1156.78 231.02C1127.62 231.02 1105.66 207.98 1105.66 177.38C1105.66 146.78 1127.62 123.56 1156.78 123.56C1185.94 123.56 1207.9 146.78 1207.9 177.56C1207.9 208.34 1185.94 231.56 1156.78 231.56V231.02Z" fill="black"/>
<path d="M1328.12 111.5V215.72L1244.6 112.04L1244.24 111.68H1235.06V242H1248.56V137.78L1332.08 241.46L1332.44 242H1341.62V111.68L1328.12 111.5Z" fill="black"/>
<path d="M1460.53 165.32V215.72C1450.99 225.44 1437.31 231.02 1422.91 231.02C1392.85 231.02 1370.17 207.8 1370.17 177.02C1370.17 146.24 1392.49 123.02 1422.01 123.02C1436.59 123.02 1450.81 129.14 1459.99 139.22L1470.07 130.94L1469.17 130.04C1468.63 129.5 1468.09 128.96 1467.55 128.42C1456.03 116.9 1439.65 110.42 1422.01 110.42C1384.93 110.42 1356.85 139.22 1356.85 177.38C1356.85 216.08 1384.93 244.16 1423.63 244.16C1436.95 244.16 1450.09 239.84 1460.89 232.28V242.54H1474.21V185.66V165.68L1460.53 165.32Z" fill="black"/>
<path d="M146.96 365.48C141.38 362.06 135.08 359.36 129.14 356.84C115.46 351.08 103.58 346.04 103.58 333.44C103.58 320.84 113.66 312.02 128.06 312.02C137.24 312.02 144.26 314.9 152.36 322.1L153.26 323L159.56 311.12C154.88 307.16 144.08 299.24 127.34 299.24C105.56 299.24 89.7202 313.82 89.7202 333.98C89.7202 348.38 99.2602 356.12 107.54 361.34C112.76 364.58 118.7 367.1 124.46 369.62C138.86 375.74 152.54 381.5 152.54 397.34C152.54 411.38 139.58 420.02 127.52 420.02C110.24 420.02 100.7 410.48 94.4002 402.2L93.5002 401.12L86.6602 413.9C97.4602 426.5 111.14 432.98 127.52 432.98C149.48 432.98 166.04 417.68 166.04 397.52C166.04 384.38 159.56 373.94 146.24 365.66L146.96 365.48Z" fill="black"/>
<path d="M279.113 431H292.792L236.812 301.22L236.452 300.5H227.452L171.113 431H184.792L200.633 394.46H263.092L279.113 431ZM206.033 381.68L231.773 322.28L257.512 381.68H206.033Z" fill="black"/>
<path d="M423.796 310.58L422.896 300.32H414.616L410.116 310.22L365.836 407.06L321.556 310.22L317.056 300.32H308.776L307.876 310.58L297.976 430.82H311.656L319.396 335.78L358.996 422.18H372.676L412.276 335.78L420.016 430.82H433.696L423.796 310.58Z" fill="black"/>
<path d="M465.05 365.66H525.35V353.96H465.05V313.46H537.77V300.5H451.55V431H537.77V418.04H465.05V365.66Z" fill="black"/>
<path d="M570.483 365.66H630.783V353.96H570.483V313.46H643.203V300.5H556.983V431H643.203V418.04H570.483V365.66Z" fill="black"/>
<path d="M751.517 430.82L718.037 366.92C736.037 366.56 750.617 351.8 750.617 333.62C750.617 315.98 736.397 300.5 716.597 300.5H663.137V431H676.637V366.92H703.457L736.937 431L751.517 430.82ZM676.637 353.96V313.28H715.877C722.717 313.28 729.017 315.62 733.337 321.02C736.217 324.62 737.837 329.12 737.837 333.8C737.837 339.92 734.957 345.86 730.097 349.64C727.217 351.98 723.617 353.6 720.017 353.96C719.297 354.14 676.637 354.14 676.457 354.14L676.637 353.96Z" fill="black"/>
<path d="M886.615 300.5H797.335V313.64H835.315V431H848.815V313.64H886.795L886.615 300.5Z" fill="black"/>
<path d="M1041.17 300.5L1006.61 406.34L1006.43 405.98L974.748 309.14H963.048L931.368 406.34L931.188 405.98L896.628 300.32H883.488L926.688 430.82H935.688L968.628 330.92L1001.57 430.82H1010.57L1053.77 300.32L1041.17 300.5Z" fill="black"/>
<path d="M1162.31 431H1175.99L1120.01 301.22L1119.65 300.5H1110.65L1054.31 431H1067.99L1083.83 394.46H1146.29L1162.31 431ZM1089.23 381.68L1114.97 322.28L1140.71 381.68H1089.23Z" fill="black"/>
<path d="M1295.11 365.66C1295.11 343.34 1285.39 324.26 1269.73 312.56C1258.57 304.28 1244.53 300.5 1225.63 300.5H1188.37V431H1225.63C1244.53 431 1258.57 427.22 1269.73 418.94C1285.39 407.24 1295.11 388.16 1295.11 365.84V365.66ZM1262.53 407.96C1253.35 415.16 1241.83 418.4 1225.09 418.4H1201.87V313.64H1225.09C1241.83 313.64 1253.35 316.88 1262.53 324.08C1274.77 333.62 1281.97 348.2 1281.97 366.2C1281.97 384.2 1274.77 398.78 1262.53 408.32V407.96Z" fill="black"/>
<path d="M1325.22 365.66H1385.52V353.96H1325.22V313.46H1397.94V300.5H1311.72V431H1397.94V418.04H1325.22V365.66Z" fill="black"/>
<path d="M110.78 554.66H171.08V542.96H110.78V502.46H183.5V489.5H97.2802V620H183.5V607.04H110.78V554.66Z" fill="black"/>
<path d="M214.414 489.5H200.914V620H272.734V607.04H214.234L214.414 489.5Z" fill="black"/>
<path d="M301.215 489.5H287.715V620H359.535V607.04H301.035L301.215 489.5Z" fill="black"/>
<path d="M389.815 554.66H450.115V542.96H389.815V502.46H462.535V489.5H376.315V620H462.535V607.04H389.815V554.66Z" fill="black"/>
<path d="M638.847 499.58L637.947 489.32H629.667L625.167 499.22L580.887 596.06L536.607 499.22L532.107 489.32H523.827L522.927 499.58L513.027 619.82H526.707L534.447 524.78L574.047 611.18H587.727L627.327 524.78L635.067 619.82H648.747L638.847 499.58Z" fill="black"/>
<path d="M761.281 620H774.961L718.981 490.22L718.62 489.5H709.62L653.281 620H666.961L682.8 583.46H745.26L761.281 620ZM688.201 570.68L713.94 511.28L739.68 570.68H688.201Z" fill="black"/>
<path d="M798.324 489.5H784.824V620H856.644V607.04H798.144L798.324 489.5Z" fill="black"/>
<path d="M980.885 554.66C980.885 532.34 971.165 513.26 955.505 501.56C944.345 493.28 930.305 489.5 911.405 489.5H874.145V620H911.405C930.305 620 944.345 616.22 955.505 607.94C971.165 596.24 980.885 577.16 980.885 554.84V554.66ZM948.305 596.96C939.125 604.16 927.605 607.4 910.865 607.4H887.645V502.64H910.865C927.605 502.64 939.125 505.88 948.305 513.08C960.545 522.62 967.745 537.2 967.745 555.2C967.745 573.2 960.545 587.78 948.305 597.32V596.96Z" fill="black"/>
<path d="M1051.85 488.24C1014.95 488.24 987.231 517.04 987.231 555.02C987.231 593 1014.95 621.62 1051.67 621.62C1088.39 621.62 1116.11 593 1116.11 555.02C1116.11 517.04 1088.39 488.42 1051.49 488.42L1051.85 488.24ZM1051.49 609.02C1022.33 609.02 1000.37 585.98 1000.37 555.38C1000.37 524.78 1022.33 501.56 1051.49 501.56C1080.65 501.56 1102.61 524.78 1102.61 555.56C1102.61 586.34 1080.65 609.56 1051.49 609.56V609.02Z" fill="black"/>
<path d="M1222.82 489.5V593.72L1139.3 490.04L1138.94 489.68H1129.76V620H1143.26V515.78L1226.78 619.46L1227.14 620H1236.32V489.68L1222.82 489.5Z" fill="black"/>
<path d="M1355.6 620H1369.28L1313.3 490.22L1312.94 489.5H1303.94L1247.6 620H1261.28L1277.12 583.46H1339.58L1355.6 620ZM1282.52 570.68L1308.26 511.28L1334 570.68H1282.52Z" fill="black"/>
<path d="M1488.4 554.66C1488.4 532.34 1478.68 513.26 1463.02 501.56C1451.86 493.28 1437.82 489.5 1418.92 489.5H1381.66V620H1418.92C1437.82 620 1451.86 616.22 1463.02 607.94C1478.68 596.24 1488.4 577.16 1488.4 554.84V554.66ZM1455.82 596.96C1446.64 604.16 1435.12 607.4 1418.38 607.4H1395.16V502.64H1418.38C1435.12 502.64 1446.64 505.88 1455.82 513.08C1468.06 522.62 1475.26 537.2 1475.26 555.2C1475.26 573.2 1468.06 587.78 1455.82 597.32V596.96Z" fill="black"/>
<path d="M1559.37 488.24C1522.47 488.24 1494.75 517.04 1494.75 555.02C1494.75 593 1522.47 621.62 1559.19 621.62C1595.91 621.62 1623.63 593 1623.63 555.02C1623.63 517.04 1595.91 488.42 1559.01 488.42L1559.37 488.24ZM1559.01 609.02C1529.85 609.02 1507.89 585.98 1507.89 555.38C1507.89 524.78 1529.85 501.56 1559.01 501.56C1588.17 501.56 1610.13 524.78 1610.13 555.56C1610.13 586.34 1588.17 609.56 1559.01 609.56V609.02Z" fill="black"/>
<path d="M146.96 743.48C141.38 740.06 135.08 737.36 129.14 734.84C115.46 729.08 103.58 724.04 103.58 711.44C103.58 698.84 113.66 690.02 128.06 690.02C137.24 690.02 144.26 692.9 152.36 700.1L153.26 701L159.56 689.12C154.88 685.16 144.08 677.24 127.34 677.24C105.56 677.24 89.7202 691.82 89.7202 711.98C89.7202 726.38 99.2602 734.12 107.54 739.34C112.76 742.58 118.7 745.1 124.46 747.62C138.86 753.74 152.54 759.5 152.54 775.34C152.54 789.38 139.58 798.02 127.52 798.02C110.24 798.02 100.7 788.48 94.4002 780.2L93.5002 779.12L86.6602 791.9C97.4602 804.5 111.14 810.98 127.52 810.98C149.48 810.98 166.04 795.68 166.04 775.52C166.04 762.38 159.56 751.94 146.24 743.66L146.96 743.48Z" fill="black"/>
<path d="M275.152 756.8C275.152 766.88 273.532 773.72 269.753 779.84C262.732 791 250.132 797.66 236.272 797.66C222.412 797.66 209.812 791 202.792 780.02C199.012 773.9 197.393 767.06 197.393 756.98V678.5H183.893V756.44C183.893 769.04 186.232 778.4 191.452 786.86C200.993 801.8 217.732 810.62 236.272 810.62C254.812 810.62 271.553 801.8 280.913 786.86C286.133 778.58 288.473 769.22 288.473 756.62V678.68H274.973L275.152 756.8Z" fill="black"/>
<path d="M402.559 678.5V782.72L319.039 679.04L318.679 678.68H309.499V809H322.999V704.78L406.519 808.46L406.879 809H416.059V678.68L402.559 678.5Z" fill="black"/>
<path d="M573.269 808.82L517.469 733.4L567.689 678.32H551.309L493.529 741.68V678.5H480.029V808.82H493.529V759.68L508.289 743.48L556.529 808.82H573.269Z" fill="black"/>
<path d="M590.887 801.44C592.687 803.24 594.847 804.14 597.187 804.14C599.527 804.14 601.507 803.24 603.307 801.44C605.107 799.64 606.007 797.48 606.007 794.96C606.007 792.44 605.107 790.28 603.307 788.48C601.507 786.68 599.347 785.78 596.827 785.78C594.307 785.78 592.147 786.68 590.347 788.48C588.547 790.28 587.647 792.26 587.647 794.78C587.647 797.3 588.547 799.46 590.347 801.26L590.887 801.44Z" fill="black"/>
<path d="M761.074 808.82L705.274 733.4L755.494 678.32H739.114L681.334 741.68V678.5H667.834V808.82H681.334V759.68L696.094 743.48L744.334 808.82H761.074Z" fill="black"/>
<path d="M922.691 678.5L888.131 784.34L887.951 783.98L856.271 687.14H844.571L812.891 784.34L812.711 783.98L778.151 678.32H765.011L808.211 808.82H817.211L850.151 708.92L883.091 808.82H892.091L935.291 678.32L922.691 678.5Z" fill="black"/>
<path d="M1043.83 809H1057.51L1001.53 679.22L1001.17 678.5H992.171L935.831 809H949.511L965.351 772.46H1027.81L1043.83 809ZM970.751 759.68L996.491 700.28L1022.23 759.68H970.751Z" fill="black"/>
<path d="M1164.03 808.82L1108.23 733.4L1158.45 678.32H1142.07L1084.29 741.68V678.5H1070.79V808.82H1084.29V759.68L1099.05 743.48L1147.29 808.82H1164.03Z" fill="black"/>
<path d="M151.28 867.68V867.5H95.1202V998H108.62V933.92H150.02C168.02 933.56 182.6 918.8 182.6 900.8C182.6 882.98 168.74 868.58 151.28 867.68ZM108.62 920.96V880.28H147.86C154.7 880.28 161 882.62 165.5 888.02C168.2 891.62 169.82 896.12 169.82 900.8C169.82 906.92 166.94 912.68 162.26 916.64C159.38 918.8 155.78 920.42 152.18 920.96H108.62Z" fill="black"/>
<path d="M281.267 997.82L247.787 933.92C265.787 933.56 280.367 918.8 280.367 900.62C280.367 882.98 266.147 867.5 246.347 867.5H192.887V998H206.387V933.92H233.207L266.687 998L281.267 997.82ZM206.387 920.96V880.28H245.627C252.467 880.28 258.767 882.62 263.087 888.02C265.967 891.62 267.587 896.12 267.587 900.8C267.587 906.92 264.707 912.86 259.847 916.64C256.967 918.98 253.367 920.6 249.767 920.96C249.047 921.14 206.387 921.14 206.207 921.14L206.387 920.96Z" fill="black"/>
<path d="M399.488 998H413.168L357.188 868.22L356.828 867.5H347.827L291.488 998H305.167L321.007 961.46H383.467L399.488 998ZM326.408 948.68L352.147 889.28L377.888 948.68H326.408Z" fill="black"/>
<path d="M472.531 867.5H459.031L459.211 961.46C459.211 968.48 458.311 972.8 456.151 976.4C452.371 982.88 445.351 986.84 437.431 986.84C431.131 986.84 425.191 984.14 421.051 979.64L412.591 989.72C419.071 996.2 427.891 999.98 437.431 999.98C449.311 999.98 460.291 994.22 466.591 984.68C470.731 978.74 472.531 971.54 472.531 961.28V867.5Z" fill="black"/>
<path d="M589.964 998H603.644L547.664 868.22L547.304 867.5H538.304L481.964 998H495.644L511.484 961.46H573.944L589.964 998ZM516.884 948.68L542.624 889.28L568.364 948.68H516.884Z" fill="black"/>
<path d="M710.168 997.82L654.368 922.4L704.588 867.32H688.208L630.428 930.68V867.5H616.928V997.82H630.428V948.68L645.188 932.48L693.428 997.82H710.168Z" fill="black"/>
<path d="M801.045 867.5H711.765V880.64H749.745V998H763.245V880.64H801.225L801.045 867.5Z" fill="black"/>
<path d="M905.738 998H919.418L863.438 868.22L863.078 867.5H854.078L797.738 998H811.418L827.258 961.46H889.718L905.738 998ZM832.658 948.68L858.398 889.28L884.138 948.68H832.658Z" fill="black"/>
<path d="M1022.84 867.68V867.5H966.679V998H980.179V933.92H1021.58C1039.58 933.56 1054.16 918.8 1054.16 900.8C1054.16 882.98 1040.3 868.58 1022.84 867.68ZM980.179 920.96V880.28H1019.42C1026.26 880.28 1032.56 882.62 1037.06 888.02C1039.76 891.62 1041.38 896.12 1041.38 900.8C1041.38 906.92 1038.5 912.68 1033.82 916.64C1030.94 918.8 1027.34 920.42 1023.74 920.96H980.179Z" fill="black"/>
<path d="M1118.09 866.24C1081.19 866.24 1053.47 895.04 1053.47 933.02C1053.47 971 1081.19 999.62 1117.91 999.62C1154.63 999.62 1182.35 971 1182.35 933.02C1182.35 895.04 1154.63 866.42 1117.73 866.42L1118.09 866.24ZM1117.73 987.02C1088.57 987.02 1066.61 963.98 1066.61 933.38C1066.61 902.78 1088.57 879.56 1117.73 879.56C1146.89 879.56 1168.85 902.78 1168.85 933.56C1168.85 964.34 1146.89 987.56 1117.73 987.56V987.02Z" fill="black"/>
<path d="M1272.14 867.5H1182.86V880.64H1220.84V998H1234.34V880.64H1272.32L1272.14 867.5Z" fill="black"/>
<path d="M1372.87 867.5V971.72L1289.35 868.04L1288.99 867.68H1279.81V998H1293.31V893.78L1376.83 997.46L1377.19 998H1386.37V867.68L1372.87 867.5Z" fill="black"/>
<path d="M1412.04 998H1425.54V867.5H1412.04V998Z" fill="black"/>
<path d="M1502.09 932.48C1496.51 929.06 1490.21 926.36 1484.27 923.84C1470.59 918.08 1458.71 913.04 1458.71 900.44C1458.71 887.84 1468.79 879.02 1483.19 879.02C1492.37 879.02 1499.39 881.9 1507.49 889.1L1508.39 890L1514.69 878.12C1510.01 874.16 1499.21 866.24 1482.47 866.24C1460.69 866.24 1444.85 880.82 1444.85 900.98C1444.85 915.38 1454.39 923.12 1462.67 928.34C1467.89 931.58 1473.83 934.1 1479.59 936.62C1493.99 942.74 1507.67 948.5 1507.67 964.34C1507.67 978.38 1494.71 987.02 1482.65 987.02C1465.37 987.02 1455.83 977.48 1449.53 969.2L1448.63 968.12L1441.79 980.9C1452.59 993.5 1466.27 999.98 1482.65 999.98C1504.61 999.98 1521.17 984.68 1521.17 964.52C1521.17 951.38 1514.69 940.94 1501.37 932.66L1502.09 932.48Z" fill="black"/>
<path d="M204.74 1121.66C204.74 1099.34 195.02 1080.26 179.36 1068.56C168.2 1060.28 154.16 1056.5 135.26 1056.5H98.0002V1187H135.26C154.16 1187 168.2 1183.22 179.36 1174.94C195.02 1163.24 204.74 1144.16 204.74 1121.84V1121.66ZM172.16 1163.96C162.98 1171.16 151.46 1174.4 134.72 1174.4H111.5V1069.64H134.72C151.46 1069.64 162.98 1072.88 172.16 1080.08C184.4 1089.62 191.6 1104.2 191.6 1122.2C191.6 1140.2 184.4 1154.78 172.16 1164.32V1163.96Z" fill="black"/>
<path d="M275.707 1055.24C238.807 1055.24 211.087 1084.04 211.087 1122.02C211.087 1160 238.807 1188.62 275.527 1188.62C312.247 1188.62 339.967 1160 339.967 1122.02C339.967 1084.04 312.247 1055.42 275.347 1055.42L275.707 1055.24ZM275.347 1176.02C246.187 1176.02 224.227 1152.98 224.227 1122.38C224.227 1091.78 246.187 1068.56 275.347 1068.56C304.507 1068.56 326.467 1091.78 326.467 1122.56C326.467 1153.34 304.507 1176.56 275.347 1176.56V1176.02Z" fill="black"/>
<path d="M446.68 1056.5V1160.72L363.16 1057.04L362.8 1056.68H353.62V1187H367.12V1082.78L450.64 1186.46L451 1187H460.18V1056.68L446.68 1056.5Z" fill="black"/>
<path d="M579.092 1110.32V1160.72C569.552 1170.44 555.872 1176.02 541.472 1176.02C511.412 1176.02 488.732 1152.8 488.732 1122.02C488.732 1091.24 511.052 1068.02 540.572 1068.02C555.152 1068.02 569.372 1074.14 578.552 1084.22L588.632 1075.94L587.732 1075.04C587.192 1074.5 586.652 1073.96 586.112 1073.42C574.592 1061.9 558.212 1055.42 540.572 1055.42C503.492 1055.42 475.412 1084.22 475.412 1122.38C475.412 1161.08 503.492 1189.16 542.192 1189.16C555.512 1189.16 568.652 1184.84 579.452 1177.28V1187.54H592.772V1130.66V1110.68L579.092 1110.32Z" fill="black"/>
<path d="M613.962 1187H627.462V1056.5H613.962V1187Z" fill="black"/>
<path d="M703.789 1056.5H690.289V1187H762.109V1174.04H703.609L703.789 1056.5Z" fill="black"/>
<path d="M792.39 1121.66H852.69V1109.96H792.39V1069.46H865.11V1056.5H778.89V1187H865.11V1174.04H792.39V1121.66Z" fill="black"/>
<path d="M897.823 1121.66H958.123V1109.96H897.823V1069.46H970.543V1056.5H884.323V1187H970.543V1174.04H897.823V1121.66Z" fill="black"/>
</svg>
