<svg id="handle-icon" height="1.2rem" viewBox="0 0 83 94" xmlns="http://www.w3.org/2000/svg">
<path d="M83 8.28135C83 12.8526 79.29 16.5626 74.7187 16.5626C70.1474 16.5626 66.4374 12.8526 66.4374 8.28135C66.4374 3.71008 70.1474 6.10352e-05 74.7187 6.10352e-05C79.29 6.10352e-05 83 3.71008 83 8.28135ZM54.5124 8.28135C54.5124 11.9251 51.5311 14.9064 47.8873 14.9064C44.2436 14.9064 41.2623 11.9251 41.2623 8.28135C41.2623 4.63758 44.2436 1.65632 47.8873 1.65632C51.5311 1.65632 54.5124 4.63758 54.5124 8.28135ZM29.3372 8.28135C29.3372 10.9976 27.0847 13.2501 24.3685 13.2501C21.6522 13.2501 19.3997 10.9976 19.3997 8.28135C19.3997 5.56509 21.6522 3.31258 24.3685 3.31258C27.0847 3.31258 29.3372 5.56509 29.3372 8.28135ZM7.47464 8.28135C7.47464 10.1364 6.01713 11.5939 4.16212 11.5939C2.30712 11.5939 0.849609 10.1364 0.849609 8.28135C0.849609 6.42634 2.30712 4.96883 4.16212 4.96883C6.01713 4.96883 7.47464 6.42634 7.47464 8.28135ZM83 33.9865C83 38.5577 79.29 42.2678 74.7187 42.2678C70.1474 42.2678 66.4374 38.5577 66.4374 33.9865C66.4374 29.4152 70.1474 25.7052 74.7187 25.7052C79.29 25.7052 83 29.4152 83 33.9865ZM54.5124 33.9865C54.5124 37.6302 51.5311 40.6115 47.8873 40.6115C44.2436 40.6115 41.2623 37.6302 41.2623 33.9865C41.2623 30.3427 44.2436 27.3614 47.8873 27.3614C51.5311 27.3614 54.5124 30.3427 54.5124 33.9865ZM29.3372 33.9865C29.3372 36.7027 27.0847 38.9552 24.3685 38.9552C21.6522 38.9552 19.3997 36.7027 19.3997 33.9865C19.3997 31.2702 21.6522 29.0177 24.3685 29.0177C27.0847 29.0177 29.3372 31.204 29.3372 33.9865ZM7.47464 33.9865C7.47464 35.8415 6.01713 37.299 4.16212 37.299C2.30712 37.299 0.849609 35.8415 0.849609 33.9865C0.849609 32.1315 2.30712 30.674 4.16212 30.674C6.01713 30.674 7.47464 32.1315 7.47464 33.9865ZM83 59.6916C83 64.2629 79.29 67.9729 74.7187 67.9729C70.1474 67.9729 66.4374 64.2629 66.4374 59.6916C66.4374 55.1203 70.1474 51.4103 74.7187 51.4103C79.29 51.4103 83 55.1203 83 59.6916ZM54.5124 59.6916C54.5124 63.3354 51.5311 66.3166 47.8873 66.3166C44.2436 66.3166 41.2623 63.3354 41.2623 59.6916C41.2623 56.0478 44.2436 53.0666 47.8873 53.0666C51.5311 53.0666 54.5124 55.9816 54.5124 59.6916ZM29.3372 59.6916C29.3372 62.4079 27.0847 64.6604 24.3685 64.6604C21.6522 64.6604 19.3997 62.4079 19.3997 59.6916C19.3997 56.9753 21.6522 54.7228 24.3685 54.7228C27.0847 54.7228 29.3372 56.9091 29.3372 59.6916ZM7.47464 59.6916C7.47464 61.5466 6.01713 63.0041 4.16212 63.0041C2.30712 63.0041 0.849609 61.5466 0.849609 59.6916C0.849609 57.8366 2.30712 56.3791 4.16212 56.3791C6.01713 56.3791 7.47464 57.8366 7.47464 59.6916ZM83 85.3305C83 89.9017 79.29 93.6118 74.7187 93.6118C70.1474 93.6118 66.4374 89.9017 66.4374 85.3305C66.4374 80.7592 70.1474 77.0492 74.7187 77.0492C79.29 77.0492 83 80.7592 83 85.3305ZM54.5124 85.3305C54.5124 88.9742 51.5311 91.9555 47.8873 91.9555C44.2436 91.9555 41.2623 88.9742 41.2623 85.3305C41.2623 81.6867 44.2436 78.7054 47.8873 78.7054C51.5311 78.7054 54.5124 81.6867 54.5124 85.3305ZM29.3372 85.3305C29.3372 88.0467 27.0847 90.2992 24.3685 90.2992C21.6522 90.2992 19.3997 88.113 19.3997 85.3305C19.3997 82.548 21.6522 80.3617 24.3685 80.3617C27.0847 80.3617 29.3372 82.6142 29.3372 85.3305ZM7.47464 85.3305C7.47464 87.1855 6.01713 88.643 4.16212 88.643C2.30712 88.643 0.849609 87.1855 0.849609 85.3305C0.849609 83.4755 2.30712 82.018 4.16212 82.018C6.01713 82.018 7.47464 83.5417 7.47464 85.3305Z"/>
</svg>
