<svg width="1980" height="1320" viewBox="0 0 1980 1320" fill="none" xmlns="http://www.w3.org/2000/svg">
<path d="M123.671 814.117C123.671 761.585 108.879 735.296 94.1336 709.053C79.3424 735.296 64.5511 761.585 64.5511 814.117H123.671Z" fill="black"/>
<path d="M741.777 930.36L790.729 814.01L663.918 513.773H723.899L819.722 745.115H822.492L914.87 513.773H971.401L797.719 930.36H741.777Z" fill="black"/>
<path d="M447.492 710.042C453.027 756.183 485.423 780.976 537.1 780.976C577.072 780.976 606.7 766.517 606.7 736.24C606.7 708.002 586.692 698.348 549.489 691.504L498.49 682.574C441.957 673.645 408.2 649.532 408.2 597.861C408.2 542.791 454.389 505.578 523.991 505.578C603.935 505.578 650.802 542.745 656.337 612.32L610.15 615.085C603.255 568.943 574.987 547.595 523.991 547.595C486.058 547.595 461.285 564.819 461.285 592.331C461.285 616.444 476.439 628.818 507.474 634.348L564.008 643.277C624.669 653.612 660.511 676.319 660.511 730.71C660.511 790.631 607.43 822.993 537.145 822.993C462.011 822.993 404.797 787.866 399.307 713.532L447.492 710.042Z" fill="black"/>
<path d="M1705.2 814.648H1647.98V513.777H1705.2V567.487C1719.67 531.001 1760.32 505.527 1805.15 505.527C1883.74 505.527 1915.45 557.878 1915.45 628.088V814.693H1858.24V632.892C1858.24 582.626 1834.1 550.944 1786.55 550.944C1741.04 550.944 1705.2 586.751 1705.2 641.822V814.648Z" fill="black"/>
<path d="M1607.6 713.436C1592.45 781.606 1542.13 822.942 1467 822.942C1377.39 822.942 1311.91 762.342 1311.91 668.699C1311.91 573.697 1377.39 505.527 1464.23 505.527C1560.05 505.527 1608.96 573.697 1608.96 655.646V678.354H1369.09C1371.85 736.869 1413.87 778.206 1467.63 778.206C1517.95 778.206 1547.58 754.093 1560.01 707.951L1607.6 713.436ZM1550.39 641.141C1548.3 592.96 1521.44 548.859 1464.23 548.859C1409.78 548.859 1377.39 591.555 1370.49 641.141H1550.39Z" fill="black"/>
<path d="M1216.82 513.777V577.142C1203.02 539.975 1165.14 505.527 1108.6 505.527C1019 505.527 970.764 577.595 970.764 656.326C970.764 745.164 1019 814.693 1108.6 814.693C1165.14 814.693 1203.02 780.971 1216.82 743.759V796.563H1216.86C1215.46 867.314 1179.56 893.47 1122.4 893.47C1078.52 893.47 1040.18 869.537 1027.66 831.101L975.258 844.199C993.632 905.028 1052.84 938.611 1125.8 938.611C1228.57 938.611 1271.44 882.138 1274.08 794.841V742.127V513.777H1216.82ZM1121.67 769.232C1062.42 769.232 1029.29 725.175 1029.29 656.326C1029.29 587.476 1062.37 551.669 1121.67 551.669C1176.12 551.669 1217.5 581.946 1217.5 647.397V664.62C1217.5 730.66 1176.12 769.232 1121.67 769.232Z" fill="black"/>
<path d="M222.99 381.751L64.5511 381.389V603.983C64.5511 656.515 79.3424 682.759 94.0882 709.047C108.879 682.804 123.625 656.515 123.625 604.028V430.295L221.447 430.522C297.082 430.703 333.425 461.705 333.289 517.32C333.153 573.614 296.674 604.436 221.039 604.254C219.315 604.254 199.306 604.254 189.641 604.209C148.353 604.119 135.331 627.915 125.939 649.58L124.623 652.798L222.309 653.025C329.568 653.251 390.866 602.623 391.047 517.456C391.274 432.969 330.204 381.978 222.99 381.751Z" fill="black"/>
</svg>
