<svg width="1980" height="1200" viewBox="0 0 1980 1200" fill="none" xmlns="http://www.w3.org/2000/svg">
<path d="M1400.98 695.419C1400.98 695.043 1400.98 685.652 1399.1 669.498C1396.47 646.582 1390.84 611.27 1378.06 571.073C1378.06 570.698 1378.06 570.698 1377.69 570.322V570.698C1377.69 570.322 1377.69 569.946 1377.31 569.946C1370.18 548.158 1361.54 526.369 1351.39 505.707C1335.24 472.649 1309.69 435.082 1281.14 402.399C1261.61 380.235 1245.45 364.832 1225.17 349.43C1225.17 349.43 1225.17 349.43 1224.79 349.43C1212.02 339.663 1198.12 330.271 1183.84 321.255C1183.84 321.255 1183.47 321.255 1183.47 320.879C1122.24 290.075 1055.37 273.921 990.377 273.921C912.614 275.048 828.464 301.72 796.908 320.504C796.533 320.879 795.781 320.879 795.406 321.255C781.13 329.895 767.231 339.287 754.458 349.054C733.045 365.959 713.135 384.743 695.103 405.404C668.806 435.082 646.266 468.892 628.234 506.083C618.091 527.12 609.45 548.533 602.313 570.322L601.937 571.449C588.789 612.021 583.154 647.334 580.9 669.874C579.021 685.652 579.021 695.043 579.021 695.419H583.905L579.397 695.795C580.148 704.435 581.275 712.7 582.778 720.589C594.048 778.817 660.541 829.908 661.293 830.659C688.716 851.696 763.474 901.66 867.534 915.184C919 921.946 961.075 926.078 1002.02 926.078C1051.61 926.078 1099.32 920.068 1158.68 905.041C1163.93 903.914 1284.15 872.358 1348.76 804.362C1378.44 773.182 1395.72 736.367 1399.85 695.795L1395.72 695.419H1400.98ZM1359.66 546.655C1359.28 546.279 1358.53 545.528 1358.15 545.152C1356.65 544.025 1355.15 542.523 1354.02 541.396C1353.65 541.02 1353.27 540.644 1352.52 540.269C1351.39 539.517 1350.27 538.39 1349.51 537.639C1349.14 537.263 1348.39 536.888 1348.01 536.512C1346.88 535.761 1345.76 535.009 1345.01 534.258C1344.63 533.882 1343.88 533.507 1343.5 533.131C1342.38 532.38 1341.25 531.628 1340.12 530.877C1339.75 530.501 1339 530.126 1338.24 529.75C1337.12 528.999 1335.99 528.247 1334.86 527.872C1334.11 527.496 1333.74 527.12 1332.98 526.745C1331.86 525.993 1330.73 525.618 1329.6 524.866C1328.85 524.491 1328.48 524.115 1327.73 523.739C1326.6 523.364 1325.47 522.612 1324.34 522.237C1323.59 521.861 1322.84 521.485 1322.09 521.11C1320.96 520.734 1320.21 520.358 1319.09 519.607C1318.33 519.231 1317.58 518.856 1316.83 518.856C1315.7 518.48 1314.95 518.104 1313.83 517.729C1313.07 517.353 1312.32 516.977 1311.2 516.977C1310.44 516.602 1309.32 516.226 1308.57 516.226C1307.82 515.85 1306.69 515.475 1305.94 515.475C1305.19 515.099 1304.43 515.099 1303.68 514.723C1302.56 514.348 1301.8 514.348 1300.68 513.972C1299.93 513.596 1299.17 513.596 1298.42 513.596C1297.3 513.221 1296.54 513.221 1295.42 512.845C1294.67 512.845 1293.92 512.469 1293.16 512.469C1292.04 512.469 1291.29 512.094 1290.16 512.094C1289.41 512.094 1288.66 511.718 1287.9 511.718C1287.15 511.718 1286.03 511.342 1285.28 511.342C1284.52 511.342 1283.77 511.342 1283.02 511.342C1282.65 511.342 1282.27 511.342 1281.89 511.342V418.177C1306.69 447.855 1328.48 480.538 1342.75 509.84C1349.14 521.861 1354.77 534.258 1359.66 546.655ZM1291.66 552.666C1293.16 555.295 1294.67 558.301 1295.79 560.93C1298.05 565.438 1299.93 569.946 1302.18 574.454C1303.31 577.084 1304.43 579.338 1305.94 581.968C1309.32 589.105 1312.32 596.243 1315.33 603.381C1315.33 603.756 1315.7 603.756 1315.7 604.132C1327.73 632.683 1332.98 649.588 1332.98 649.963C1334.49 655.223 1335.99 660.106 1337.12 665.366C1337.87 668.371 1338.62 671.001 1339.37 673.63C1341.25 681.895 1343.13 690.16 1344.63 698.049C1351.77 734.488 1352.9 763.039 1353.27 775.812L1283.4 735.24V535.009C1284.15 536.888 1285.27 538.39 1286.03 540.269C1287.53 544.401 1289.41 548.533 1291.66 552.666ZM810.808 893.771C769.109 882.125 734.172 865.596 708.251 850.569L798.411 798.727L819.448 811.124C810.057 859.961 810.808 892.268 810.808 893.771ZM636.123 697.673C638.377 686.027 640.631 675.509 643.636 664.99C644.763 659.731 646.266 654.847 647.769 649.588C648.52 647.334 653.779 630.053 665.049 603.381C667.303 598.121 669.557 592.862 672.187 587.603C672.563 586.476 673.314 585.349 673.69 584.222C675.944 578.962 678.198 574.079 680.827 569.195C681.203 568.444 681.579 567.692 681.954 566.565C684.208 562.057 686.462 557.549 688.716 553.041C689.092 552.29 689.468 551.539 689.843 550.787C692.473 545.904 694.727 541.02 697.357 536.512C697.732 536.136 697.732 535.761 698.108 535.009V735.24L627.858 775.812C627.858 762.288 629.361 734.113 636.123 697.673ZM707.875 408.41C714.637 404.653 721.775 401.272 729.288 399.018C743.188 394.51 757.463 392.256 772.49 392.632C774.368 392.632 776.622 392.632 778.876 392.632C781.13 392.632 783.76 392.632 786.014 392.632C786.39 392.632 786.765 392.632 787.141 392.632C786.014 393.759 785.263 394.886 784.136 396.013C783.009 397.14 781.882 398.642 780.755 399.769C778.125 402.775 775.495 405.78 772.49 408.785C771.739 409.912 770.612 410.664 769.86 411.791C766.479 415.923 762.723 419.68 759.342 423.812C755.585 428.32 751.828 432.828 748.447 437.336C741.31 446.352 734.923 455.368 728.913 464.384C728.161 465.511 727.41 466.638 727.034 467.389C725.907 469.268 724.405 471.146 723.278 473.4C722.151 475.278 720.648 477.532 719.521 479.411C718.77 480.538 718.394 481.289 717.643 482.416C715.764 485.046 714.262 488.051 712.383 491.056C712.383 491.432 712.008 491.432 712.008 491.808C710.881 494.062 709.378 496.316 708.251 498.194V408.034C707.5 408.41 707.5 408.41 707.875 408.41ZM870.539 316.747C873.169 316.747 875.423 317.123 878.052 317.123C878.428 317.123 878.804 317.123 878.804 317.123C878.804 317.123 878.428 317.123 878.428 317.498C875.423 319.377 872.793 321.255 869.788 322.758C869.036 323.133 868.661 323.509 867.909 323.885C865.28 325.387 862.65 327.266 860.396 328.768C860.02 329.144 859.645 329.144 859.645 329.52C857.015 331.398 854.385 333.276 851.756 335.155C851.004 335.53 850.629 335.906 849.877 336.282C847.248 338.16 844.994 340.038 842.364 341.917C840.11 343.419 838.232 345.298 836.353 346.8C835.602 347.552 834.475 348.303 833.724 349.054C832.597 349.806 831.47 350.933 830.343 351.684C829.216 352.435 828.464 353.187 827.337 353.938C826.21 354.689 825.083 355.816 824.332 356.568C823.205 357.319 822.454 358.446 821.327 359.197C820.2 359.949 819.448 361.076 818.321 361.827C817.194 362.578 816.443 363.705 815.316 364.457C814.189 365.208 813.438 366.335 812.311 367.086C811.184 367.838 810.432 368.965 809.305 369.716C808.178 370.467 807.427 371.594 806.3 372.346C805.173 373.473 804.422 374.224 803.295 375.351C802.919 375.727 802.168 376.478 801.792 376.854V328.768C807.803 326.139 813.813 323.885 820.2 322.382C835.978 317.874 852.883 315.996 870.539 316.747ZM909.608 310.736C910.36 310.361 911.111 309.985 912.238 309.609C915.243 308.107 917.873 306.604 920.878 305.477C923.884 303.974 926.889 302.847 930.27 301.345C931.021 300.969 932.148 300.593 932.9 300.218C935.154 299.466 937.032 298.339 939.286 297.588C940.413 297.212 941.54 296.837 942.667 296.461C944.545 295.71 946.424 294.958 948.302 294.583C949.429 294.207 950.932 293.831 952.059 293.456C953.937 292.704 955.44 292.329 957.318 291.577C958.445 291.202 959.948 290.826 961.075 290.45C962.577 290.075 964.456 289.323 965.958 288.948C967.085 288.572 968.588 288.196 969.715 287.821C971.218 287.445 972.72 287.069 974.223 286.694C975.35 286.318 976.853 286.318 977.98 285.942C979.482 285.567 980.985 285.191 982.488 284.815C983.615 284.44 984.742 284.44 985.493 284.44V341.917C983.615 340.79 982.112 340.038 980.234 339.287C976.853 337.409 973.472 335.53 970.091 334.028C968.964 333.652 967.837 332.901 966.71 332.525C964.456 331.398 962.202 330.271 959.948 329.144C958.821 328.393 957.318 328.017 956.191 327.641C953.937 326.89 952.059 325.763 949.805 325.012C948.678 324.636 947.175 323.885 946.048 323.509C943.794 322.758 941.54 322.006 939.662 321.255C938.535 320.879 937.408 320.504 936.281 320.128C933.651 319.377 931.021 318.25 928.392 317.498C927.64 317.123 926.889 317.123 926.513 316.747C923.132 315.62 920.127 314.869 916.746 314.117C915.995 313.742 914.868 313.742 914.116 313.366C912.238 312.99 910.36 312.615 908.481 312.239C908.106 311.488 908.857 311.112 909.608 310.736ZM1002.4 285.567C1003.9 285.942 1005.03 285.942 1006.53 286.318C1008.03 286.694 1009.54 287.069 1011.04 287.445C1012.54 287.821 1013.67 288.196 1015.17 288.572C1016.67 288.948 1018.18 289.323 1019.68 290.075C1021.18 290.45 1022.31 290.826 1023.81 291.202C1025.31 291.577 1026.82 292.329 1028.69 292.704C1030.2 293.08 1031.32 293.456 1032.83 294.207C1034.33 294.958 1036.21 295.334 1037.71 296.085C1039.21 296.461 1040.34 297.212 1041.84 297.588C1043.72 298.339 1045.6 299.091 1047.48 299.842C1048.6 300.218 1049.73 300.593 1050.86 301.345C1053.86 302.472 1056.87 303.974 1059.87 305.477C1062.13 306.604 1064.38 307.731 1066.64 308.858C1067.76 309.234 1068.52 309.985 1069.64 310.361C1070.39 310.736 1071.14 311.112 1071.9 311.863C1070.02 312.239 1068.52 312.615 1066.64 312.99C1065.89 313.366 1064.76 313.366 1064.01 313.742C1060.63 314.493 1057.62 315.244 1054.24 316.371C1053.86 316.371 1053.11 316.747 1052.74 316.747C1050.11 317.498 1047.48 318.25 1044.47 319.377C1043.35 319.752 1042.22 320.128 1041.09 320.504C1038.84 321.255 1036.58 322.006 1034.71 322.758C1033.58 323.133 1032.08 323.885 1030.95 324.26C1028.69 325.012 1026.82 326.139 1024.56 326.89C1023.44 327.266 1021.93 328.017 1020.81 328.393C1018.55 329.52 1016.3 330.647 1014.04 331.774C1012.92 332.149 1011.79 332.901 1010.66 333.276C1007.28 334.779 1003.9 336.657 1000.52 338.536C1000.52 338.536 1000.14 338.536 1000.14 338.911C998.641 339.663 997.139 340.414 995.636 341.541L995.26 341.917V284.064C996.387 284.44 997.514 284.44 998.641 284.815C999.393 285.191 1000.9 285.191 1002.4 285.567ZM1109.46 316.747C1125.24 315.996 1140.27 317.498 1154.54 320.879H1154.92C1157.17 321.255 1159.05 322.006 1161.3 322.758C1162.06 323.133 1162.81 323.133 1163.56 323.509C1165.06 323.885 1166.94 324.636 1168.44 325.387C1169.57 325.763 1170.7 326.139 1171.82 326.514C1173.33 326.89 1174.45 327.641 1175.96 328.393C1176.33 328.393 1176.71 328.768 1177.08 328.768V377.981C1175.96 376.854 1174.45 375.351 1173.33 374.224C1172.95 373.848 1172.57 373.473 1172.2 373.097C1168.82 369.716 1165.44 366.335 1162.06 363.33C1161.68 362.954 1161.68 362.954 1161.3 362.578C1157.92 359.197 1154.17 356.192 1150.41 352.811L1150.03 352.435C1146.28 349.054 1142.52 346.049 1138.39 343.044L1138.01 342.668C1136.51 341.541 1135.01 340.414 1133.51 339.287C1133.13 338.911 1132.38 338.536 1132 338.16C1130.88 337.409 1129.75 336.657 1128.62 335.53C1128.25 335.155 1127.49 334.779 1127.12 334.403C1125.99 333.652 1124.49 332.525 1123.36 331.774C1122.99 331.398 1122.61 331.022 1122.24 331.022C1120.36 329.895 1118.48 328.768 1116.6 327.266C1116.22 327.266 1116.22 326.89 1115.85 326.89C1114.35 325.763 1112.47 324.636 1110.97 323.885C1110.21 323.509 1109.84 323.133 1109.09 322.758C1107.58 322.006 1106.08 320.879 1104.58 320.128C1103.83 319.752 1103.45 319.377 1102.7 319.001C1102.33 318.625 1101.95 318.625 1101.57 318.25C1101.95 318.25 1102.33 318.25 1102.7 318.25C1104.2 316.747 1106.83 316.747 1109.46 316.747ZM1207.51 392.256C1208.26 392.256 1209.39 392.256 1210.14 392.256C1224.04 392.256 1237.94 394.51 1250.71 398.642C1252.97 399.394 1255.22 400.145 1257.1 400.896C1260.86 402.399 1264.24 403.902 1267.99 405.78C1269.5 406.531 1271 407.283 1272.13 408.034C1272.5 408.034 1272.5 408.41 1272.88 408.41V498.945C1272.88 498.57 1272.5 498.57 1272.5 498.194C1271.38 496.316 1270.25 494.437 1269.5 492.935C1268.37 491.432 1267.62 489.554 1266.49 488.051C1265.36 486.548 1264.61 485.046 1263.49 483.167C1262.36 481.289 1261.23 479.786 1260.48 477.908C1259.73 476.405 1258.6 474.903 1257.85 473.4C1256.72 471.522 1255.6 470.019 1254.47 468.141C1253.72 466.638 1252.59 465.511 1251.84 464.008C1250.71 462.13 1249.21 460.252 1248.08 458.373C1247.33 457.246 1246.58 456.119 1245.45 454.617C1243.95 452.738 1242.45 450.484 1240.95 448.606C1240.19 447.479 1239.44 446.728 1238.69 445.601C1236.44 442.595 1234.18 439.59 1231.93 436.585C1228.55 432.452 1225.17 427.944 1221.41 423.812C1220.28 422.309 1218.78 421.182 1217.65 419.68C1215.03 417.05 1212.77 414.045 1210.14 411.415C1208.64 409.912 1207.14 408.41 1205.63 406.907C1203.38 404.277 1200.75 402.023 1198.5 399.394C1196.99 397.891 1195.49 396.388 1193.99 394.886C1193.24 394.134 1192.49 393.383 1191.73 392.256C1196.24 391.88 1201.13 391.505 1205.63 391.505C1206.76 392.632 1207.14 392.256 1207.51 392.256ZM1264.99 512.845C1263.86 512.845 1262.73 513.221 1261.61 513.596C1260.86 513.596 1260.48 513.972 1259.73 513.972C1258.6 514.348 1257.48 514.348 1256.35 514.723C1255.6 514.723 1254.85 515.099 1254.09 515.099C1252.97 515.475 1251.84 515.475 1250.71 515.85C1249.96 515.85 1249.21 516.226 1248.46 516.226C1246.96 516.602 1245.83 516.977 1244.33 517.353C1243.95 517.353 1243.2 517.729 1242.82 517.729C1240.95 518.104 1238.69 518.856 1236.81 519.231C1236.44 519.231 1235.69 519.607 1235.31 519.607C1233.81 519.983 1232.31 520.358 1230.43 521.11C1229.68 521.485 1228.92 521.485 1228.17 521.861C1226.67 522.237 1225.54 522.612 1224.04 523.364C1223.29 523.739 1222.54 523.739 1221.79 524.115C1220.28 524.491 1218.78 525.242 1217.65 525.618C1216.9 525.993 1216.15 525.993 1215.4 526.369C1213.9 527.12 1212.02 527.496 1210.52 528.247C1210.14 528.623 1209.39 528.623 1209.01 528.999C1206.76 529.75 1204.51 530.877 1202.25 531.628C1201.88 532.004 1201.13 532.004 1200.75 532.38C1198.87 533.131 1197.37 533.882 1195.49 534.634C1194.74 535.009 1193.99 535.385 1193.24 535.761C1191.73 536.512 1190.23 537.263 1189.1 538.015C1188.35 538.39 1187.6 538.766 1186.85 539.142V400.521C1188.35 402.023 1190.23 403.902 1191.73 405.404C1193.99 407.658 1196.24 409.912 1198.12 412.166C1200 414.045 1201.5 415.923 1203.38 417.801C1205.63 420.431 1208.26 423.061 1210.52 425.69C1212.02 427.193 1213.52 428.696 1214.65 430.198C1218.41 434.331 1222.16 438.839 1225.54 443.347C1227.8 445.976 1230.05 448.982 1231.93 451.987C1232.68 453.114 1233.43 453.865 1234.18 454.992C1235.69 456.871 1236.81 458.749 1238.32 460.627C1239.07 461.754 1239.82 462.881 1240.95 464.384C1242.07 466.262 1243.2 467.765 1244.33 469.643C1245.08 470.77 1246.21 472.273 1246.96 473.4C1248.08 474.903 1249.21 476.781 1250.34 478.284C1251.09 479.786 1252.22 480.913 1252.97 482.416C1254.09 483.919 1254.85 485.797 1255.97 487.3C1256.72 488.802 1257.85 490.305 1258.6 491.432C1259.73 492.935 1260.48 494.813 1261.61 496.316C1262.36 497.818 1263.49 499.321 1264.24 500.824C1265.36 502.702 1266.12 504.205 1267.24 506.083C1267.99 507.586 1268.75 509.088 1269.87 510.591C1270.25 510.967 1270.62 511.718 1271 512.094C1269.87 512.094 1268.37 512.469 1267.24 512.469C1265.74 512.845 1265.36 512.845 1264.99 512.845ZM1176.71 790.463L1158.68 800.981C1158.68 800.23 1158.3 799.854 1158.3 799.103C1157.92 797.976 1157.92 797.225 1157.55 796.098C1157.17 794.219 1156.8 792.341 1156.42 790.838C1156.05 789.711 1156.05 788.584 1155.67 787.833C1155.29 785.955 1154.92 784.452 1154.54 782.574C1154.17 781.822 1154.17 780.695 1153.79 779.944C1153.04 777.314 1152.66 774.685 1151.91 772.431C1146.28 751.018 1139.52 731.107 1132 711.573C1123.74 690.911 1114.35 670.249 1103.83 651.09L1103.45 650.715C1101.57 646.958 1099.32 643.201 1097.07 639.445C1096.31 638.318 1095.94 637.191 1095.19 636.064C1093.68 633.81 1092.56 631.556 1091.06 628.926L1091.43 628.55C1091.81 628.175 1092.18 627.799 1092.93 627.048C1093.31 626.672 1094.06 625.921 1094.44 625.545C1094.81 625.169 1095.56 624.418 1095.94 624.042C1096.69 623.291 1097.07 622.915 1097.82 622.164C1098.19 621.788 1098.94 621.037 1099.32 620.661C1100.07 619.91 1100.82 619.534 1101.2 618.783C1101.95 618.032 1102.33 617.656 1103.08 616.905C1103.83 616.153 1104.58 615.402 1105.33 614.651C1106.08 613.899 1106.46 613.524 1107.21 612.772C1107.96 612.021 1108.71 611.27 1109.46 610.518C1110.21 609.767 1110.97 609.391 1111.72 608.64C1112.47 607.889 1113.22 607.137 1114.35 606.386C1115.1 605.635 1115.85 604.883 1116.6 604.508C1117.35 603.756 1118.48 603.005 1119.23 602.254C1119.98 601.502 1120.73 600.751 1121.48 600C1122.24 599.248 1123.36 598.497 1124.11 597.746C1124.87 596.994 1125.62 596.243 1126.74 595.492C1127.49 594.74 1128.62 593.989 1129.37 592.862C1130.12 592.111 1130.88 591.359 1132 590.608C1133.13 589.857 1133.88 589.105 1135.01 587.978C1135.76 587.227 1136.51 586.476 1137.64 585.724C1138.76 584.973 1139.52 584.222 1140.64 583.095C1141.39 582.343 1142.15 581.592 1143.27 580.841C1144.4 580.089 1145.15 579.338 1146.28 578.211C1147.03 577.46 1147.78 576.708 1148.91 576.333C1150.03 575.581 1150.79 574.83 1151.91 573.703C1152.66 572.952 1153.42 572.576 1154.17 571.825C1155.29 571.073 1156.42 569.946 1157.55 569.195C1158.3 568.819 1158.68 568.068 1159.43 567.692C1161.3 566.19 1162.81 565.063 1164.69 563.56C1166.56 562.057 1168.82 560.555 1170.7 559.428C1171.45 559.052 1171.82 558.676 1172.57 558.301C1173.7 557.549 1175.2 556.422 1176.33 555.671C1176.71 555.295 1177.08 555.295 1177.08 554.92V790.463H1176.71ZM1073.02 635.312C1071.9 636.439 1071.14 637.566 1070.02 639.069C1068.52 640.947 1067.01 642.45 1065.89 644.328C1064.76 645.831 1063.63 647.334 1062.13 648.836C1061 650.339 1059.87 651.842 1058.75 653.344C1057.25 655.223 1055.74 657.101 1054.62 658.979C1053.86 660.106 1052.74 661.233 1051.99 662.736C1050.48 664.99 1048.98 667.244 1047.1 669.498C1046.35 670.625 1045.6 671.376 1045.22 672.503C1043.72 674.757 1041.84 677.387 1040.34 679.641C1039.59 680.392 1039.21 681.519 1038.46 682.271C1036.96 684.525 1035.83 686.403 1034.71 688.657C1033.95 690.16 1032.83 691.287 1032.08 692.789C1031.7 693.165 1031.7 693.541 1031.32 693.916C1029.45 696.922 1027.94 699.927 1026.06 702.932C1024.94 704.811 1024.19 706.689 1023.06 708.567C1022.31 710.07 1021.56 711.197 1020.81 712.7C1020.43 713.451 1020.05 714.202 1019.68 714.954C1018.18 717.583 1017.05 720.213 1015.55 722.843C1015.17 723.218 1015.17 723.594 1014.79 723.97C1013.29 726.975 1011.79 729.98 1010.29 733.361C1010.29 733.737 1009.91 734.113 1009.91 734.113C1008.41 737.494 1006.91 740.499 1005.4 743.88C1005.4 744.256 1005.03 744.631 1005.03 744.631C1003.52 747.637 1002.02 751.018 1000.9 754.399C1000.9 754.774 1000.52 755.15 1000.52 755.901C999.393 758.907 997.89 761.912 996.763 765.293C996.387 766.044 996.387 766.796 996.012 767.171C995.636 767.547 995.636 768.298 995.26 768.674V512.094C996.763 513.596 997.89 515.099 999.393 516.602C1000.9 518.104 1002.02 519.607 1003.52 521.11C1005.4 523.364 1007.28 525.618 1009.54 527.872C1011.04 529.374 1012.54 531.253 1013.67 532.755C1015.55 535.009 1017.05 536.888 1018.93 539.142C1020.43 541.02 1022.31 543.274 1023.81 545.152C1025.31 547.031 1026.82 548.909 1028.32 550.787C1031.32 554.92 1034.33 558.676 1037.71 562.809C1039.21 564.687 1040.72 566.565 1041.84 568.444L1042.22 568.819C1044.47 571.825 1046.35 574.454 1048.6 577.46C1049.36 578.211 1049.73 579.338 1050.48 580.089C1051.99 582.343 1053.49 584.597 1054.99 586.476C1063.63 599.248 1071.9 612.397 1080.54 626.672C1079.79 627.423 1079.41 628.175 1078.66 628.926C1076.03 631.18 1074.53 633.058 1073.02 635.312ZM981.361 758.907C979.107 753.647 976.853 748.012 974.223 742.753C973.472 741.25 973.096 740.123 972.345 738.621C969.715 733.361 967.085 727.726 964.456 722.467C964.08 721.716 963.704 720.964 963.329 720.213C960.323 714.578 957.318 708.567 954.313 702.932C950.932 696.922 947.175 690.911 943.418 684.9C943.043 684.149 942.667 683.398 941.916 682.646C940.789 680.768 939.662 679.265 938.535 677.387C937.408 675.884 936.281 674.006 935.154 672.503C934.402 671.001 933.275 669.874 932.524 668.747C931.021 666.868 929.894 664.614 928.392 662.736C927.64 661.609 926.889 660.482 926.138 659.355C924.635 657.101 923.132 655.223 921.63 652.969C920.878 651.842 920.127 651.09 919.376 649.963C917.497 647.709 915.995 645.455 914.116 643.201C913.365 642.45 912.989 641.699 912.238 640.947C910.36 638.693 908.481 636.439 906.603 633.81C906.227 633.058 905.476 632.683 905.1 632.307C903.598 630.804 902.095 628.926 900.592 627.048C910.735 609.767 921.63 593.238 932.524 577.46C932.9 577.084 933.275 576.333 933.651 575.957C935.529 573.327 937.408 571.073 938.91 568.444C943.418 562.433 947.926 556.422 952.434 550.412C955.44 546.279 958.821 542.147 962.202 538.39C962.953 537.639 963.704 536.888 964.456 535.761C967.085 532.755 969.339 529.75 971.969 526.745C973.472 525.242 974.599 523.739 976.101 522.237C977.98 519.983 979.858 518.104 981.736 515.85C982.863 514.348 984.366 513.221 985.493 511.718V768.674C984.742 766.796 983.99 764.542 983.239 762.663C982.488 761.536 981.736 760.409 981.361 758.907ZM882.936 639.069C880.682 642.826 878.804 646.958 876.55 650.715C866.031 669.874 856.639 690.535 848.375 711.197C840.486 731.107 833.724 751.769 828.464 772.055C826.962 777.314 825.835 782.949 824.332 788.209C823.956 789.711 823.581 791.59 823.205 793.092C822.454 795.722 822.078 798.352 821.327 800.981L802.168 789.711V554.168C802.919 554.544 803.295 554.92 804.046 555.295C804.797 555.671 805.173 556.047 805.924 556.422C807.051 557.174 808.178 557.925 808.93 558.676C809.681 559.052 810.057 559.428 810.808 559.803C812.311 560.93 814.189 562.057 815.692 563.56C817.57 564.687 819.073 566.19 820.951 567.692C821.702 568.068 822.078 568.819 822.829 569.195C823.956 569.946 825.083 571.073 826.21 571.825C826.962 572.576 827.713 572.952 828.464 573.703C829.591 574.454 830.718 575.581 831.47 576.333C832.221 577.084 832.972 577.46 833.724 578.211C834.851 578.962 835.978 580.089 836.729 580.841C837.48 581.592 838.232 582.343 838.983 582.719C840.11 583.47 840.861 584.597 841.988 585.349C842.74 586.1 843.491 586.851 844.242 587.227C845.369 587.978 846.121 589.105 847.248 589.857C847.999 590.608 848.75 591.359 849.502 592.111C850.629 592.862 851.38 593.613 852.507 594.74C853.258 595.492 854.01 596.243 854.761 596.994C855.888 597.746 856.639 598.497 857.766 599.624C858.518 600.375 859.269 601.127 860.02 601.502C861.147 602.254 861.899 603.381 862.65 604.132C863.401 604.883 864.153 605.259 864.904 606.01C865.655 606.762 866.782 607.513 867.534 608.64C868.285 609.391 868.661 609.767 869.412 610.518C870.163 611.27 871.29 612.021 872.042 612.772C872.793 613.524 873.169 613.899 873.92 614.275C874.671 615.026 875.423 615.778 876.174 616.529C876.55 616.905 877.301 617.656 877.677 618.032C878.428 618.783 879.179 619.534 879.931 620.286C880.306 620.661 881.058 621.413 881.433 621.788C882.185 622.54 882.936 623.291 883.312 623.667C883.687 624.042 884.063 624.418 884.814 625.169C885.566 625.921 885.941 626.296 886.317 627.048C886.693 627.423 887.068 627.799 887.444 628.175L887.82 628.55C886.693 630.804 885.19 632.683 884.063 634.937C884.439 636.064 883.687 637.566 882.936 639.069ZM787.141 535.009C786.39 534.634 785.638 534.258 784.887 533.882C783.384 533.131 781.506 532.38 780.003 531.628C779.252 531.253 778.876 531.253 778.125 530.877C775.871 530.126 773.617 528.999 771.739 528.247C770.987 527.872 770.612 527.872 769.86 527.496C768.358 526.745 766.479 526.369 764.977 525.618C764.225 525.242 763.474 524.866 762.347 524.866C760.844 524.491 759.717 523.739 758.215 523.364C757.463 522.988 756.712 522.988 755.585 522.612C754.082 522.237 752.955 521.861 751.453 521.485C750.701 521.11 749.95 521.11 749.199 520.734C747.696 520.358 746.193 519.983 744.315 519.231C743.939 519.231 743.188 518.856 742.812 518.856C740.934 518.48 738.68 517.729 736.802 517.353C736.426 517.353 735.675 516.977 735.299 516.977C733.796 516.602 732.294 516.226 730.791 515.85C730.04 515.85 729.288 515.475 728.913 515.475C727.786 515.099 726.659 515.099 725.156 514.723C724.405 514.723 724.029 514.348 723.278 514.348C722.151 513.972 721.024 513.972 719.897 513.596C719.521 513.596 718.77 513.221 718.394 513.221C716.891 512.845 715.764 512.845 714.637 512.469C714.262 512.469 714.262 512.469 713.886 512.469C712.383 512.094 711.256 512.094 710.129 512.094C712.759 507.586 715.013 503.453 717.643 499.321C718.018 498.945 718.018 498.194 718.394 497.818C719.897 495.189 721.399 492.935 722.902 490.681C723.653 489.554 724.029 488.802 724.78 487.675C725.907 485.797 727.034 483.919 728.537 482.04C729.288 480.913 730.04 479.411 730.791 478.284C731.918 476.781 732.669 475.278 733.796 473.4C734.923 471.897 735.675 470.395 736.802 468.892C737.553 467.765 738.304 466.638 739.056 465.511C740.183 463.633 741.685 461.754 742.812 459.876C743.188 459.5 743.564 459.125 743.939 458.373C747.696 453.114 751.453 448.23 755.585 442.971C764.601 431.325 774.368 420.055 784.511 409.161C786.014 407.658 787.141 406.156 788.644 404.653C790.146 403.15 791.649 401.648 793.152 400.145V537.639C792.776 537.263 792.4 537.263 792.025 536.888C790.146 536.512 788.644 535.761 787.141 535.009ZM807.803 385.118C810.808 382.113 813.813 379.483 816.443 376.854C816.819 376.478 817.194 376.102 817.946 375.727C820.951 373.097 823.956 370.467 826.586 367.838C827.337 367.462 827.713 366.711 828.464 366.335C831.47 363.705 834.475 361.076 837.48 358.822C837.856 358.446 838.607 358.07 838.983 357.695C841.988 355.065 845.369 352.435 848.75 350.181C850.253 349.054 852.131 347.552 854.01 346.425C854.761 346.049 855.137 345.673 855.888 344.922C857.015 344.171 858.142 343.044 859.269 342.292C860.02 341.541 860.772 341.165 861.523 340.414C862.65 339.663 863.401 338.911 864.528 338.16C865.28 337.409 866.407 337.033 867.158 336.282C868.285 335.53 869.036 334.779 870.163 334.403C870.915 333.652 872.042 333.276 872.793 332.525C873.92 331.774 875.047 331.022 875.798 330.647C876.925 329.895 877.677 329.52 878.804 328.768C879.931 328.017 881.058 327.266 882.185 326.89C883.312 326.139 884.063 325.763 885.19 325.012C886.317 324.26 887.444 323.509 888.571 323.133C888.947 323.133 888.947 322.758 889.322 322.758V417.426C888.195 416.674 887.068 416.299 885.941 415.547C884.439 414.796 882.936 413.669 881.058 412.918C879.931 412.542 879.179 411.791 878.052 411.415C875.423 409.912 872.793 408.785 870.163 407.658C856.264 400.896 841.988 395.637 827.713 391.88L826.21 390.378C824.708 390.002 822.829 389.626 821.327 389.251C820.2 388.875 819.073 388.499 817.946 388.499C817.194 388.124 816.067 388.124 815.316 387.748C813.062 387.372 810.808 386.621 808.93 386.245C808.554 386.245 807.803 385.87 807.427 385.87C807.427 385.494 807.427 385.118 807.803 385.118ZM903.598 320.504C905.476 320.879 906.979 321.255 908.857 321.631C910.36 322.006 911.862 322.382 913.741 322.758C915.619 323.133 917.497 323.885 919 324.26C920.503 324.636 922.005 325.012 923.508 325.387C925.386 325.763 927.265 326.514 929.143 327.266C930.646 327.641 932.148 328.393 933.651 328.768C935.529 329.52 937.408 330.271 939.286 331.022C940.789 331.398 942.291 332.149 943.794 332.525C945.672 333.276 947.926 334.403 949.805 335.155C951.307 335.906 952.434 336.282 953.937 337.033C956.191 338.16 958.445 339.287 960.699 340.414C961.826 340.79 962.953 341.541 964.08 341.917C967.461 343.795 971.218 345.298 974.599 347.176C976.101 347.927 977.98 349.054 979.482 349.806C977.228 351.308 974.974 352.811 972.345 354.314C970.842 355.441 969.339 356.192 967.461 357.319C963.704 359.573 960.323 362.203 956.567 364.832C956.191 365.208 955.44 365.584 955.064 365.959C951.307 368.589 947.551 371.219 943.794 373.848C942.667 374.6 941.164 375.727 940.037 376.478C937.408 378.356 934.778 380.235 932.148 382.489C930.646 383.616 929.143 384.743 928.016 385.87C925.762 387.748 923.508 389.626 921.254 391.505C919.751 392.632 918.249 394.134 916.746 395.261C914.492 397.14 912.614 398.642 910.36 400.521C908.857 402.023 907.354 403.15 905.852 404.653C903.973 406.531 901.719 408.034 899.841 409.912C898.714 410.664 897.963 411.791 896.836 412.542V319.752C900.592 320.128 902.095 320.128 903.598 320.504ZM1004.28 347.176C1008.03 345.298 1011.41 343.419 1014.79 341.541C1015.92 341.165 1017.05 340.414 1018.18 340.038C1020.43 338.911 1023.06 337.784 1025.31 336.657C1026.82 335.906 1027.94 335.53 1029.45 335.155C1031.7 334.403 1033.58 333.276 1035.83 332.525C1037.33 331.774 1038.84 331.398 1039.96 331.022C1041.84 330.271 1044.1 329.52 1045.98 328.768C1047.48 328.393 1048.98 327.641 1050.48 327.266C1052.36 326.514 1054.24 326.139 1056.12 325.387C1057.62 325.012 1059.12 324.636 1060.63 324.26C1062.5 323.885 1064.38 323.133 1066.26 322.758C1067.76 322.382 1069.27 322.006 1070.77 321.631C1072.65 321.255 1074.15 320.879 1076.03 320.504C1077.53 320.128 1079.03 320.128 1080.54 319.752H1080.91V412.918C1079.79 411.791 1078.66 411.039 1077.53 409.912C1075.65 408.034 1073.77 406.531 1071.52 404.653C1070.02 403.15 1068.52 401.648 1066.64 400.521C1064.76 398.642 1062.5 397.14 1060.63 395.261C1059.12 394.134 1057.62 392.632 1056.12 391.505C1053.86 389.626 1051.61 387.748 1049.36 386.245C1047.85 385.118 1046.35 383.991 1045.22 382.864C1042.59 380.986 1039.96 378.732 1037.33 376.854C1036.21 376.102 1035.08 374.975 1033.95 374.224C1026.44 368.589 1018.55 362.954 1010.66 357.695C1009.16 356.943 1007.66 355.816 1006.53 355.065C1004.28 353.562 1001.65 352.06 999.393 350.181C1000.9 349.43 1002.4 348.303 1003.9 347.552C1003.9 347.552 1004.28 347.552 1004.28 347.176ZM1094.81 324.636C1095.94 325.387 1097.07 326.139 1098.19 326.514C1099.32 327.266 1100.45 327.641 1101.2 328.393C1102.33 329.144 1103.45 329.52 1104.2 330.271C1105.33 331.022 1106.08 331.398 1107.21 332.149C1108.34 332.901 1109.09 333.276 1110.21 334.028C1111.34 334.779 1112.09 335.155 1113.22 335.906C1113.97 336.657 1115.1 337.033 1115.85 337.784C1116.6 338.536 1117.73 338.911 1118.48 339.663C1119.23 340.414 1120.36 340.79 1121.11 341.541C1122.24 342.292 1122.99 343.044 1124.11 343.795C1124.87 344.171 1125.62 344.922 1126.37 345.298C1127.87 346.425 1129.75 347.552 1131.25 349.054L1131.63 349.43C1135.38 352.435 1139.52 355.441 1142.9 358.822C1144.02 359.949 1145.53 361.076 1146.65 362.203C1149.28 364.457 1151.54 366.711 1153.79 368.965C1155.29 370.467 1156.8 371.594 1158.3 373.097C1160.55 375.351 1162.81 377.229 1165.06 379.483C1166.56 380.986 1168.07 382.489 1169.57 383.991C1170.32 384.743 1171.07 385.494 1171.82 386.245C1165.81 387.372 1159.43 388.875 1151.54 390.753C1142.9 393.007 1134.26 396.013 1125.62 399.394C1125.24 399.394 1125.24 399.394 1124.87 399.769C1122.24 400.896 1119.61 402.023 1116.98 403.15C1116.6 403.15 1116.22 403.526 1115.85 403.526C1113.22 404.653 1110.97 405.78 1108.34 406.907C1107.96 407.283 1107.58 407.283 1107.21 407.658C1104.95 408.785 1102.33 409.912 1100.07 411.039C1099.7 411.415 1098.94 411.415 1098.57 411.791C1096.31 412.918 1094.06 414.045 1091.81 415.547C1091.06 415.923 1090.3 416.299 1089.93 416.674C1089.93 416.674 1089.55 416.674 1089.55 417.05V322.758C1089.93 323.133 1090.3 323.133 1090.68 323.509C1092.56 323.133 1093.68 323.885 1094.81 324.636ZM1173.7 545.904C1172.57 546.655 1171.82 547.031 1170.7 547.782C1169.95 548.158 1169.57 548.533 1168.82 548.909C1167.69 549.66 1166.56 550.412 1165.44 551.163C1165.06 551.539 1164.31 551.914 1163.93 552.29C1162.43 553.417 1160.55 554.544 1158.68 556.047C1156.8 557.174 1155.29 558.676 1153.42 559.803C1152.66 560.179 1152.29 560.555 1151.54 561.306C1150.41 562.057 1149.28 563.184 1148.16 563.936C1147.41 564.687 1146.65 565.063 1145.9 565.814C1144.78 566.565 1143.65 567.692 1142.52 568.444C1141.77 569.195 1141.02 569.571 1140.27 570.322C1139.14 571.073 1138.01 572.2 1137.26 572.952C1136.51 573.703 1135.76 574.079 1135.01 574.83C1133.88 575.581 1132.75 576.708 1132 577.46C1131.25 578.211 1130.5 578.587 1129.75 579.338C1128.62 580.089 1127.87 581.216 1126.74 581.968C1125.99 582.719 1125.24 583.095 1124.49 583.846C1123.36 584.597 1122.61 585.724 1121.48 586.476C1120.73 587.227 1119.98 587.603 1119.23 588.354C1118.1 589.105 1117.35 590.232 1116.22 590.984C1115.47 591.735 1114.72 592.111 1113.97 592.862C1112.84 593.613 1112.09 594.74 1110.97 595.492C1110.21 596.243 1109.84 596.619 1109.09 597.37C1107.96 598.121 1107.21 599.248 1106.08 600C1105.71 600.375 1104.95 601.127 1104.58 601.502C1103.45 602.629 1102.33 603.381 1101.2 604.508C1100.82 604.883 1100.45 605.259 1100.07 605.635C1097.07 608.264 1094.44 610.894 1092.18 613.148C1091.81 613.524 1091.43 613.899 1091.06 614.275C1090.68 614.651 1090.3 615.026 1089.93 615.402V434.331C1092.93 437.336 1095.94 439.966 1098.57 442.971C1098.94 443.347 1099.7 444.098 1100.07 444.474C1104.2 448.606 1108.34 453.114 1112.09 457.246C1112.47 457.622 1112.84 457.998 1113.22 458.373C1117.35 462.881 1121.11 467.389 1124.87 471.897C1125.24 472.273 1125.24 472.273 1125.62 472.649C1129.37 477.157 1133.51 482.04 1136.89 486.548C1140.27 491.056 1144.02 495.564 1147.41 500.072C1148.53 501.575 1149.66 503.078 1150.79 504.58C1153.04 507.586 1155.29 510.967 1157.55 513.972C1158.68 515.85 1160.18 517.729 1161.3 519.607C1163.18 522.612 1165.44 525.618 1167.32 528.623C1168.82 530.501 1169.95 532.755 1171.45 535.009C1173.33 537.639 1174.83 540.269 1176.71 542.898C1176.33 543.274 1175.96 543.274 1175.58 543.65C1174.83 545.152 1174.08 545.528 1173.7 545.904ZM1075.28 601.878C1073.4 599.248 1071.9 596.243 1070.02 593.613C1069.64 592.862 1068.89 592.111 1068.52 591.359C1067.01 589.105 1065.51 586.851 1064.38 584.973C1063.63 583.846 1062.88 582.719 1062.13 581.216C1061 579.338 1059.87 577.835 1058.75 575.957C1057.62 574.454 1056.49 572.952 1055.74 571.449C1054.62 569.946 1053.49 568.444 1052.36 566.941C1051.23 565.438 1050.11 563.936 1048.98 562.433C1047.1 560.179 1045.6 557.925 1043.72 555.671C1043.35 554.92 1042.97 554.544 1042.22 553.793C1039.96 550.787 1037.71 547.782 1035.46 544.777C1032.08 540.644 1028.69 536.512 1025.69 532.38C1025.31 532.004 1024.94 531.628 1024.56 531.253C1021.56 527.496 1018.55 524.115 1015.55 520.734C1014.79 519.983 1014.42 519.231 1013.67 518.856C1011.04 515.85 1008.03 512.469 1005.4 509.464C1004.65 508.337 1003.52 507.586 1002.77 506.459C1000.9 504.58 999.017 502.702 997.139 500.824C997.514 500.448 997.514 500.448 997.89 500.072C1004.28 493.686 1011.04 487.3 1018.18 480.913C1018.55 480.538 1019.3 480.162 1019.68 479.411C1022.68 476.781 1025.31 474.527 1028.32 471.897C1039.21 462.881 1049.73 454.617 1060.25 447.103C1060.63 446.728 1061 446.352 1061.38 446.352C1063.63 444.849 1065.51 443.347 1067.76 442.22C1068.52 441.844 1069.27 441.093 1070.02 440.717C1071.9 439.59 1073.77 438.087 1075.65 436.96C1076.4 436.209 1077.53 435.833 1078.28 435.082C1079.41 434.331 1080.16 433.955 1081.29 433.204V610.894C1079.79 608.264 1077.91 605.635 1076.4 603.005C1075.65 602.629 1075.65 602.254 1075.28 601.878ZM974.974 509.464C972.72 511.718 970.842 514.348 968.588 516.602C967.461 518.104 965.958 519.607 964.831 521.11C962.953 523.364 961.075 525.618 959.196 527.496C957.694 529.374 956.191 530.877 954.688 532.755C953.186 534.634 951.683 536.136 950.556 538.015C948.678 540.269 947.175 542.147 945.297 544.401C943.043 547.031 941.164 549.66 938.91 552.666L938.535 553.041C937.408 554.544 936.281 556.047 935.154 557.925C934.027 559.428 932.9 560.93 931.773 562.433C931.021 563.56 930.27 564.687 929.519 565.814C928.016 567.692 926.513 569.946 925.011 572.2C924.635 572.952 923.884 573.703 923.508 574.454C921.63 577.084 920.127 579.338 918.249 581.968C917.873 582.343 917.497 583.095 917.122 583.47C915.243 586.476 913.365 589.105 911.487 592.111L911.111 592.486C906.979 598.497 903.222 604.883 899.09 611.27V433.204C899.841 433.579 900.968 434.331 901.719 434.706C903.598 435.833 905.476 436.96 906.979 438.087C908.106 438.839 909.233 439.59 910.36 440.341C912.238 441.468 913.741 442.595 915.619 443.722C916.746 444.474 918.249 445.225 919.376 446.352C920.878 447.479 922.005 448.23 923.508 449.357C925.011 450.484 926.513 451.611 928.016 452.738C928.767 453.49 929.894 453.865 930.646 454.617C932.524 456.119 934.778 457.622 936.656 459.125C944.921 465.511 953.186 472.273 961.075 479.035C968.212 485.421 975.726 492.183 982.488 499.321C982.863 499.697 983.239 500.072 983.239 500.072C981.736 501.575 980.234 503.453 978.355 504.956C977.604 506.834 976.101 508.337 974.974 509.464ZM885.566 611.645C885.19 611.27 884.814 610.894 884.063 610.143C882.936 609.016 881.809 607.889 880.682 607.137C880.306 606.762 880.306 606.762 879.931 606.386C878.428 604.883 876.925 603.756 875.423 602.254C875.047 601.878 874.296 601.502 873.92 600.751C872.793 599.624 871.666 598.873 870.539 597.746C869.788 597.37 869.412 596.619 868.661 596.243C867.534 595.492 866.782 594.365 865.655 593.613C864.904 592.862 864.153 592.486 863.401 591.735C862.274 590.984 861.523 589.857 860.396 589.105C859.645 588.354 858.893 587.978 858.142 587.227C857.015 586.476 856.264 585.349 855.137 584.597C854.385 583.846 853.634 583.095 852.883 582.719C851.756 581.968 851.004 580.841 849.877 580.089C849.126 579.338 848.375 578.587 847.623 578.211C846.496 577.46 845.369 576.333 844.618 575.581C843.867 574.83 843.115 574.454 842.364 573.703C841.237 572.952 840.11 571.825 839.359 571.073C838.607 570.322 837.856 569.946 837.105 569.195C835.978 568.444 834.851 567.317 833.724 566.565C832.972 566.19 832.221 565.438 831.47 565.063C830.343 563.936 829.216 563.184 827.713 562.433C826.962 562.057 826.586 561.682 825.835 560.93C823.956 559.428 822.454 558.301 820.575 556.798C818.697 555.295 816.819 554.168 815.316 553.041C814.94 552.666 814.565 552.29 813.813 551.914C812.686 551.163 811.184 550.036 810.057 549.285C809.681 548.909 808.93 548.533 808.554 548.158C807.427 547.406 806.3 546.655 805.173 545.904C804.797 545.528 804.046 545.152 803.67 544.777C803.295 544.777 803.295 544.401 802.919 544.401C804.422 542.147 805.549 539.893 807.051 537.639C808.554 535.385 809.681 533.131 811.184 530.877C813.062 527.872 815.316 524.866 817.194 521.861C818.321 519.983 819.824 518.104 820.951 516.226C823.205 512.845 825.459 509.464 828.089 506.459C829.216 504.956 830.343 503.453 831.47 501.951C834.851 497.067 838.607 492.559 841.988 488.051C846.121 482.792 850.253 477.532 854.385 472.649C855.888 471.146 857.391 469.268 858.518 467.765C861.523 464.384 864.153 461.003 867.158 457.998C869.036 456.119 870.539 454.241 872.417 452.363C875.047 449.357 877.677 446.728 880.306 443.722C882.185 441.844 884.063 439.966 886.317 437.712C887.068 436.96 887.444 436.585 888.195 435.833V616.153C887.82 615.778 887.444 615.402 886.693 614.651C887.444 613.148 886.317 612.397 885.566 611.645ZM808.554 395.261C809.305 395.261 809.681 395.637 810.432 395.637C811.935 396.013 813.062 396.388 814.565 396.764C817.57 397.515 820.575 398.267 823.581 399.018L825.835 399.769C835.978 402.399 845.745 405.78 855.888 409.912C858.142 411.039 860.396 411.791 863.026 412.918C863.401 412.918 863.777 413.293 863.777 413.293C865.655 414.045 867.909 415.172 869.788 416.299C870.539 416.674 871.29 417.05 872.042 417.426C873.544 418.177 875.047 418.928 876.55 419.68C878.052 420.431 879.555 421.182 881.058 421.934C881.809 422.309 882.936 423.061 883.687 423.436C884.439 423.812 885.19 424.188 885.566 424.563C883.687 426.442 881.809 428.32 879.931 430.198C878.052 432.077 875.798 434.331 873.92 436.209C871.29 438.839 868.661 441.844 866.031 444.849C864.153 446.728 862.274 448.606 860.772 450.86C857.766 454.241 855.137 457.246 852.131 460.627C850.629 462.506 849.126 464.008 847.623 465.887C843.491 470.77 839.359 476.03 835.226 481.289C831.47 485.797 828.089 490.681 824.332 495.564C823.205 497.067 822.078 498.57 820.951 500.072C818.697 503.453 816.067 506.834 813.813 510.215C812.311 512.094 811.184 513.972 810.057 516.226C807.803 519.231 805.924 522.237 804.046 525.618C803.295 526.745 802.543 527.872 801.792 528.999V394.134C802.543 394.134 803.295 394.51 803.67 394.51C805.549 394.886 807.051 395.261 808.554 395.261ZM908.857 416.299C910.735 414.796 912.614 412.918 914.492 411.415C915.995 409.912 917.497 408.785 919.376 407.283C921.254 405.78 923.132 403.902 925.011 402.399C926.513 400.896 928.392 399.769 929.894 398.267C931.773 396.764 934.027 395.261 935.905 393.383C937.408 392.256 939.286 390.753 940.789 389.626C942.667 388.124 944.921 386.621 946.799 384.743C948.302 383.616 950.18 382.113 951.683 380.986C953.937 379.483 956.191 377.981 958.445 376.102C959.948 374.975 961.826 373.848 963.329 372.721C965.958 370.843 968.212 369.34 970.842 367.462C972.345 366.335 973.472 365.584 974.974 364.457C978.355 362.203 981.736 359.949 985.117 357.695V488.427C984.366 487.675 983.239 486.548 982.488 485.797C981.736 485.046 980.609 484.294 979.858 483.167C975.726 479.035 971.218 475.278 967.085 471.522C958.821 464.008 950.18 457.246 941.54 450.484C941.164 450.109 940.789 449.733 940.037 449.357C937.783 447.479 935.529 445.976 932.9 444.098C932.148 443.347 931.397 442.971 930.27 442.22C928.392 440.717 926.138 439.214 924.259 437.712C923.132 436.96 922.381 436.209 921.254 435.458C919.376 434.331 917.497 432.828 915.619 431.701C914.492 430.95 913.365 430.198 912.238 429.447C910.36 428.32 908.481 427.193 906.603 426.066C905.476 425.315 904.349 424.563 903.222 423.812C902.471 423.436 901.344 422.685 900.592 422.309C901.719 421.182 902.471 420.431 903.598 419.304C905.852 419.304 907.354 417.801 908.857 416.299ZM1008.78 367.462C1011.41 369.34 1014.04 370.843 1016.3 372.721C1017.8 373.848 1019.3 374.975 1020.81 376.102C1023.06 377.605 1025.31 379.483 1027.57 380.986C1029.07 382.113 1030.57 383.24 1032.08 384.367C1034.33 385.87 1036.21 387.748 1038.46 389.251C1039.96 390.378 1041.47 391.88 1043.35 393.007C1045.22 394.51 1047.48 396.388 1049.36 397.891C1050.86 399.018 1052.36 400.521 1054.24 402.023C1056.12 403.526 1058 405.404 1060.25 406.907C1061.75 408.41 1063.26 409.537 1064.76 411.039C1066.64 412.918 1068.52 414.42 1070.39 416.299C1071.9 417.801 1073.4 418.928 1074.9 420.431C1076.03 421.558 1077.16 422.309 1078.28 423.436C1077.16 424.188 1075.65 424.939 1074.53 425.69L1074.15 426.066C1071.52 427.944 1068.52 429.447 1065.89 431.325C1065.51 431.325 1065.51 431.701 1065.13 431.701C1062.5 433.579 1059.87 435.458 1057.25 437.336C1056.87 437.336 1056.87 437.712 1056.49 437.712C1053.86 439.59 1050.86 441.468 1048.23 443.722C1048.23 443.722 1047.85 443.722 1047.85 444.098C1044.85 446.352 1042.22 448.23 1039.21 450.484C1036.58 452.738 1033.58 454.617 1030.95 456.871C1030.57 456.871 1030.57 457.246 1030.2 457.246C1027.94 459.125 1025.69 461.003 1023.44 462.881C1022.68 463.633 1021.93 464.008 1021.18 464.76C1020.43 465.135 1020.05 465.887 1019.3 466.262C1017.05 468.141 1014.79 470.019 1012.54 471.897C1011.41 473.024 1010.29 473.776 1009.16 474.903C1006.15 477.908 1002.77 480.538 999.768 483.543C999.017 484.294 997.89 485.421 997.139 486.173C996.387 486.924 995.26 487.675 994.509 488.802V358.446C997.89 360.7 1001.27 362.954 1004.65 364.832C1006.15 365.959 1007.28 366.711 1008.78 367.462ZM1094.81 424.563C1096.69 423.436 1098.19 422.685 1100.07 421.558C1100.82 421.182 1101.57 420.807 1102.33 420.055C1104.2 419.304 1105.71 418.177 1107.58 417.426C1108.34 417.05 1109.09 416.674 1109.84 416.299C1111.72 415.547 1113.22 414.42 1115.1 413.669C1115.85 413.293 1116.6 412.918 1117.73 412.542C1119.61 411.791 1121.11 411.039 1122.99 410.288C1123.74 409.912 1124.49 409.537 1125.62 409.161C1127.49 408.41 1129 407.658 1130.88 406.907C1131.63 406.531 1132.38 406.156 1133.13 406.156C1135.01 405.404 1136.89 404.653 1138.76 404.277C1139.14 404.277 1139.89 403.902 1140.27 403.902C1144.78 402.399 1149.66 400.896 1154.17 399.769C1162.81 397.515 1169.57 396.013 1176.71 394.886V527.12C1176.33 526.369 1175.58 525.618 1175.2 524.866C1173.33 521.861 1171.45 519.231 1169.57 516.226C1168.07 513.972 1166.94 512.094 1165.44 509.84C1163.18 506.834 1161.3 503.829 1159.05 500.824C1157.92 498.945 1156.42 497.067 1155.29 495.564C1151.91 490.681 1148.53 486.173 1144.78 481.665C1141.39 477.157 1137.64 472.649 1133.88 468.141C1133.51 467.765 1133.13 467.389 1132.75 467.014C1129 462.881 1125.62 458.373 1121.86 454.241C1121.48 453.49 1120.73 453.114 1120.36 452.363C1116.6 448.23 1112.84 444.098 1109.09 439.966C1108.34 439.214 1107.96 438.839 1107.21 438.087C1103.45 433.955 1099.32 429.823 1095.19 426.066C1094.81 425.69 1094.81 425.69 1094.44 425.315C1094.06 424.939 1094.44 424.939 1094.81 424.563ZM707.5 521.485C707.875 521.485 708.251 521.485 708.627 521.485C709.002 521.485 709.754 521.485 710.129 521.861C710.881 521.861 711.632 522.237 712.383 522.237C712.759 522.237 713.51 522.237 713.886 522.612C715.013 522.612 715.764 522.988 716.891 522.988C717.267 522.988 718.018 522.988 718.394 523.364C719.897 523.739 721.399 524.115 723.278 524.115H723.653C725.156 524.491 726.659 524.866 728.537 525.242C729.288 525.242 729.664 525.618 730.415 525.618C731.542 525.993 733.045 526.369 734.172 526.369C734.923 526.369 735.675 526.745 736.426 526.745C737.553 527.12 738.68 527.496 740.183 527.872C740.934 528.247 741.685 528.247 742.437 528.623C743.564 528.999 745.066 529.374 746.193 529.75C746.945 530.126 747.696 530.126 748.447 530.501C749.95 530.877 751.077 531.253 752.58 531.628C753.331 532.004 754.082 532.004 754.834 532.38C756.712 533.131 758.215 533.507 760.093 534.258C760.469 534.258 760.844 534.634 761.22 534.634C763.474 535.385 765.352 536.136 767.606 536.888C768.358 537.263 768.733 537.263 769.485 537.639C770.987 538.39 772.49 538.766 773.993 539.517C774.744 539.893 775.495 540.269 776.247 540.644C777.749 541.396 778.876 541.771 780.379 542.523C781.13 542.898 781.882 543.274 783.009 543.65C784.136 544.401 785.638 544.777 786.765 545.528C787.517 545.904 788.268 546.279 789.395 546.655C789.771 547.031 790.146 547.031 790.522 547.406C789.771 548.533 789.019 549.66 788.268 550.787C787.892 551.539 787.517 552.29 786.765 553.041C784.887 556.047 783.384 559.052 781.506 562.057C779.628 565.063 777.749 568.444 775.871 571.449L773.241 576.333C772.114 578.587 770.987 580.465 769.86 582.719L769.485 583.095C758.215 604.132 748.072 625.545 739.431 647.334C728.913 673.63 720.272 700.303 713.51 726.975C712.759 729.98 712.008 732.986 711.256 735.991C711.256 736.367 711.256 736.367 711.256 736.742L707.124 734.488V521.485H707.5ZM719.145 745.383C720.272 740.123 721.399 734.864 722.902 729.605C729.288 703.308 737.929 677.011 748.447 651.09C757.088 630.053 766.855 609.016 777.749 588.354C778.125 587.978 778.125 587.978 778.125 587.603C779.252 585.349 780.379 583.095 781.506 580.841L784.136 575.957C786.014 572.952 787.892 569.571 789.771 566.565C790.522 565.063 791.649 563.56 792.4 562.057V790.463L707.124 839.675C707.5 825.4 709.002 791.214 719.145 745.383ZM829.216 809.622V809.246C831.47 797.976 834.099 786.33 837.105 774.685C842.364 754.399 849.126 734.113 857.015 714.578C864.904 694.292 874.296 674.006 884.814 655.223C886.317 652.593 887.82 649.588 889.322 646.958V845.686L820.2 885.882C820.575 872.358 822.454 845.31 829.216 809.622ZM898.714 639.82C899.465 640.572 900.217 641.699 900.968 642.45C901.719 643.577 902.846 644.704 903.598 645.831C905.1 647.709 906.227 649.212 907.73 651.09C908.857 652.593 909.984 653.72 910.735 655.223C911.862 656.725 912.989 658.228 914.492 660.106C915.619 661.609 916.746 663.112 917.873 664.614C919 666.117 920.127 667.62 920.878 669.122C922.005 671.001 923.508 672.879 924.635 674.382C925.386 675.509 926.513 677.011 927.265 678.138C928.767 680.392 930.27 682.646 931.773 684.9C932.524 685.652 932.9 686.779 933.651 687.53C937.783 693.916 941.916 700.678 945.672 707.44C948.302 712.324 951.307 717.583 953.937 722.467C964.831 743.129 974.223 765.293 982.488 788.584C982.863 790.087 983.615 791.59 983.99 792.717V793.092V793.468V793.844C983.99 794.219 984.366 794.595 984.366 794.971C983.99 796.473 983.239 797.976 982.863 799.854C982.863 800.23 982.488 800.981 982.488 801.357C974.599 826.151 970.091 848.691 967.837 867.474C967.837 867.85 967.837 868.226 967.837 868.977C967.837 870.104 967.461 871.231 967.461 872.358C967.461 873.485 967.085 874.612 967.085 875.363C967.085 875.739 967.085 876.115 967.085 876.49C966.71 879.496 966.334 882.125 966.334 884.755L898.714 845.686V639.82ZM975.35 893.02C975.726 887.385 976.101 881.374 976.853 874.612C976.853 874.236 976.853 873.861 976.853 873.485C976.853 872.358 977.228 871.607 977.228 870.48C977.228 869.728 977.604 868.601 977.604 867.85C977.604 867.474 977.604 866.723 977.98 866.347C979.482 855.453 981.736 842.68 985.117 829.156C985.117 828.781 985.493 828.029 985.493 827.654V901.284L974.974 907.295C974.599 903.914 974.974 899.03 975.35 893.02ZM994.885 828.029C994.885 828.405 995.26 828.781 995.26 829.156C998.641 843.056 1000.9 855.453 1002.4 866.723C1002.4 867.099 1002.4 867.099 1002.4 867.474C1002.4 868.601 1002.77 869.728 1002.77 870.855C1002.77 871.607 1002.77 872.358 1003.15 872.734C1003.15 873.485 1003.15 874.236 1003.52 874.988C1003.52 876.115 1003.9 877.242 1003.9 878.369C1003.9 878.744 1003.9 879.12 1003.9 879.12C1004.28 884.004 1004.65 888.512 1005.03 892.268C1005.4 897.903 1005.4 902.787 1005.4 906.544L994.885 900.533V828.029ZM1013.67 884.755C1013.67 883.628 1013.29 882.125 1013.29 880.998C1013.29 880.623 1013.29 880.247 1013.29 880.247C1013.29 879.12 1012.92 878.369 1012.92 877.242C1012.92 876.49 1012.92 875.363 1012.54 874.612C1012.54 873.861 1012.54 873.485 1012.17 872.734C1012.17 871.231 1011.79 869.728 1011.41 868.226V867.85C1008.78 847.94 1003.9 822.77 994.509 795.346C994.509 794.971 994.885 794.595 994.885 794.219C994.885 794.219 994.885 793.844 995.26 793.468C995.26 793.092 995.636 793.092 995.636 792.717C996.387 790.838 997.139 788.96 997.514 787.082C1006.53 761.536 1017.05 738.245 1029.07 716.081C1030.57 713.075 1032.08 710.446 1033.95 707.44C1035.83 704.059 1037.71 700.678 1039.96 697.297C1040.34 696.546 1040.72 695.795 1041.09 695.419C1042.59 692.789 1044.1 690.535 1045.6 687.906C1046.35 686.403 1047.48 685.276 1048.23 683.773C1049.36 681.895 1050.48 680.392 1051.61 678.514C1052.74 677.011 1053.49 675.509 1054.62 674.006C1055.74 672.503 1056.87 670.625 1058 669.122C1059.12 667.62 1059.87 666.493 1061 664.99C1062.13 663.112 1063.63 661.609 1064.76 659.731C1065.51 658.604 1066.64 657.101 1067.39 655.974C1068.89 654.096 1070.39 652.217 1071.9 650.339C1072.65 649.212 1073.4 648.461 1074.15 647.334C1075.65 645.08 1077.53 643.201 1079.03 641.323C1079.03 640.947 1079.41 640.947 1079.41 640.572V846.437L1013.67 884.755ZM1090.3 645.455C1091.81 648.461 1093.68 651.466 1095.19 654.471L1095.56 654.847C1105.71 674.006 1115.1 693.916 1123.36 714.202C1130.88 733.361 1137.26 752.896 1143.27 774.309C1146.28 784.828 1148.91 796.098 1151.16 808.495C1151.16 808.87 1151.16 808.87 1151.16 809.246C1158.3 844.934 1159.8 872.358 1160.18 885.506L1089.93 844.934L1090.3 645.455ZM1160.55 810.749L1181.59 798.352L1271.38 850.194C1230.8 872.358 1189.48 886.258 1169.57 892.644C1169.57 886.258 1169.19 855.453 1160.55 810.749ZM1186.1 790.087V560.179C1187.6 562.433 1188.73 564.687 1190.23 566.941C1192.11 569.946 1193.99 573.327 1195.49 576.333L1198.12 581.216C1199.25 583.47 1200.75 585.724 1201.88 587.978C1213.15 608.64 1222.91 629.677 1231.55 651.09C1242.07 677.011 1250.71 703.684 1257.1 729.605C1258.6 734.864 1259.73 740.123 1260.86 745.383C1271 790.838 1272.5 825.4 1272.5 840.051L1186.1 790.087ZM1268.75 737.118C1268.75 736.742 1268.75 736.742 1268.37 736.367C1267.62 733.361 1266.87 730.356 1266.12 727.351C1259.73 701.054 1251.09 674.006 1240.2 647.709C1231.55 625.921 1221.41 604.508 1210.14 583.47C1209.01 581.216 1207.51 578.962 1206.38 576.333L1203.76 571.449C1201.88 568.444 1200 565.063 1198.12 562.057C1196.24 559.052 1194.74 556.047 1192.86 553.417C1192.49 552.666 1191.73 551.539 1191.36 550.787C1190.61 549.66 1189.86 548.533 1189.48 547.406C1189.86 547.031 1190.23 547.031 1190.61 546.655C1191.36 546.279 1192.49 545.528 1193.24 545.152C1194.36 544.401 1195.87 544.025 1196.99 543.274C1197.74 542.898 1198.87 542.523 1199.62 542.147C1200.75 541.396 1202.25 541.02 1203.38 540.269C1204.13 539.893 1205.26 539.517 1206.01 539.142C1207.51 538.766 1208.64 538.015 1210.14 537.639C1210.89 537.263 1212.02 536.888 1212.77 536.512C1214.27 536.136 1215.78 535.385 1216.9 535.009C1217.65 534.634 1218.41 534.634 1219.16 534.258C1221.04 533.507 1222.54 533.131 1224.42 532.38C1224.79 532.38 1225.17 532.004 1225.54 532.004C1227.8 531.253 1229.68 530.501 1231.93 530.126C1232.31 530.126 1232.68 529.75 1233.06 529.75C1234.94 529.374 1236.44 528.623 1238.32 528.247C1239.07 528.247 1239.82 527.872 1240.2 527.872C1241.7 527.496 1242.82 527.12 1244.33 526.745C1245.08 526.745 1245.83 526.369 1246.58 526.369C1247.71 525.993 1248.84 525.618 1250.34 525.618C1251.09 525.618 1251.84 525.242 1252.59 525.242C1253.72 524.866 1254.85 524.866 1255.97 524.491C1256.72 524.491 1257.48 524.115 1257.85 524.115C1258.98 523.739 1260.11 523.739 1260.86 523.364C1261.61 523.364 1261.98 522.988 1262.73 522.988C1263.86 522.988 1264.61 522.612 1265.74 522.612C1266.12 522.612 1266.87 522.612 1267.24 522.237C1268.37 522.237 1269.12 521.861 1269.87 521.861C1270.25 521.861 1270.62 521.861 1271 521.861C1271.75 521.861 1272.13 521.861 1272.88 521.485V734.864L1268.75 737.118ZM1219.53 356.568C1233.81 367.462 1245.83 378.356 1258.6 391.505C1257.85 391.129 1257.1 391.129 1256.35 390.753C1255.6 390.378 1254.47 390.002 1253.72 389.626C1248.84 388.124 1243.58 386.621 1238.32 385.494C1237.94 385.494 1237.94 385.494 1237.57 385.494C1236.44 385.118 1235.31 385.118 1234.18 384.743C1233.43 384.743 1232.68 384.367 1231.93 384.367C1231.18 384.367 1230.43 383.991 1229.3 383.991C1228.17 383.991 1227.05 383.616 1225.92 383.616C1225.17 383.616 1224.79 383.616 1224.04 383.616C1222.54 383.616 1221.04 383.24 1219.53 383.24C1219.16 383.24 1218.78 383.24 1218.41 383.24C1216.9 383.24 1215.4 383.24 1213.52 382.864C1213.15 382.864 1212.77 382.864 1212.4 382.864C1211.64 382.864 1210.89 382.864 1210.14 382.864C1209.01 382.864 1208.26 382.864 1207.14 382.864C1206.38 382.864 1205.26 382.864 1204.13 382.864C1199.25 382.864 1192.86 383.24 1186.1 383.991V333.652C1197.74 340.79 1209.01 348.679 1219.53 356.568C1219.16 356.568 1219.53 356.568 1219.53 356.568ZM1122.61 307.355C1121.48 307.355 1119.98 307.355 1118.85 307.355C1115.47 307.355 1112.47 307.355 1109.09 307.355C1107.21 307.355 1104.95 307.355 1103.08 307.731C1102.33 307.731 1101.57 307.731 1100.82 307.731C1099.7 307.731 1098.19 307.731 1097.07 308.107C1096.31 308.107 1095.56 308.107 1094.44 308.482C1093.31 308.482 1092.18 308.858 1091.06 308.858C1090.68 308.858 1090.3 308.858 1089.93 308.858V296.461C1102.7 299.842 1115.1 303.599 1127.49 307.731C1126.37 307.355 1124.49 307.355 1122.61 307.355ZM1080.91 293.831V305.853C1080.16 305.477 1079.41 305.101 1078.66 304.726C1073.77 301.72 1068.89 299.091 1063.63 296.837C1059.87 294.958 1055.74 293.456 1051.99 291.953C1050.86 291.577 1049.73 291.202 1048.6 290.45C1045.6 289.323 1042.97 288.196 1039.96 287.069C1039.21 286.694 1038.46 286.694 1038.09 286.318C1052.36 288.196 1066.64 290.45 1080.91 293.831ZM937.408 288.196C935.154 288.948 932.524 290.075 930.27 290.826C929.143 291.202 928.016 291.577 926.889 291.953C923.508 293.456 920.127 294.958 916.37 296.461C910.36 299.091 904.725 302.096 898.714 305.477V294.958C911.487 291.953 925.011 289.699 938.535 287.821C938.159 287.821 937.783 287.821 937.408 288.196ZM889.322 296.837V308.482C888.947 308.482 888.195 308.482 887.82 308.482C886.693 308.482 885.566 308.107 884.439 308.107C883.687 308.107 882.936 308.107 882.185 307.731C881.058 307.731 879.555 307.355 878.428 307.355C877.677 307.355 876.925 307.355 876.55 307.355C874.671 307.355 872.793 306.98 870.915 306.98C868.285 306.98 865.655 306.98 863.401 306.98C863.026 306.98 862.65 306.98 862.274 306.98C859.645 306.98 857.015 306.98 854.385 307.355C853.634 307.355 852.883 307.355 852.131 307.355C863.401 303.599 876.174 300.218 889.322 296.837ZM760.469 356.943C770.612 349.054 781.506 341.541 792.776 334.403V383.616C790.898 383.616 789.395 383.24 787.517 383.24C787.141 383.24 786.765 383.24 786.014 383.24C783.76 383.24 781.13 383.24 778.876 383.24C776.622 383.24 774.744 383.24 772.866 383.24C756.712 382.864 741.31 385.118 726.283 390.002C724.405 390.753 722.151 391.505 720.272 392.256C733.045 379.483 746.569 367.838 760.469 356.943ZM636.874 509.84C653.779 475.654 674.065 444.098 698.108 416.299V511.718C697.732 511.718 697.357 511.718 696.981 511.718C695.854 511.718 694.727 511.718 693.6 512.094C693.224 512.094 692.849 512.094 692.473 512.094C691.346 512.094 689.843 512.469 688.716 512.469C688.341 512.469 687.965 512.469 687.965 512.469C686.462 512.845 684.96 512.845 683.457 513.221C683.081 513.221 683.081 513.221 682.706 513.221C681.203 513.596 679.325 513.972 677.822 514.348C677.822 514.348 677.822 514.348 677.446 514.348C663.547 518.104 648.896 524.866 636.123 533.882C636.123 533.882 636.123 533.882 635.747 533.882C634.244 535.009 632.742 535.761 631.615 536.888L631.239 537.263C630.112 538.015 628.985 539.142 627.482 540.269C627.107 540.644 626.731 540.644 626.355 541.02C625.604 541.771 624.853 542.523 623.726 543.274C622.974 543.65 622.599 544.401 621.847 544.777C621.472 545.152 620.72 545.904 620.345 546.279C625.604 534.258 630.863 521.861 636.874 509.84ZM589.164 695.043H588.413C588.413 693.165 588.789 684.149 590.291 670.249C592.545 648.461 598.18 613.899 610.953 574.454C610.953 574.454 610.953 574.079 611.329 573.703C613.207 569.946 615.837 566.19 618.842 562.809C621.847 559.052 625.228 555.671 628.985 552.29C630.112 551.163 631.615 550.036 632.742 548.909C633.118 548.533 633.493 548.158 634.244 547.782C634.996 547.031 636.123 546.279 636.874 545.904C637.625 545.528 638.001 545.152 638.752 544.401C639.504 544.025 640.255 543.274 641.007 542.898C641.758 542.523 642.509 542.147 642.885 541.396C643.636 541.02 644.388 540.269 645.139 539.893C645.89 539.517 646.642 539.142 647.393 538.39C648.144 538.015 648.896 537.263 649.647 536.888C650.398 536.512 651.149 536.136 651.901 535.761C652.652 535.385 653.404 535.009 654.531 534.258C655.282 533.882 655.658 533.507 656.409 533.131C657.536 532.755 658.287 532.004 659.414 531.628C659.79 531.253 660.541 531.253 660.917 530.877C663.922 529.374 667.303 528.247 670.309 526.745C670.684 526.745 670.684 526.745 671.06 526.369C672.563 525.993 673.69 525.242 675.192 524.866C675.568 524.866 675.944 524.491 676.319 524.491C677.446 524.115 678.949 523.739 680.076 523.364C680.452 523.364 680.827 522.988 681.203 522.988C682.33 522.612 683.457 522.237 684.584 522.237C684.96 522.237 685.335 522.237 685.711 521.861C686.838 521.485 687.965 521.485 689.092 521.11C689.468 521.11 689.843 521.11 690.219 520.734C691.346 520.734 692.473 520.358 693.6 520.358C693.976 520.358 694.351 520.358 694.727 520.358C695.103 520.358 695.103 520.358 695.478 520.358C695.478 520.734 695.103 521.11 695.103 521.11C692.097 526.369 689.092 532.004 686.462 537.639C686.087 538.39 685.711 539.517 684.96 540.269C681.954 545.904 679.325 551.539 676.695 557.174C676.319 557.925 675.944 559.052 675.192 559.803C672.563 565.438 669.557 571.449 666.928 577.46C666.552 578.211 666.176 578.962 665.801 579.714C662.795 586.1 660.166 592.111 657.536 598.497C647.017 623.667 640.631 642.074 639.88 645.831C638.377 651.09 636.874 656.35 635.747 661.233C634.996 663.863 634.244 666.493 633.869 669.122C631.99 677.387 630.112 685.652 628.234 694.292C621.472 729.605 619.969 757.028 619.593 771.304C607.572 755.15 597.429 736.742 593.672 717.583C590.667 711.197 589.54 703.308 589.164 695.043ZM628.609 785.955L702.616 743.129L709.378 746.885C698.859 796.849 698.108 832.537 698.108 844.183C684.96 835.918 674.441 828.781 667.303 823.146C666.928 823.146 647.769 808.119 628.609 785.955ZM819.824 896.401L893.455 853.575L965.583 895.274C964.831 907.671 965.207 915.184 965.207 915.56C935.905 914.057 904.349 910.676 868.661 905.792C851.756 903.914 835.602 900.533 819.824 896.401ZM977.98 916.311L990.001 909.549L1002.77 917.062C994.509 916.687 986.62 916.687 977.98 916.311ZM1014.42 916.687C1014.42 916.311 1014.42 915.935 1014.42 915.935C1014.42 915.56 1014.79 908.046 1014.04 895.649L1086.17 853.95L1158.68 896.025C1157.55 896.401 1156.8 896.401 1156.42 896.776C1103.08 909.549 1059.12 915.56 1014.42 916.687ZM1342.38 798.352C1325.47 816.008 1304.43 831.41 1282.27 844.183C1282.27 832.162 1281.52 796.849 1271 747.261L1277.76 743.504L1352.9 786.706C1349.51 790.463 1345.76 794.219 1342.38 798.352ZM1361.91 773.933C1361.54 760.034 1360.03 732.234 1353.27 695.795C1351.39 685.276 1348.76 674.006 1345.76 662.736C1344.63 657.477 1343.13 652.217 1341.62 646.958C1340.5 642.45 1334.11 624.418 1323.97 599.624C1323.97 599.248 1323.59 599.248 1323.59 598.873C1320.59 591.735 1317.58 584.973 1314.58 578.211C1313.45 575.957 1312.32 573.327 1311.2 571.073C1309.32 566.565 1307.06 562.057 1304.81 557.925C1303.31 555.295 1302.18 552.29 1300.68 549.66C1298.8 545.528 1296.54 541.771 1294.67 537.639C1293.16 535.009 1291.66 532.38 1290.16 529.374C1288.66 526.745 1287.15 524.115 1285.65 521.11C1286.03 521.11 1286.4 521.11 1286.4 521.11C1299.93 522.612 1315.33 528.247 1329.6 536.136C1331.11 536.888 1332.61 538.015 1334.11 538.766C1334.49 538.766 1334.49 539.142 1334.86 539.142C1335.99 539.893 1337.12 540.644 1338.62 541.396C1339 541.771 1339.37 541.771 1339.75 542.147C1340.87 542.898 1342 543.65 1342.75 544.401C1343.13 544.777 1343.5 544.777 1343.88 545.152C1345.01 545.904 1345.76 546.655 1346.88 547.406C1347.26 547.782 1347.64 548.158 1348.01 548.158C1349.14 549.285 1350.64 550.412 1351.77 551.539C1359.28 558.301 1364.92 565.438 1369.05 572.952C1369.05 573.327 1369.42 573.327 1369.42 573.703C1381.82 612.772 1387.46 647.709 1390.09 669.874C1391.59 683.398 1391.96 692.414 1391.96 694.292H1391.21C1387.83 723.594 1378.06 749.891 1361.91 773.933Z" fill="black"/>
</svg>
