<svg width="1980" height="1200" viewBox="0 0 1980 1200" fill="none" xmlns="http://www.w3.org/2000/svg">
<path d="M1335.63 597.296C1315.99 596.158 1291.5 595.019 1264.46 593.596L1264.17 375.295C1264.17 347.687 1241.68 325.487 1214.06 325.487H1103.88H995.979C994.556 298.448 993.417 273.971 992.278 254.332C991.994 251.202 987.438 251.202 987.154 254.332C986.015 273.971 984.876 298.448 983.452 325.487H765.083C751.702 325.487 739.175 330.61 729.78 340.287C720.385 349.679 715.26 362.202 715.26 375.579L715.545 486.011V593.881C688.498 595.304 664.013 596.443 644.368 597.581C641.237 597.866 641.237 602.419 644.368 602.704C664.013 603.843 688.498 604.981 715.545 606.404L715.26 824.706C715.26 838.083 720.385 850.606 729.78 859.998C739.175 869.391 751.702 874.514 765.083 874.514H875.834H983.452C984.876 901.268 986.015 926.029 987.154 945.668C987.438 948.799 991.994 948.799 992.278 945.668C993.417 926.029 994.556 901.552 995.979 874.514H1214.35C1241.96 874.514 1264.17 852.029 1264.46 824.706L1264.74 713.705V606.12C1291.5 604.696 1315.99 603.558 1335.63 602.419C1338.76 602.135 1338.76 597.296 1335.63 597.296ZM1214.35 332.318C1237.98 332.318 1257.34 351.387 1257.34 375.01L1257.62 593.027C1242.82 592.173 1227.16 591.604 1211.5 590.75L1233.42 483.449C1241.4 444.457 1231.43 404.61 1206.38 373.872C1190.72 354.518 1169.93 340.287 1147.16 332.602L1214.35 332.318ZM1104.17 332.318C1141.75 332.318 1177.05 349.11 1200.68 378.141C1224.31 407.172 1233.71 445.026 1226.31 481.742L1204.1 590.181C1198.4 589.896 1192.43 589.612 1186.45 589.327C1154.56 587.619 1124.38 578.512 1098.47 563.427L1105.31 528.988L1127.51 533.542C1136.34 535.25 1145.45 530.696 1148.58 522.727C1150.57 517.604 1150.29 512.196 1147.73 507.357C1147.44 506.788 1147.16 506.219 1146.87 505.934C1152.28 504.511 1157.12 500.526 1159.12 495.403C1161.11 490.28 1160.82 484.873 1158.26 480.034C1156.84 477.472 1154.84 475.48 1152.57 473.772C1155.41 471.78 1157.69 469.219 1159.12 465.803C1161.11 460.68 1160.82 455.272 1158.26 450.434C1156.84 447.872 1154.84 445.88 1152.57 444.172C1155.41 442.18 1157.69 439.618 1159.12 436.203C1161.11 431.08 1160.82 425.672 1158.26 420.834C1155.7 416.28 1151.14 412.864 1146.02 411.726L1075.41 397.495L999.396 381.841C998.542 364.764 997.688 347.972 996.834 331.748L1104.17 332.318ZM1160.82 674.997C1158.83 674.712 1157.12 675.851 1156.55 677.843L1142.32 747.859V748.144L1141.18 754.405C1140.61 757.536 1138.62 760.382 1135.77 761.805C1132.92 763.513 1129.51 763.513 1126.37 762.374C1121.53 760.382 1118.69 754.974 1119.83 749.282L1135.2 673.574C1135.49 671.582 1134.35 669.874 1132.35 669.305C1130.36 669.02 1128.65 670.158 1128.08 672.151L1111.57 754.121C1111 757.251 1109.01 760.098 1106.16 761.521C1103.31 763.228 1099.9 763.228 1096.77 762.09C1091.93 760.098 1089.08 754.69 1090.22 748.997L1106.73 667.597C1107.01 665.605 1105.88 663.897 1103.88 663.328C1101.89 663.043 1100.18 664.181 1099.61 666.174L1083.95 743.59C1083.38 746.721 1081.39 749.567 1078.54 750.99C1075.7 752.697 1072.28 752.697 1069.15 751.559C1064.31 749.567 1061.46 744.159 1062.6 738.467L1067.73 712.566L1072 690.936L1077.97 661.905C1078.26 659.912 1077.12 658.205 1075.13 657.635C1073.13 657.351 1071.43 658.489 1070.86 660.481L1064.88 689.512C1064.31 692.643 1062.32 695.205 1059.47 696.912C1056.62 698.62 1053.21 698.62 1050.07 697.482C1045.23 695.489 1042.39 690.082 1043.53 684.389L1044.38 680.405C1078.54 639.42 1128.94 612.666 1185.59 609.82C1190.15 609.535 1194.7 609.25 1199.26 609.25L1184.17 683.535L1169.93 754.121C1169.36 757.251 1167.37 760.098 1164.53 761.521C1161.68 763.228 1158.26 763.228 1155.13 762.09C1150.29 760.098 1147.73 754.69 1148.58 749.282L1162.53 679.835L1162.82 678.982C1164.24 677.274 1162.82 675.282 1160.82 674.997ZM819.177 524.719C821.17 525.004 822.879 523.865 823.448 521.873L838.822 445.595C839.391 442.465 841.384 439.618 844.231 438.195C847.079 436.488 850.495 436.488 853.627 437.626C858.467 439.618 861.314 445.026 860.175 450.718L844.801 526.427C844.516 528.419 845.655 530.127 847.648 530.696C849.641 530.981 851.349 529.842 851.919 527.85L868.431 445.88C869.001 442.749 870.994 439.903 873.841 438.48C876.688 436.772 880.104 436.772 883.236 437.911C888.076 439.903 890.923 445.311 889.784 451.003L873.271 532.404C872.987 534.396 874.126 536.104 876.118 536.673C878.111 536.957 879.82 535.819 880.389 533.827L896.048 456.411C896.617 453.28 898.61 450.434 901.457 449.011C904.304 447.303 907.721 447.303 910.853 448.442C915.693 450.434 918.54 455.842 917.401 461.534L907.721 509.065L901.742 538.096C901.457 540.088 902.596 541.796 904.589 542.365C906.582 542.65 908.29 541.511 908.86 539.519L914.838 510.488C915.408 507.357 917.401 504.796 920.248 503.088C923.095 501.38 926.511 501.38 929.643 502.519C934.483 504.511 937.33 509.919 936.191 515.611L935.622 519.027C901.457 560.012 851.064 587.05 794.123 589.896C789.568 590.181 785.013 590.466 780.742 590.466L795.832 516.465L810.067 445.88C810.636 442.749 812.629 439.903 815.476 438.48C818.323 436.772 821.74 436.772 824.872 437.911C829.712 439.903 832.559 445.311 831.42 451.003L817.184 521.019C816.046 522.442 817.184 524.15 819.177 524.719ZM734.905 344.841C742.876 336.587 753.695 332.318 765.368 332.318H983.452C982.598 347.118 982.029 362.772 981.175 378.426L873.841 356.51C834.836 348.541 794.977 358.502 764.229 383.549C744.869 399.487 730.634 419.98 722.947 443.034L722.662 375.01C722.378 363.91 726.648 353.095 734.905 344.841ZM722.662 485.726C722.662 448.157 739.46 412.864 768.5 389.241C797.54 365.618 835.406 356.225 872.133 363.626L980.605 385.826L999.681 389.81L1073.99 404.895L1144.6 419.126C1147.73 419.695 1150.57 421.687 1152 424.534C1153.71 427.38 1153.71 430.795 1152.57 433.926C1150.57 438.765 1145.17 441.611 1139.47 440.472L1069.43 426.241C1067.44 425.957 1065.73 427.095 1065.16 429.088C1064.59 431.08 1066.02 432.788 1068.01 433.357L1144.31 448.726C1147.44 449.295 1150.29 451.288 1151.71 454.134C1153.42 456.98 1153.42 460.395 1152.28 463.526C1150.29 468.365 1144.88 470.926 1139.19 470.072L1063.45 454.703C1061.46 454.418 1059.75 455.557 1059.18 457.549C1058.9 459.542 1060.04 461.249 1062.03 461.819L1137.76 477.188L1144.03 478.611C1147.16 479.18 1150.01 481.173 1151.43 484.019C1153.14 486.865 1153.14 490.28 1152 493.411C1150.01 498.25 1144.6 501.096 1138.9 499.957L1135.2 499.103L1057.76 483.449C1055.77 483.165 1054.06 484.303 1053.49 486.296C1052.92 488.288 1054.34 489.996 1056.34 490.565L1133.78 506.219C1136.91 506.788 1139.47 508.78 1141.18 511.627C1142.89 514.473 1142.89 517.888 1141.75 521.019C1139.76 525.857 1134.35 528.704 1128.65 527.565L1103.03 522.442L1051.78 512.196C1049.79 511.911 1048.08 513.05 1047.51 515.042C1047.23 517.034 1048.37 518.742 1050.36 519.311L1079.4 525.288C1082.53 525.857 1085.38 527.85 1086.8 530.696C1088.51 533.542 1088.51 536.958 1087.37 540.088C1085.38 544.927 1079.97 547.773 1074.27 546.634L1070.57 545.781L1020.46 535.819C1013.06 534.396 1006.8 529.557 1003.1 523.011C995.41 508.78 980.89 498.534 963.523 494.834L953.274 492.842L919.109 486.011L923.664 463.811C925.373 454.988 920.817 445.88 912.845 442.749C907.721 440.757 902.311 441.041 897.471 443.603C896.902 443.888 896.333 444.172 896.048 444.457C894.624 439.049 890.638 434.211 885.514 432.218C880.389 430.226 874.98 430.511 870.14 433.072C867.577 434.495 865.584 436.488 863.876 438.765C861.883 435.918 859.321 433.641 855.904 432.218C850.78 430.226 845.37 430.511 840.53 433.072C837.968 434.495 835.975 436.488 834.267 438.765C832.274 435.918 829.712 433.641 826.295 432.218C821.17 430.226 815.761 430.511 810.921 433.072C806.366 435.634 802.949 440.188 801.81 445.311L787.575 515.896L772.486 590.466C755.403 591.319 738.606 592.173 722.378 593.027L722.662 485.726ZM765.083 867.114C753.695 867.114 742.876 862.56 734.62 854.59C726.648 846.621 722.093 835.806 722.093 824.136L722.378 606.404C737.182 607.258 752.841 607.827 768.785 608.681L746.862 716.266C738.891 755.259 748.855 795.105 773.909 825.844C789.568 845.198 810.352 859.429 833.128 867.114H765.083ZM875.834 867.114C838.253 867.114 802.949 850.321 779.319 821.29C755.688 792.259 746.293 754.405 753.695 717.69L775.902 609.25C781.596 609.535 787.575 609.82 793.269 610.104C825.441 611.812 855.335 620.92 881.528 636.004L874.695 670.158L852.773 665.605C843.947 663.897 834.836 668.451 831.704 676.42C829.712 681.543 829.996 686.951 832.559 691.789C832.843 692.359 833.128 692.928 833.413 693.212C828.003 694.636 823.163 698.62 821.17 703.743C819.177 708.866 819.462 714.274 822.024 719.113C823.448 721.674 825.441 723.666 827.719 725.374C824.872 727.366 822.594 729.928 821.17 733.343C819.177 738.467 819.462 743.874 822.024 748.713C823.448 751.274 825.441 753.267 827.719 754.974C824.872 756.967 822.594 759.528 821.17 762.944C819.177 768.067 819.462 773.475 822.024 778.313C824.587 782.867 829.142 786.282 834.267 787.421L904.874 801.652L980.605 817.021C981.459 834.098 982.314 851.175 983.168 867.114H875.834ZM1257.34 824.421C1257.34 848.044 1237.98 867.114 1214.35 867.114H996.549C997.403 852.029 998.257 836.375 998.827 820.721L1106.45 842.637C1115.27 844.344 1124.1 845.198 1132.92 845.198C1163.1 845.198 1192.43 834.952 1216.06 815.598C1235.13 799.944 1249.37 779.451 1257.34 756.682V824.421ZM1257.62 713.705C1257.62 751.274 1240.83 786.567 1211.79 810.19C1182.75 834.098 1144.88 843.206 1108.15 835.806L999.396 813.606L980.321 809.621L906.582 794.536L835.975 780.305C832.843 779.736 829.996 777.744 828.573 774.898C826.864 772.051 826.864 768.636 828.003 765.505C829.996 760.667 835.406 757.821 841.1 758.959L911.137 773.19C913.13 773.475 914.838 772.336 915.408 770.344C915.693 768.351 914.554 766.644 912.561 766.074L842.523 751.844L836.26 750.421C833.128 749.851 830.281 747.859 828.857 745.013C827.149 742.167 827.149 738.751 828.288 735.62C830.281 730.782 835.69 727.936 841.384 729.074L917.116 744.444C919.109 744.728 920.817 743.59 921.387 741.597C921.671 739.605 920.533 737.897 918.54 737.328L835.975 721.39C832.843 720.82 829.996 718.828 828.573 715.982C826.864 713.136 826.864 709.72 828.003 706.589C829.996 701.751 835.406 698.905 841.1 700.043L844.801 700.897L922.241 716.551C924.234 716.836 925.942 715.697 926.511 713.705C926.796 711.713 925.657 710.005 923.664 709.436L846.224 693.782C843.093 693.212 840.53 691.22 838.822 688.374C837.114 685.528 837.114 682.112 838.253 678.982C840.246 674.143 845.655 671.297 851.349 672.435L927.935 687.805C929.928 688.089 931.636 686.951 932.205 684.959C932.775 682.966 931.351 681.258 929.358 680.689L900.318 674.712C897.187 674.143 894.34 672.151 892.916 669.305C891.208 666.458 891.208 663.043 892.347 659.912C894.34 655.074 899.749 652.228 905.443 653.366L908.29 653.935L958.968 664.181C966.37 665.605 972.634 670.443 976.335 676.989C984.022 691.22 998.542 701.466 1015.91 705.166L1025.87 707.159L1060.32 713.989L1055.77 736.474C1054.06 745.297 1058.61 754.405 1066.59 757.536C1071.71 759.528 1077.12 759.244 1081.96 756.682C1082.53 756.397 1083.1 756.113 1083.38 755.828C1084.81 761.236 1088.79 766.074 1093.92 768.067C1099.04 770.059 1104.45 769.775 1109.29 767.213C1111.85 765.79 1113.85 763.798 1115.56 761.521C1117.55 764.367 1120.11 766.644 1123.53 768.067C1128.65 770.059 1134.06 769.775 1138.9 767.213C1141.46 765.79 1143.46 763.798 1145.17 761.521C1147.16 764.367 1149.72 766.644 1153.14 768.067C1155.41 768.921 1157.69 769.205 1159.97 769.205C1162.82 769.205 1165.95 768.351 1168.51 766.928C1173.07 764.367 1176.48 759.813 1177.62 754.69L1191.86 684.105L1207.23 608.112C1224.31 607.258 1241.11 606.404 1257.05 605.55L1257.62 713.705Z" fill="black"/>
</svg>
