<svg width="1980" height="1200" viewBox="0 0 1980 1200" fill="none" xmlns="http://www.w3.org/2000/svg">
<g clip-path="url(#clip0)">
<path d="M1237.43 565.931C1249.29 586.669 1249.29 612.591 1237.43 634.07L1201.13 697.025C1196.69 704.432 1187.8 706.654 1181.13 702.21L1012.96 608.147C1001.11 601.482 994.444 589.631 994.444 576.3L997.407 382.99C997.407 374.843 1004.07 368.177 1012.22 368.177H1084.08C1108.53 368.177 1130.75 381.509 1143.35 402.247H1158.17L1130.75 354.846H849.243L821.832 402.247H837.39C849.243 381.509 871.467 368.177 895.174 368.177H968.515C976.664 368.177 983.331 374.843 983.331 382.99L985.554 577.04C985.554 590.372 978.887 602.222 967.033 608.888L798.867 702.21C791.459 706.654 782.569 703.691 778.865 697.025L742.565 634.07C730.712 613.332 730.712 587.409 742.565 565.931L735.156 552.599L707.746 600L849.243 844.414H904.064L896.655 831.083C872.208 831.083 849.984 818.492 837.39 797.013L801.83 734.798C797.385 727.392 800.349 718.504 807.016 714.801L972.219 616.295C983.331 609.629 997.407 609.629 1009.26 616.295L1174.46 714.801C1181.87 719.245 1184.09 728.133 1179.65 734.798L1143.35 797.013C1131.5 817.751 1108.53 831.083 1084.08 831.083L1076.67 844.414H1131.5L1272.99 600L1245.58 552.599L1237.43 565.931Z" fill="black"/>
<path d="M1161.87 303H818.87L647 600L818.87 897H1161.87L1333.74 600L1161.87 303ZM1186.32 826.638C1166.32 861.449 1128.53 883.668 1087.79 883.668H891.471C850.726 883.668 813.685 862.19 792.942 826.638L694.413 656.289C674.41 621.479 674.41 577.781 694.413 542.97L792.942 372.621C812.944 337.81 850.726 315.591 891.471 315.591H1087.79C1128.53 315.591 1165.57 337.07 1186.32 372.621L1284.85 542.97C1304.85 577.781 1304.85 621.479 1284.85 656.289L1186.32 826.638Z" fill="black"/>
</g>
<defs>
<clipPath id="clip0">
<rect width="686" height="594" fill="white" transform="translate(647 303)"/>
</clipPath>
</defs>
</svg>
