<svg width="1980" height="1200" viewBox="0 0 1980 1200" fill="none" xmlns="http://www.w3.org/2000/svg">
<path d="M933.541 307.95H809.696C790.331 307.95 773.218 321.01 767.814 339.925L740.793 439.901C740.343 442.153 739.892 444.405 739.442 446.656C738.991 452.961 747.098 456.114 751.151 451.16C799.338 392.165 864.638 345.779 935.342 320.56C942.548 318.308 940.746 307.95 933.541 307.95Z" fill="black"/>
<path d="M1304.17 307.95H1166.37C1159.16 307.95 1157.36 317.858 1163.67 320.56C1200.15 335.872 1231.67 358.839 1256.44 389.463C1278.05 416.033 1292.92 447.107 1301.02 480.432C1302.82 487.187 1311.83 487.187 1313.63 480.432L1345.16 361.992C1353.26 334.971 1332.55 307.95 1304.17 307.95Z" fill="black"/>
<path d="M719.627 823.597C698.011 797.027 683.149 766.404 675.043 733.078C673.242 726.323 664.235 726.323 662.433 733.078L634.512 837.558C627.306 865.029 648.022 892.05 676.394 892.05H783.126C789.881 892.05 792.133 883.043 786.278 879.89C760.158 865.479 738.091 846.565 719.627 823.597Z" fill="black"/>
<path d="M1072.7 879.438C1066.39 882.14 1068.2 892.047 1074.95 892.047H1169.97C1189.34 892.047 1206.45 878.987 1211.86 860.073L1237.07 766.852C1238.88 760.096 1230.32 755.593 1225.82 760.997C1184.83 810.985 1131.69 852.417 1072.7 879.438Z" fill="black"/>
<path d="M1276.7 474.577C1269.05 448.457 1256.44 424.589 1239.32 403.423C1196.99 350.282 1130.79 321.46 1053.33 321.46C944.799 321.91 836.716 380.005 766.913 466.471C760.608 474.127 766.012 485.836 775.919 485.836H947.951C972.27 485.836 993.887 469.173 1000.19 445.755L1029.46 337.222C1030.81 332.719 1034.87 329.566 1039.37 329.566H1074.05C1080.8 329.566 1085.76 335.871 1083.96 342.626L1052.88 461.967C1046.13 487.637 1022.71 505.651 996.138 505.651H751.601C743.945 505.651 737.19 509.704 733.137 516.459C716.474 545.732 703.864 577.256 696.659 610.131C679.996 685.789 694.407 756.943 737.19 810.084C779.973 863.224 845.723 892.047 923.182 892.047C947.501 892.047 971.369 888.894 995.238 883.49C1004.69 881.238 1012.35 874.483 1015.05 865.476L1105.12 529.969C1111.88 504.3 1135.3 486.736 1161.87 486.736H1267.7C1270.85 486.736 1273.55 488.988 1274.45 491.69C1278.96 506.552 1279.41 523.665 1279.41 531.771C1279.41 537.175 1275.35 541.678 1269.95 541.678H1171.77C1142.95 541.678 1117.28 561.043 1110.08 588.965L1041.17 846.111C1040.72 847.462 1040.27 849.264 1040.27 850.615C1038.92 860.072 1048.38 866.827 1056.93 863.224C1165.92 816.389 1255.99 717.763 1281.21 603.376C1287.96 572.302 1289.76 541.678 1286.16 512.856C1283.01 491.69 1276.7 474.577 1276.7 474.577Z" fill="black"/>
</svg>
