<svg width="1980" height="1200" viewBox="0 0 1980 1200" fill="none" xmlns="http://www.w3.org/2000/svg">
<path d="M1283.39 598.759C1273.71 598.759 1265.77 591.311 1265.02 581.63C1260.8 519.322 1236.23 462.723 1197.51 418.536C1191.3 411.337 1191.55 399.918 1198.25 393.216L1249.14 342.326L1247.4 340.589L1196.52 391.478C1189.81 398.18 1178.4 398.677 1171.2 392.223C1127.02 353.497 1070.42 328.673 1008.37 324.701C998.688 323.957 991.241 316.013 991.241 306.331V234.342H988.759V306.331C988.759 316.013 981.313 323.957 971.632 324.701C909.33 328.673 852.737 353.497 808.555 392.223C801.357 398.429 789.939 398.18 783.237 391.478L732.353 340.589L730.615 342.326L781.499 393.216C788.201 399.918 788.698 411.337 782.244 418.536C743.522 462.723 718.701 519.322 714.729 581.63C713.985 591.311 706.042 598.759 696.361 598.759H624.379V601.241H696.361C706.042 601.241 713.985 608.688 714.729 618.37C718.949 680.678 743.522 737.277 782.244 781.463C788.449 788.662 788.201 800.081 781.499 806.784L730.615 857.425L732.353 859.163L783.237 808.522C789.939 801.819 801.357 801.323 808.555 807.777C852.737 846.502 909.33 871.326 971.632 875.298C981.313 876.043 988.759 883.987 988.759 893.668V965.658H991.241V893.668C991.241 883.987 998.688 876.043 1008.37 875.298C1070.67 871.078 1127.26 846.502 1171.45 807.777C1178.64 801.571 1190.06 801.819 1196.76 808.522L1247.65 859.411L1249.39 857.673L1198.5 806.784C1191.8 800.081 1191.3 788.662 1197.76 781.463C1236.48 737.277 1261.3 680.678 1265.27 618.37C1266.02 608.688 1273.96 601.241 1283.64 601.241H1355.62V598.759H1283.39ZM1244.17 601.241C1254.85 601.241 1263.29 610.178 1262.54 620.852C1258.07 680.43 1234.24 734.794 1197.51 777.74C1190.56 785.932 1178.15 786.428 1170.45 778.981L1120.81 729.333L1119.07 731.071L1168.72 780.719C1176.41 788.414 1175.67 800.826 1167.47 807.777C1124.53 844.516 1070.17 868.099 1010.6 872.816C999.929 873.561 990.993 865.12 990.993 854.446V783.946H988.511V854.446C988.511 865.12 979.575 873.561 968.902 872.816C909.33 868.347 854.971 844.516 812.03 807.777C803.839 800.826 803.342 788.414 810.789 780.719L860.432 731.071L858.694 729.333L809.051 778.981C801.357 786.676 788.946 785.932 781.996 777.74C745.26 734.794 721.679 680.43 716.963 620.852C716.219 610.178 724.658 601.241 735.331 601.241H805.824V598.759H735.579C724.906 598.759 716.467 589.822 717.211 579.148C721.679 519.57 745.508 465.205 782.244 422.26C789.194 414.068 801.605 413.571 809.299 421.018L858.943 470.667L860.68 468.929L811.037 419.281C803.342 411.585 804.087 399.173 812.278 392.223C855.219 355.483 909.578 331.9 969.15 327.184C979.823 326.439 988.759 334.879 988.759 345.553V416.054H991.241V345.553C991.241 334.879 1000.18 326.439 1010.85 327.184C1070.42 331.652 1124.78 355.483 1167.72 392.223C1175.91 399.173 1176.41 411.585 1168.96 419.281L1119.32 468.929L1121.06 470.667L1170.7 421.018C1178.4 413.323 1190.81 414.068 1197.76 422.26C1234.49 465.205 1258.07 519.57 1262.79 579.148C1263.53 589.822 1255.09 598.759 1244.42 598.759H1173.93V601.241H1244.17Z" fill="black"/>
<path d="M990.001 440.63C902.133 440.63 830.646 512.123 830.646 600C830.646 687.877 902.133 759.37 990.001 759.37C1077.87 759.37 1149.36 687.877 1149.36 600C1149.36 512.123 1077.87 440.63 990.001 440.63ZM990.001 756.64C903.622 756.64 833.129 686.388 833.129 599.752C833.129 513.116 903.374 442.864 990.001 442.864C1076.63 442.864 1146.87 513.116 1146.87 599.752C1146.87 686.388 1076.38 756.64 990.001 756.64Z" fill="black"/>
<path d="M990.001 532.729C953.017 532.729 922.734 563.014 922.734 600.002C922.734 636.989 953.017 667.275 990.001 667.275C1026.98 667.275 1057.27 636.989 1057.27 600.002C1057.27 563.014 1026.98 532.729 990.001 532.729ZM990.001 664.792C954.258 664.792 925.217 635.748 925.217 600.002C925.217 564.255 954.258 535.211 990.001 535.211C1025.74 535.211 1054.79 564.255 1054.79 600.002C1054.79 635.748 1025.74 664.792 990.001 664.792Z" fill="black"/>
</svg>
