<svg width="1980" height="1200" viewBox="0 0 1980 1200" fill="none" xmlns="http://www.w3.org/2000/svg">
<path d="M1306.82 697.88C1306.31 697.363 1305.79 696.847 1305.79 696.331C1305.79 695.814 1305.79 694.782 1305.27 693.749C1304.76 693.232 1304.24 692.716 1304.24 691.683C1304.76 690.651 1304.76 689.618 1304.24 688.585C1303.72 687.553 1303.21 687.036 1302.18 686.004C1301.14 681.873 1301.14 677.742 1300.63 673.095C1300.11 667.931 1298.04 662.768 1297.01 657.604C1294.43 646.244 1294.43 633.335 1292.88 621.976C1291.33 610.616 1285.65 600.289 1284.1 588.929C1282.55 578.086 1279.97 570.34 1275.32 560.53C1270.68 551.235 1269.13 541.425 1265.51 532.647C1261.38 522.836 1254.15 515.09 1250.02 505.28C1245.38 494.436 1240.21 483.593 1230.92 475.848C1232.47 466.553 1237.63 459.841 1233.5 450.546C1230.4 443.834 1226.27 438.154 1222.14 431.958C1218.01 425.245 1215.94 420.081 1210.26 415.434C1202.52 408.722 1194.26 402.525 1186 396.845C1177.22 391.166 1167.92 383.42 1158.11 379.806C1148.82 376.191 1139.52 372.577 1130.23 368.446C1126.61 366.897 1122.48 365.864 1118.87 364.832C1105.44 357.603 1085.31 358.119 1070.85 355.537C1062.07 353.988 1052.78 352.955 1044 351.923C1042.45 351.923 1040.9 351.406 1039.35 351.406C1041.93 347.792 1044 343.145 1045.55 339.014C1047.61 335.399 1049.68 331.785 1051.23 327.654C1060.01 314.229 1063.62 302.353 1058.97 285.829C1054.33 270.339 1050.71 256.914 1034.19 251.75C1032.12 251.234 1030.57 250.717 1028.51 250.201C1017.66 245.038 1005.27 242.972 994.945 245.554C985.65 247.619 977.905 252.783 969.127 256.914C966.545 257.946 964.48 258.979 961.898 260.012C949.506 263.626 938.662 261.561 926.786 254.848C925.753 254.848 924.204 254.848 923.172 254.332C923.172 254.332 923.172 254.332 923.172 254.848H922.655C912.328 256.397 904.583 261.044 898.903 268.273C895.288 270.855 892.707 273.437 890.641 278.601C884.961 292.026 882.38 307.516 881.863 321.974C881.863 328.687 884.445 333.334 886.51 339.53C887.543 342.628 888.059 344.694 889.092 346.759C879.798 343.661 870.503 341.596 859.144 343.145C848.817 344.177 837.973 344.694 828.679 349.341C819.901 353.988 810.606 359.152 802.345 364.832C785.305 376.708 770.847 389.1 757.938 405.623C749.16 416.467 746.579 426.278 746.579 438.154C746.062 438.67 745.546 439.186 745.546 440.219C745.546 443.834 745.546 447.448 746.062 451.063C746.062 453.644 747.095 456.226 748.128 458.808C743.48 462.422 739.866 466.553 736.768 472.749C731.088 483.077 724.892 492.887 719.212 503.214C717.663 505.796 716.114 508.894 714.565 511.476C707.852 524.385 702.689 537.81 698.041 550.719C696.492 554.333 694.943 558.464 693.394 562.595C689.78 572.922 688.231 583.249 687.714 593.576C686.165 603.387 684.616 613.198 683.583 623.008C683.583 623.525 683.583 624.557 683.583 625.074C682.551 628.172 681.002 631.786 680.485 634.884C678.42 641.597 679.453 647.793 679.453 653.99C679.969 665.349 677.904 676.709 678.936 687.553C672.224 691.167 669.126 700.461 668.609 707.69C668.093 714.403 670.158 718.534 674.289 720.599C676.871 723.181 679.453 724.214 682.551 724.214C678.936 728.861 677.904 735.573 680.485 740.737C684.616 747.966 692.361 747.966 697.525 752.097C699.074 755.711 700.107 761.391 701.14 763.457C703.205 769.136 705.787 774.3 708.885 779.464C711.983 785.66 715.597 791.34 719.728 796.503C751.226 861.047 815.254 908.552 881.863 933.853C887.027 936.435 892.19 937.984 897.87 939.533C992.879 969.998 1102.35 958.638 1179.28 891.512C1194.26 878.603 1207.68 863.629 1219.04 848.139C1223.69 843.491 1227.3 837.812 1230.4 832.132C1235.05 825.419 1239.18 818.19 1243.83 811.477C1252.09 801.667 1259.83 790.823 1263.96 778.431C1265 775.333 1265.51 773.267 1266.55 770.685C1268.1 768.104 1269.64 765.522 1270.68 762.424C1271.71 761.391 1272.74 760.358 1273.78 758.809C1274.29 758.293 1274.81 757.777 1275.84 757.26C1282.55 758.809 1291.33 754.679 1294.43 748.482C1294.43 747.966 1294.95 747.45 1294.95 747.45L1295.46 746.933C1295.98 746.417 1295.98 745.901 1296.5 744.868C1298.56 740.737 1299.08 736.09 1298.04 731.443C1298.04 730.926 1297.53 729.894 1297.53 729.377C1298.56 728.861 1299.08 727.828 1299.59 726.795C1305.79 723.697 1310.44 718.017 1311.47 711.305C1311.47 707.174 1309.4 702.01 1306.82 697.88ZM1078.59 364.832C1105.96 369.995 1132.81 376.708 1158.11 389.1C1161.21 390.649 1164.83 392.715 1167.92 394.264C1169.47 395.296 1170.5 396.329 1172.05 396.845C1178.77 400.46 1184.96 405.107 1191.16 409.754C1193.74 411.82 1195.81 413.369 1197.87 415.434C1203.04 420.081 1207.17 424.729 1211.81 429.376C1214.91 434.539 1218.01 439.703 1221.11 445.383C1221.11 445.899 1221.62 445.899 1221.62 446.415C1224.72 456.743 1223.69 467.07 1207.17 465.521C1190.64 463.971 1183.41 441.768 1175.15 429.892C1167.41 419.049 1157.6 409.238 1147.27 400.976C1126.61 384.969 1102.86 374.126 1077.56 366.897C1075.5 365.348 1073.43 364.832 1070.85 364.315C1069.82 363.799 1068.78 363.799 1068.27 363.283C1071.88 364.832 1075.5 364.832 1078.59 364.832ZM1116.8 394.78C1117.84 395.296 1118.87 394.78 1119.39 394.264C1120.93 395.296 1121.97 396.329 1123.52 397.362C1121.45 397.362 1118.87 397.362 1116.8 397.878C1115.77 396.845 1114.22 395.813 1113.19 394.78C1114.22 394.264 1115.26 394.78 1116.8 394.78ZM1107.51 389.617C1105.44 387.551 1102.86 386.002 1101.31 384.453C1098.73 382.388 1096.15 380.322 1093.57 378.773C1100.28 381.871 1106.99 385.486 1113.19 389.617C1111.12 390.133 1109.06 390.133 1107.51 389.617ZM1126.61 402.009C1127.13 402.009 1127.13 402.009 1127.65 401.493C1129.2 403.042 1130.75 404.074 1131.78 405.623C1129.2 405.623 1126.61 405.623 1124.03 405.623C1122.48 404.074 1121.45 403.042 1119.9 401.493C1122.48 401.493 1124.55 402.009 1126.61 402.009ZM1134.36 410.271C1134.88 410.271 1135.39 410.271 1135.39 409.754C1136.43 410.787 1137.46 412.336 1138.49 413.369C1135.91 413.369 1132.81 412.852 1130.23 412.852C1129.2 411.82 1128.68 410.787 1127.65 409.754C1130.23 410.271 1132.29 410.787 1134.36 410.271ZM1142.11 419.565C1142.62 419.565 1143.14 419.565 1143.14 419.565C1143.65 420.081 1143.65 420.598 1144.17 421.114C1143.14 421.114 1142.11 421.63 1141.07 421.63C1139.52 421.63 1137.46 421.63 1135.91 421.63C1135.39 421.114 1134.88 420.081 1134.36 419.565C1136.94 419.049 1139.52 419.049 1142.11 419.565ZM1143.65 425.245C1144.69 425.245 1145.72 425.245 1146.75 425.245C1147.79 426.794 1148.3 427.827 1149.33 429.376C1145.72 429.376 1142.62 429.376 1139.01 429.376C1138.49 427.827 1137.97 426.278 1137.46 424.729C1140.04 425.245 1141.59 425.245 1143.65 425.245ZM1152.43 434.539C1152.95 435.056 1152.95 435.572 1153.47 436.088C1151.92 436.088 1150.37 436.088 1148.82 435.572C1146.24 435.056 1143.65 435.056 1141.59 435.572C1141.59 435.056 1141.07 434.539 1140.56 434.023C1144.69 434.023 1148.82 434.023 1152.43 434.539ZM1151.4 440.736C1152.43 440.736 1154.5 441.252 1156.05 441.768C1156.56 442.285 1156.56 442.801 1157.08 443.317C1152.43 442.801 1147.79 442.801 1143.14 443.834C1143.14 442.285 1142.62 440.736 1142.62 439.186C1145.72 439.186 1148.82 440.219 1151.4 440.736ZM1143.65 447.964C1149.33 447.448 1155.01 447.448 1161.21 448.997C1161.73 449.514 1161.73 450.03 1162.24 450.546C1158.63 450.03 1154.5 450.546 1150.88 450.546C1148.3 450.546 1145.72 450.546 1143.65 451.579C1143.14 450.03 1143.14 448.997 1143.65 447.964ZM1090.99 384.969C1100.8 391.682 1110.09 399.944 1118.35 409.238C1122.48 413.885 1126.61 419.049 1129.71 424.212C1136.43 435.056 1133.84 449.514 1118.87 450.546C1092.54 451.579 1076.53 421.114 1061.55 404.074C1048.13 388.584 1031.61 373.093 1010.95 368.446C1008.37 365.348 1005.79 362.766 1002.69 360.184C1018.7 357.086 1032.64 335.916 1037.8 322.491C1044.51 305.451 1041.93 281.182 1021.8 275.502C1002.69 269.822 982.552 284.797 974.291 301.32C967.062 316.811 969.643 335.916 980.487 348.825C976.872 348.308 973.258 347.792 969.643 348.308C943.309 339.53 947.44 296.673 962.414 278.084C981.003 255.365 1007.34 255.881 1033.15 260.528C1034.7 261.561 1036.25 263.11 1037.8 264.143C1045.55 271.888 1047.1 283.764 1048.13 294.091C1049.68 316.811 1041.93 337.981 1021.8 354.504C1019.21 355.537 1021.28 357.086 1024.89 357.603C1025.93 357.603 1026.96 358.119 1027.48 358.119C1027.99 358.635 1029.02 358.635 1029.54 358.635C1052.26 361.217 1072.4 372.061 1090.99 384.969ZM985.134 297.189C984.618 296.673 984.101 296.673 983.585 296.673C983.585 296.157 983.069 296.157 982.552 295.64C984.101 293.575 986.167 290.993 988.232 289.444V289.96C988.748 297.189 986.167 303.385 982.552 308.549C983.069 307.516 983.585 306.484 984.101 305.451C985.134 302.353 986.167 299.771 985.134 297.189ZM1009.4 287.895C1009.4 287.379 1008.37 287.379 1008.37 287.895C1008.37 285.829 1007.85 283.248 1007.34 281.182C1006.82 279.633 1004.76 280.15 1004.76 281.699C1006.3 289.444 1004.76 297.189 1001.14 303.902C1003.72 297.706 1004.24 291.509 1003.72 284.797C1003.72 283.248 1001.66 283.248 1001.66 284.797C1001.14 292.026 999.592 298.222 996.494 304.418C998.559 298.222 999.076 291.509 999.076 284.797C999.076 283.248 997.01 283.248 997.01 284.797C995.977 295.124 993.912 305.967 987.199 314.745L986.683 315.262C987.716 314.229 988.232 312.68 989.265 311.131C992.363 305.451 995.977 298.738 994.428 292.542C993.912 290.993 992.363 291.509 991.847 292.542C991.33 293.575 990.814 294.607 990.298 295.64C990.298 293.575 990.298 291.509 990.298 289.444C990.298 288.928 989.265 288.411 988.748 288.928C995.461 283.248 1003.72 279.633 1013.02 279.633C1013.53 279.633 1014.57 279.633 1015.08 279.633C1014.57 279.633 1014.05 280.15 1014.05 281.182C1014.57 284.28 1014.57 286.862 1014.57 289.96C1014.05 286.862 1013.02 283.764 1011.98 281.182C1010.95 279.633 1008.89 281.182 1009.4 282.731C1011.47 286.862 1011.47 293.058 1011.98 297.706C1011.98 299.771 1011.98 301.32 1012.5 303.385C1007.34 317.843 995.977 329.203 982.036 336.432C989.265 330.236 997.526 326.105 1003.21 317.843C1008.37 308.549 1011.47 298.738 1009.4 287.895ZM1016.12 280.15C1016.12 279.633 1015.6 279.633 1015.6 279.633C1017.66 279.633 1019.73 280.15 1021.28 281.182C1021.28 283.764 1020.76 285.829 1020.76 288.411C1019.21 291.509 1018.18 294.607 1016.63 297.189C1017.66 291.509 1017.66 285.829 1016.12 280.15ZM1023.86 282.215C1025.93 283.248 1027.99 284.797 1029.02 286.862C1030.57 292.542 1030.57 297.706 1029.54 302.869C1029.02 302.869 1029.02 302.869 1029.02 303.385C1028.51 305.451 1028.51 307 1027.99 309.065C1023.34 322.491 1011.98 333.85 999.592 342.628C1006.3 337.465 1011.98 332.301 1017.15 325.072C1023.86 316.811 1030.57 305.967 1030.57 295.64C1030.57 294.091 1028.51 294.091 1027.99 295.124C1024.38 305.967 1018.7 315.262 1011.98 324.04C1021.8 311.131 1024.89 298.222 1023.86 282.215ZM1013.53 346.243C1008.89 350.374 1003.21 353.988 997.01 355.537C996.494 355.021 995.977 355.021 995.461 354.504C1001.66 352.439 1007.85 349.341 1013.53 346.243ZM1031.61 315.778C1032.12 312.68 1032.64 310.098 1032.64 307.516C1033.67 304.935 1034.19 301.836 1034.7 299.255C1035.74 306.484 1034.19 314.745 1031.09 321.458C1031.61 319.909 1031.61 317.843 1031.61 315.778ZM976.872 324.04C976.356 324.556 975.323 325.589 974.807 326.105C974.807 324.556 974.291 323.007 974.291 320.941C974.807 320.941 975.323 320.942 975.84 320.425C977.389 319.392 978.421 317.843 979.97 316.811C980.487 316.811 980.487 316.294 981.003 316.294C979.454 318.36 978.421 319.909 976.356 321.458C974.807 322.491 975.84 324.04 976.872 324.04ZM977.905 305.451C977.389 306.484 976.356 308.033 975.84 309.065C976.872 305.451 978.421 301.836 980.487 298.222C979.97 300.804 978.938 303.385 977.905 305.451ZM776.527 394.264C785.821 384.969 796.149 376.708 807.508 368.446C813.705 364.315 819.901 360.701 826.097 357.603C848.817 347.792 874.634 345.21 898.387 356.054C899.936 356.57 900.968 356.054 901.485 355.021C903.034 353.988 903.55 351.406 901.485 350.89C900.968 350.89 900.968 350.374 900.452 350.374C899.936 349.341 899.419 348.308 898.903 347.792C898.387 346.243 897.87 345.21 896.838 344.177C890.125 329.203 887.543 305.451 893.223 286.862C893.739 285.313 894.256 283.764 894.772 282.215C898.387 273.437 904.583 269.822 912.844 266.724C914.394 266.208 915.426 265.692 916.459 265.692C905.099 273.953 896.321 285.313 894.256 298.738C891.158 317.843 899.419 337.981 909.746 353.988C911.295 356.57 914.91 354.504 913.877 351.923C906.648 334.883 895.805 317.843 899.936 298.222C903.034 283.248 914.394 273.953 925.237 264.659C926.27 264.659 927.302 264.659 928.335 264.659C916.459 272.404 906.648 284.797 904.066 298.738C900.968 316.811 910.263 335.916 920.073 350.374C921.622 352.955 925.753 350.89 924.204 347.792C916.975 333.334 907.681 319.392 909.23 302.353C910.263 285.313 923.172 276.535 933.499 265.175C935.048 265.692 936.597 265.692 938.662 266.208C928.335 275.502 917.492 288.928 914.91 302.869C911.812 318.36 918.524 334.367 926.786 347.276C928.335 349.857 932.466 347.792 930.917 344.694C924.204 330.752 916.459 315.778 920.59 299.771C924.204 286.862 934.015 277.568 941.76 267.241C943.826 267.757 945.891 267.757 947.957 267.757C925.753 288.928 917.492 316.811 935.564 343.661C936.597 345.21 939.695 344.177 939.178 342.112C934.015 327.654 928.335 315.262 932.982 299.255C936.597 287.379 944.342 277.568 951.055 267.241C953.12 267.241 954.669 266.724 956.735 266.724C950.022 272.921 945.375 281.182 941.76 290.477C938.662 298.738 937.113 305.451 937.629 314.229C937.629 319.909 937.113 326.105 938.146 331.785C938.146 332.818 941.76 343.145 942.277 343.145C941.76 343.145 941.244 343.661 941.76 344.177C942.277 344.177 942.277 344.694 942.793 344.694C943.309 345.21 943.826 345.21 943.826 344.694C946.407 342.628 945.375 339.53 944.858 336.432C943.309 325.072 940.211 312.163 943.309 300.804C947.44 285.313 954.669 273.953 965.513 263.626C967.062 263.11 968.611 262.594 970.676 262.077C972.225 261.561 973.774 261.044 975.323 260.528C965.513 266.208 957.251 274.47 952.087 284.28C939.695 307 942.793 354.504 976.872 353.988C993.912 360.184 1008.89 367.413 1014.57 387.551C1021.28 410.271 1008.89 435.572 985.65 441.768C974.291 444.866 959.833 442.801 953.636 431.958C948.473 423.696 949.506 413.369 950.022 404.074C950.538 396.329 951.055 388.067 948.989 380.839C948.473 377.74 948.473 374.126 947.44 371.028C947.44 370.511 947.44 370.511 947.44 369.995C950.022 368.446 953.636 367.93 954.669 364.832C954.669 364.315 954.669 363.799 953.636 363.283C951.055 362.766 947.956 365.348 945.891 366.381C944.858 366.897 944.342 367.413 943.309 368.446C928.851 374.642 923.688 389.617 916.459 402.009C905.616 421.114 892.707 438.67 877.216 454.161C864.307 440.219 872.569 416.467 880.314 401.493C888.576 385.486 900.452 373.61 913.877 361.733C915.426 360.184 913.361 357.603 911.812 358.635C909.23 360.184 906.648 361.733 904.066 363.283C903.55 362.25 902.001 362.766 901.485 362.766C900.452 362.766 899.419 362.766 898.903 363.283C900.968 361.733 902.517 360.701 904.583 359.152C906.648 357.603 905.616 353.988 903.034 355.021C898.903 356.57 895.288 358.119 891.674 360.184C882.38 364.832 874.118 371.028 866.373 377.74C861.209 382.388 856.562 387.551 852.431 392.715C846.751 400.46 842.104 410.787 833.326 415.951C825.064 420.598 814.221 421.114 805.443 424.212C798.214 426.794 790.469 429.892 783.756 433.507C773.429 438.154 763.618 443.317 756.906 452.612C750.193 431.958 761.037 411.303 776.527 394.264ZM851.398 418.016C849.849 418.532 848.3 419.049 847.268 419.565C849.849 416.983 851.915 414.402 854.497 411.303C858.627 409.238 863.275 407.689 867.922 406.656C868.954 406.14 869.987 406.14 871.536 405.623C870.503 407.689 869.987 409.238 869.471 411.303C868.954 412.336 868.954 413.369 868.438 414.402C868.438 414.402 868.438 414.402 867.922 414.402C862.242 414.402 856.562 416.467 851.398 418.016ZM866.373 418.016C865.856 420.081 865.34 422.147 864.824 424.212C855.013 426.794 845.202 428.343 835.391 430.925C834.359 431.441 833.326 431.441 832.293 431.958C833.326 430.925 834.875 430.408 835.908 429.376C837.457 427.827 839.006 426.794 841.071 425.245C845.719 424.212 849.849 422.663 854.497 421.63C858.627 420.081 862.758 419.565 866.373 418.016ZM888.06 377.74C888.06 377.74 888.576 377.74 889.092 377.74C888.059 379.289 886.51 380.839 885.478 382.388C884.961 382.388 884.961 382.388 884.445 382.388C882.38 383.42 880.314 384.453 877.732 385.486C876.7 385.486 876.183 386.002 875.151 386.002C877.216 383.937 878.765 381.871 880.831 379.806C880.831 379.806 880.831 379.806 881.347 379.806C883.412 378.773 885.478 378.773 888.06 377.74ZM885.994 374.642C888.059 372.577 890.125 371.028 892.19 368.962C894.256 368.446 896.838 368.446 898.903 368.446C897.354 369.995 895.805 371.028 894.256 372.577C894.256 372.577 893.739 372.577 893.223 372.577C891.674 372.577 890.641 373.093 889.609 373.61C888.06 374.126 887.027 374.126 885.994 374.642ZM879.281 388.584C879.798 388.584 880.314 388.067 880.831 388.067C879.798 389.1 879.281 390.133 878.765 391.682C878.249 391.682 877.732 391.166 877.216 391.682C875.151 392.198 873.602 393.231 872.053 393.747C870.503 394.264 868.954 394.264 867.922 394.78C868.954 393.231 870.503 391.682 871.536 390.133C874.118 389.617 876.7 389.1 879.281 388.584ZM875.667 396.329C875.151 397.362 874.118 398.911 873.602 399.944C872.569 400.46 872.053 400.46 871.02 400.976C868.438 402.009 865.34 402.525 862.758 403.558C861.725 404.074 860.693 404.074 859.66 404.591C861.209 403.042 862.242 400.976 863.791 399.427C866.889 397.362 872.053 397.878 875.667 396.329ZM757.422 460.357C757.938 459.841 758.455 459.324 758.971 458.808C778.076 453.644 798.73 448.997 817.319 440.736C832.81 437.121 849.333 434.539 864.307 429.376C864.307 430.925 863.791 432.474 863.791 434.539C843.137 438.154 822.999 445.899 802.861 451.579C785.305 456.226 768.265 461.906 751.226 469.135C753.291 465.521 755.357 462.939 757.422 460.357ZM747.095 473.782C756.389 471.2 765.167 466.553 774.462 463.971C784.789 460.873 795.632 457.775 806.476 455.193C825.581 450.03 844.169 442.801 863.791 438.67C863.791 440.219 863.791 442.285 864.307 443.834C841.588 446.415 818.868 455.193 797.181 461.39C778.076 466.553 760.004 475.331 741.415 482.044C743.481 478.946 745.546 476.364 747.095 473.782ZM738.317 486.175C746.579 485.658 754.84 481.527 762.069 478.946C772.396 474.815 783.24 470.684 794.083 467.586C817.835 460.357 841.071 454.161 865.34 447.964C865.856 450.03 866.889 452.612 867.922 454.677C841.588 459.324 816.803 466.553 792.018 475.331C772.913 482.044 750.709 486.691 732.637 495.985C734.186 492.371 736.252 489.273 738.317 486.175ZM727.99 502.698C750.709 493.404 774.462 486.691 797.698 478.429C821.966 470.168 845.719 463.455 870.503 458.808C872.053 460.873 873.085 462.939 875.151 464.488C863.791 466.553 852.431 467.586 841.588 471.2C828.162 475.331 814.737 479.978 801.312 484.626C787.371 489.273 773.429 492.371 760.004 497.018C747.095 501.149 735.219 507.345 722.826 511.992C724.375 508.894 726.441 505.796 727.99 502.698ZM949.506 572.922C928.335 571.889 906.132 577.053 885.478 580.151C860.176 583.765 835.391 588.413 810.606 595.125C787.371 600.805 764.135 608.034 741.931 616.296C723.343 623.008 706.303 631.27 689.78 641.081C689.78 638.499 689.78 635.917 690.296 633.852C699.074 627.656 710.434 624.041 720.245 619.91C730.572 615.779 740.382 612.165 750.709 608.55C773.429 600.289 796.665 593.06 820.417 586.864C845.202 580.667 869.987 575.504 895.288 572.406C905.616 571.373 915.943 569.824 926.27 569.308C934.015 568.791 942.277 569.824 950.022 567.759C952.604 567.242 951.571 562.595 948.989 563.628C939.178 566.21 928.335 564.66 918.008 565.693C907.165 566.726 896.838 568.275 885.994 569.308C860.693 572.922 835.391 578.086 810.606 584.798C785.305 591.511 760.52 600.289 736.252 609.067C722.826 614.23 703.721 618.878 691.329 628.172C691.329 627.656 691.329 627.139 691.329 626.623C691.329 626.106 691.845 625.59 691.845 625.074C691.845 624.557 692.361 623.525 692.361 623.008C710.95 613.714 729.023 604.42 749.16 597.707C767.749 590.478 787.887 584.798 808.541 579.635C829.712 573.955 850.366 568.791 872.053 564.66C884.961 562.079 897.87 560.013 911.295 558.464C922.655 557.431 935.048 554.333 946.407 555.882C948.989 556.399 950.538 552.268 947.44 551.752C936.597 550.203 926.786 552.268 915.943 553.301C905.616 554.333 895.288 555.882 885.478 557.431C860.176 562.079 834.875 568.275 809.574 574.471C785.821 580.151 762.586 586.864 739.35 595.125C723.859 600.805 705.27 606.485 691.845 616.812C692.361 614.23 692.361 611.132 692.878 608.55C699.59 605.452 705.787 602.354 711.983 599.256C723.859 594.093 736.252 589.962 748.644 585.831C769.815 578.602 790.985 572.406 812.672 567.242C856.046 556.399 902.001 547.104 947.44 546.072C950.538 546.072 950.538 541.424 947.44 541.424C903.034 541.941 857.078 551.235 814.221 562.079C772.913 572.406 731.604 584.798 693.394 604.42C693.394 602.354 693.394 600.289 693.911 598.74C693.911 598.223 693.911 598.223 693.911 597.707C698.558 595.125 702.689 592.027 706.819 589.962C717.663 584.798 729.023 581.184 740.382 576.537C762.069 567.759 783.756 560.53 806.476 554.85C851.915 542.974 899.419 532.13 946.924 531.097C950.022 531.097 950.022 525.934 946.924 526.45C899.936 526.45 852.431 537.81 807.508 549.686C784.272 555.882 761.553 563.111 739.35 572.406C730.572 576.02 721.794 579.635 713.016 583.249C705.787 586.347 700.623 590.994 694.427 595.125C694.943 592.027 695.46 588.929 695.976 585.831C738.833 564.66 784.272 549.17 830.228 535.745C853.98 528.516 878.249 525.418 902.517 522.319C912.328 521.287 922.655 520.254 932.982 520.254C938.662 520.254 944.858 520.77 950.022 518.189C952.604 516.64 950.538 513.025 947.957 514.574C941.244 518.189 927.819 516.123 920.073 516.64C908.197 517.672 896.321 519.221 884.445 520.77C862.758 523.352 841.588 528.516 820.417 534.712C797.698 541.424 775.494 548.653 753.291 556.915C734.702 564.144 714.565 570.857 697.009 581.7C697.525 578.602 698.041 576.02 699.074 572.922C716.114 564.144 735.219 557.948 753.291 552.268C776.011 545.039 798.214 536.777 820.417 529.548C842.62 522.319 864.824 516.64 887.543 512.509C899.936 510.443 912.328 508.378 925.237 507.862C932.466 507.862 939.695 508.894 946.407 506.829C947.957 506.312 947.44 503.731 945.891 504.247C936.08 507.345 924.204 505.28 914.394 505.796C904.583 506.312 894.256 506.829 884.445 508.378C859.66 511.992 835.908 519.221 812.672 526.967C789.436 534.712 766.2 542.457 742.964 550.203C732.637 553.817 722.31 557.948 711.983 562.595C708.368 564.144 704.238 565.693 701.14 567.759C701.656 566.726 701.656 565.693 701.656 564.66C702.172 563.111 702.689 562.079 703.205 560.53C710.95 557.948 718.696 554.333 725.924 550.719C737.801 545.555 749.677 540.908 761.553 537.294C782.723 530.581 803.894 524.901 824.548 517.672C845.719 510.443 868.438 502.698 890.641 500.116C900.968 499.083 911.295 496.502 922.139 495.469C930.4 494.953 938.662 495.469 946.407 493.404C947.44 492.887 946.924 491.338 945.891 491.855C935.048 494.436 924.204 490.305 913.361 491.855C904.066 492.887 894.772 494.436 885.478 495.985C863.791 499.083 841.588 506.829 820.934 514.058C781.691 527.999 741.415 537.81 704.238 556.399C704.754 553.817 704.754 552.784 705.27 551.752C706.303 549.686 706.819 548.137 707.852 546.072C725.408 541.941 741.931 532.13 758.971 527.483C778.593 521.803 797.698 514.058 816.803 508.378C857.078 495.985 897.354 486.691 939.178 480.495C940.728 480.495 940.211 478.429 938.662 478.429C919.041 475.848 896.838 481.527 877.732 487.207C857.078 492.887 835.908 497.534 815.254 504.247C795.116 510.443 775.494 518.705 754.84 523.868C738.317 527.999 723.859 534.712 708.885 542.457C709.401 541.424 709.401 540.392 709.918 538.843C710.434 537.81 710.95 536.261 711.467 535.228C719.728 532.647 726.957 527.999 734.702 524.901C743.48 521.287 752.775 517.672 762.069 514.574C779.625 507.862 798.214 504.763 815.77 498.051C834.359 491.338 853.98 487.207 873.085 482.044C893.223 476.88 913.361 470.168 934.015 469.135C936.08 469.135 936.08 466.037 934.015 466.037C914.394 466.037 895.288 471.717 876.7 476.88C857.595 482.044 837.457 485.658 818.868 492.371C801.312 499.083 782.723 502.182 765.167 508.894C754.84 512.509 743.997 516.64 733.67 520.77C726.957 523.352 720.761 527.483 714.048 530.581C715.597 526.967 717.663 523.352 719.212 519.738C732.637 516.123 745.03 508.378 758.455 504.247C773.429 499.084 788.92 495.469 803.894 490.305C817.319 485.658 830.744 481.011 844.169 476.88C855.013 473.782 867.405 474.299 877.732 469.651C878.765 470.684 880.314 471.717 881.347 472.749C882.896 473.782 884.445 472.749 884.961 471.2C885.478 469.651 885.994 468.619 886.51 467.07C888.576 467.07 890.641 466.037 893.223 465.521C897.87 463.971 902.517 463.455 907.165 462.939C913.361 461.39 922.655 462.422 928.335 458.808C929.368 458.292 929.368 455.71 927.819 456.226C914.91 457.259 901.485 459.841 889.092 464.488C892.707 459.841 896.321 456.226 900.452 452.095C902.517 452.095 904.583 452.095 906.648 451.579C912.328 450.546 916.975 449.514 922.655 448.997C925.237 448.997 924.721 445.899 922.655 445.383C917.492 444.866 912.844 446.415 907.681 447.448C906.648 447.448 905.616 447.964 904.583 447.964C906.648 445.899 908.714 443.834 910.779 441.768C914.394 441.252 918.008 440.736 921.106 438.67C923.172 437.637 921.622 434.539 919.557 435.056C918.008 435.572 916.975 436.088 915.943 436.088C917.492 434.023 919.041 432.474 920.59 430.408C929.884 417.5 931.95 400.46 941.244 387.551C943.309 402.009 938.662 417.5 943.309 431.441C943.309 431.958 943.826 432.474 943.826 432.99C945.375 444.866 954.153 454.161 966.029 458.808C966.545 458.808 967.062 459.324 967.578 459.324C981.003 464.488 998.559 463.455 1008.37 452.095C1011.47 448.481 1013.53 444.866 1015.6 440.736C1023.34 429.376 1026.44 414.918 1022.83 401.493C1022.83 395.813 1021.8 390.133 1019.73 384.453C1019.21 382.904 1018.18 380.839 1017.66 379.289C1023.34 382.904 1030.57 385.486 1035.74 389.617C1041.42 393.747 1045.55 399.427 1049.16 405.623C1051.23 410.787 1053.81 416.467 1055.87 422.147C1056.91 425.245 1057.42 428.343 1058.97 431.441C1061.55 436.088 1064.14 440.219 1066.72 443.834C1070.85 450.546 1074.98 456.226 1080.14 461.39C1080.66 461.906 1081.18 462.422 1081.69 462.422C1082.21 462.939 1082.72 463.455 1083.76 463.971C1092.02 471.2 1104.41 477.397 1114.74 476.364C1120.93 475.848 1128.16 473.782 1132.81 469.651C1135.39 468.102 1136.43 466.037 1137.46 463.971C1138.49 462.939 1139.01 461.906 1139.52 460.873C1140.56 459.324 1141.07 457.775 1142.11 455.71C1145.72 454.677 1149.33 455.193 1152.95 455.193C1157.08 455.193 1161.21 455.193 1165.34 456.743C1165.86 456.743 1166.37 456.743 1166.37 456.743C1167.92 458.808 1169.99 460.873 1171.54 462.939C1166.89 462.422 1162.76 461.906 1158.11 461.39C1151.4 460.873 1145.72 461.39 1139.52 462.939C1137.46 463.455 1137.97 466.553 1140.04 466.037C1147.79 465.521 1153.98 465.521 1161.73 466.553C1167.41 467.586 1173.09 468.619 1178.77 469.135C1180.32 470.168 1182.38 471.717 1183.93 472.749C1183.41 472.749 1183.41 472.749 1182.9 472.749C1175.67 472.233 1168.44 470.168 1161.21 470.684C1153.98 471.2 1146.24 472.233 1139.01 471.2C1137.46 471.2 1136.94 473.266 1138.49 473.782C1150.88 476.88 1163.79 476.364 1176.18 477.913C1184.96 478.946 1193.74 479.462 1202.52 481.011C1205.62 481.527 1222.14 483.077 1223.69 484.626C1225.24 487.207 1226.79 489.273 1228.85 491.855C1215.94 487.207 1202.52 485.658 1189.09 484.109C1180.83 483.077 1173.09 481.527 1164.83 481.011C1156.56 480.495 1148.3 482.56 1140.04 482.044C1138.49 482.044 1138.49 484.109 1139.52 484.626C1145.2 486.175 1149.85 485.142 1155.53 485.142C1165.34 485.142 1175.15 486.691 1184.96 488.756C1199.94 491.338 1214.91 492.371 1229.37 498.567C1229.89 499.083 1229.89 499.084 1230.4 499.084C1230.92 499.084 1231.95 499.6 1232.47 499.6C1232.98 499.6 1233.5 499.6 1234.02 499.6C1234.53 500.116 1235.05 501.149 1235.57 501.665C1222.14 498.051 1209.23 496.502 1194.77 495.985C1177.22 494.953 1160.18 491.855 1142.62 492.887C1141.07 492.887 1141.07 495.469 1142.62 495.469C1158.63 496.502 1174.12 499.6 1189.61 501.149C1207.17 502.698 1223.17 504.247 1240.21 508.894C1241.76 510.96 1243.31 513.025 1244.34 515.607C1231.43 509.927 1215.94 509.411 1203.04 508.378C1183.41 506.312 1168.44 497.534 1148.3 503.214C1146.75 503.731 1146.75 506.312 1148.82 506.312C1156.56 505.796 1163.28 504.763 1171.02 505.796C1180.32 506.829 1188.58 511.992 1197.87 513.025C1215.94 515.09 1231.95 517.672 1248.99 524.385C1250.02 525.934 1250.54 527.483 1251.57 529.032C1250.54 528.516 1249.51 528.516 1248.47 527.999C1238.15 524.901 1228.34 521.803 1218.01 519.738C1197.87 515.09 1177.22 513.025 1156.56 512.509C1154.5 512.509 1153.98 516.123 1156.56 516.64C1176.18 517.672 1195.29 520.254 1214.39 524.385C1227.3 527.483 1242.79 530.065 1255.19 536.261C1256.22 537.81 1256.74 539.875 1257.77 541.424C1245.89 535.745 1234.02 533.163 1221.11 529.548C1208.2 526.45 1194.26 522.319 1180.83 524.901C1179.28 525.418 1179.28 527.999 1181.35 527.999C1198.39 526.45 1216.98 533.679 1233.5 538.326C1243.31 540.908 1251.57 544.523 1260.87 549.17H1261.38C1262.42 551.235 1263.45 553.817 1263.96 555.882C1256.22 551.752 1245.89 550.203 1239.18 548.137C1230.92 546.072 1223.17 543.49 1214.91 541.941C1210.78 541.424 1205.1 541.941 1200.97 540.908C1199.94 540.392 1198.39 542.457 1199.42 542.974C1201.49 545.039 1200.97 544.006 1203.04 545.039C1206.65 546.588 1211.81 546.072 1215.94 547.104C1220.07 548.137 1223.69 549.17 1227.3 550.203C1238.66 553.817 1256.74 556.399 1266.55 564.66C1266.55 564.66 1267.06 564.66 1267.06 565.177C1267.58 566.209 1268.1 567.759 1268.1 568.791C1259.83 565.177 1249.51 563.628 1241.76 561.562C1228.85 557.948 1215.94 553.817 1203.04 550.203C1201.49 549.686 1200.97 551.752 1202 552.784C1211.81 557.948 1223.17 561.562 1234.02 564.66C1240.21 566.726 1247.44 567.759 1253.64 570.34C1257.77 571.889 1266.03 573.955 1269.64 576.02H1270.16C1271.19 578.602 1271.71 581.7 1272.74 584.282C1268.1 582.216 1263.96 579.118 1258.8 577.053C1251.57 574.471 1244.34 571.889 1236.6 570.34C1229.37 568.791 1219.04 563.111 1211.81 567.242C1210.78 567.759 1211.3 569.308 1212.33 569.308C1222.14 570.857 1231.95 573.955 1241.76 576.537C1253.64 579.635 1263.45 586.864 1274.29 590.994C1274.81 593.06 1275.32 594.609 1275.84 596.674C1272.74 595.642 1269.64 595.125 1266.03 594.093C1261.38 592.544 1257.77 589.445 1253.12 587.38C1247.96 585.315 1241.76 584.798 1236.6 583.249C1230.4 581.7 1225.75 579.635 1219.56 578.086C1218.01 577.569 1216.98 580.151 1218.53 580.667C1229.37 585.831 1241.25 586.864 1251.57 591.511C1260.35 595.642 1267.06 599.256 1276.87 600.805C1277.39 602.871 1277.91 605.452 1278.42 607.518C1271.71 604.42 1262.93 601.838 1260.87 600.805C1248.99 595.642 1235.57 594.609 1223.69 589.445C1222.66 588.929 1222.14 590.478 1222.66 591.511C1230.4 597.191 1241.25 598.74 1250.02 601.838C1255.7 603.903 1260.87 606.485 1266.55 609.067C1269.64 610.616 1276.87 612.165 1279.46 614.23C1279.97 617.845 1280.49 621.459 1281 625.074C1273.78 621.459 1267.58 616.812 1260.35 613.714C1250.02 609.583 1238.66 608.55 1228.85 604.42C1227.3 603.903 1226.27 606.485 1227.82 607.001C1236.6 613.198 1247.96 613.714 1257.77 617.328C1266.55 620.427 1273.78 627.139 1282.04 630.237C1282.55 632.819 1282.55 635.401 1283.07 637.466C1273.26 633.852 1263.45 629.205 1254.15 624.557C1246.41 620.943 1239.7 617.328 1231.43 617.845C1229.89 617.845 1229.89 620.427 1231.43 620.427C1241.25 620.943 1250.02 627.139 1258.8 630.754C1267.58 634.368 1275.84 639.015 1284.62 642.63C1285.14 645.212 1285.14 647.793 1285.65 650.375C1276.36 645.728 1267.06 641.597 1258.29 636.95C1250.02 632.819 1242.28 628.172 1232.47 629.205C1230.92 629.205 1230.92 631.27 1232.47 631.786C1243.31 632.819 1252.61 639.532 1262.42 644.179C1270.68 647.793 1278.94 651.924 1286.68 656.055C1287.2 658.637 1287.2 660.702 1287.72 663.284C1282.55 660.702 1277.39 658.637 1272.23 656.055C1262.42 650.891 1251.57 648.826 1241.76 643.663C1240.21 642.63 1239.18 645.212 1240.21 646.244C1247.96 651.408 1256.22 655.022 1265 658.637C1271.71 661.735 1281.52 665.349 1288.23 669.997C1288.75 672.578 1288.75 675.16 1289.27 677.742C1274.81 668.964 1257.25 663.284 1241.76 657.088C1239.7 656.055 1238.15 659.669 1240.21 660.702C1255.19 666.898 1269.64 673.611 1284.1 681.356C1282.04 680.84 1279.97 680.324 1278.42 679.807C1266.55 676.709 1254.67 671.029 1244.34 665.349C1234.02 659.669 1222.14 658.12 1211.3 654.506C1206.65 652.957 1201.49 650.891 1195.81 649.342C1187.03 645.212 1178.25 641.081 1168.96 639.015C1162.24 637.466 1155.53 636.434 1148.82 634.884C1141.07 632.819 1132.81 630.754 1124.55 629.205C1117.84 627.656 1111.12 626.623 1103.9 625.59C1092.02 622.492 1080.14 619.394 1067.75 617.845C1060.52 617.328 1053.29 617.845 1046.06 617.328C1035.22 616.296 1025.41 612.165 1014.05 612.165C983.069 612.165 953.12 614.23 922.655 617.845C854.497 623.525 786.854 640.048 724.375 668.447C716.114 672.062 704.754 676.193 694.427 681.873C693.394 682.389 691.845 682.905 690.812 683.422C690.812 680.84 690.812 677.742 690.812 675.16C704.754 661.219 730.572 653.99 747.611 647.277C769.298 638.499 792.018 631.27 814.737 625.074C863.275 611.649 911.812 604.42 961.898 602.871C964.48 602.871 964.48 598.74 961.898 598.74C908.197 597.191 852.947 609.067 801.828 624.557C778.076 631.786 754.324 640.048 731.088 649.859C718.696 651.924 700.107 657.088 689.78 667.415C689.78 664.317 689.78 661.219 689.78 658.637C710.434 648.826 729.539 637.466 751.226 629.721C772.396 622.492 793.567 616.296 815.254 610.616C837.457 604.936 859.144 599.772 881.863 595.642C906.648 590.994 930.917 589.962 956.218 587.896C958.284 587.896 959.316 585.315 957.767 583.766C957.251 582.733 956.218 582.733 955.185 582.733C954.669 582.733 954.153 582.733 953.636 583.249C930.4 584.798 908.197 585.831 884.961 589.962C861.209 594.093 837.457 599.772 813.705 605.969C770.331 617.328 727.99 630.754 689.78 654.506C689.78 651.408 689.78 648.31 689.78 645.728C695.976 642.63 701.656 638.499 708.368 635.401C720.761 629.721 733.153 625.074 745.546 620.427C766.716 613.198 788.403 605.969 810.09 600.289C832.293 594.609 855.013 589.962 877.732 586.347C900.968 582.733 926.786 577.053 950.022 577.569C952.604 578.086 952.604 573.438 949.506 572.922ZM703.205 683.422C703.721 683.422 703.721 682.905 704.238 682.905C708.368 681.356 712.499 679.807 716.63 678.258C715.597 682.905 714.048 687.036 714.565 691.683C715.081 694.782 717.146 698.396 720.245 699.945C716.114 701.494 712.499 703.56 708.885 705.625C706.303 705.109 704.238 706.658 703.205 704.076C702.172 701.494 702.689 698.396 702.689 695.814C702.172 692.2 704.238 687.036 703.205 683.422ZM734.702 684.454C734.702 687.553 735.219 691.167 737.284 693.232C733.67 694.782 729.539 695.814 725.924 697.363C723.859 695.814 721.794 695.298 720.245 693.232C718.696 691.167 719.212 688.585 719.728 686.52C720.245 683.422 720.761 680.324 720.245 676.709C725.408 674.644 730.572 672.578 735.219 671.029C734.186 675.676 734.186 680.84 734.702 684.454ZM704.754 719.566C705.787 722.665 706.819 725.763 708.885 727.828C709.918 728.861 711.467 730.41 713.532 731.443C712.499 731.959 711.467 732.475 710.434 732.992C709.918 732.992 708.885 732.992 708.368 733.508C703.205 731.959 698.041 727.312 697.525 722.148C700.107 721.116 702.172 720.599 704.754 719.566ZM711.983 723.697C710.95 722.148 709.918 720.083 709.401 718.017C713.016 716.468 717.146 714.919 720.761 712.854C721.277 714.403 721.794 715.436 722.31 716.468C724.375 719.566 726.957 722.665 730.055 724.214C730.055 724.214 730.055 724.214 730.572 724.214C727.99 725.246 724.892 726.795 722.31 727.828C720.761 727.312 719.728 727.828 717.663 727.312C715.081 726.795 713.532 725.246 711.983 723.697ZM726.957 714.403C726.441 713.37 725.408 712.338 724.892 710.788C727.99 709.239 731.088 708.207 734.186 706.658C736.252 705.625 738.317 705.109 740.382 704.076C741.931 708.723 746.062 712.854 751.226 715.436C747.095 716.985 743.481 718.534 739.35 720.083C738.833 720.083 738.317 720.599 737.801 720.599C737.284 720.083 737.284 719.566 736.252 719.566C734.702 719.05 733.67 719.566 732.121 718.534C730.055 718.017 728.506 715.952 726.957 714.403ZM755.873 687.553C751.742 688.585 747.611 690.134 742.964 691.167C742.448 691.167 741.931 691.167 741.415 690.651C738.833 689.618 739.35 684.454 739.35 682.389C739.35 678.775 739.866 675.16 739.866 671.029C739.866 670.513 739.866 669.997 739.866 668.964C745.03 666.898 750.709 664.833 755.873 662.768C753.808 671.546 750.709 681.356 755.873 687.553ZM744.513 702.527C749.16 700.461 754.324 698.912 759.487 696.847C760.004 702.01 762.069 707.174 765.684 710.272C763.618 710.789 761.037 711.821 758.971 712.338C753.291 711.305 747.095 707.69 744.513 702.527ZM777.043 681.356C773.429 682.389 769.815 683.422 766.2 684.971C765.167 685.487 763.618 685.487 762.586 686.004C755.357 682.389 758.971 670.513 760.004 662.768C764.651 661.219 768.782 659.669 773.429 658.12C769.815 664.317 770.847 676.709 777.043 681.356ZM796.149 667.931C797.181 669.997 798.73 672.578 800.796 674.644C795.632 675.676 789.952 677.225 784.789 678.775C784.272 678.258 783.756 677.742 782.723 677.742C773.429 676.709 776.011 662.768 779.625 655.539C781.691 655.022 783.24 654.506 785.305 653.99C788.92 652.957 792.534 651.924 796.149 651.408C795.116 656.571 793.567 662.768 796.149 667.931ZM817.835 670.513C815.254 671.029 812.672 671.546 810.09 672.062C809.574 671.546 809.057 671.546 808.541 671.546C803.894 671.029 801.312 664.833 800.796 660.702C800.796 657.088 801.312 652.957 801.828 649.342C807.508 647.793 813.705 646.244 819.384 644.179C816.803 648.826 815.77 653.99 815.254 659.153C814.737 663.284 815.77 667.415 817.835 670.513ZM763.618 695.298C767.749 693.749 771.88 692.716 776.527 691.167C776.527 694.265 777.043 697.88 779.109 700.461C780.142 702.01 781.691 703.56 783.24 704.592C780.142 705.625 776.527 706.658 773.429 707.69C768.265 707.69 764.651 700.978 763.618 695.298ZM782.207 696.331C781.174 694.265 780.658 692.2 780.658 690.134C785.305 688.585 789.952 687.553 794.599 686.52C795.632 686.52 796.665 686.004 797.181 686.004C798.73 690.651 803.378 695.298 808.025 697.363C806.992 697.88 805.443 697.88 804.41 698.396C800.796 699.429 796.665 700.461 793.05 701.494C792.534 700.978 791.501 700.461 790.469 700.978C787.371 701.494 783.24 698.396 782.207 696.331ZM802.345 684.971C807.508 683.938 813.188 682.905 818.352 681.873C818.352 683.938 818.352 685.487 819.384 687.036C820.934 689.618 822.999 691.683 825.581 693.232C822.483 693.749 818.868 694.782 815.77 695.814C815.77 694.782 814.737 694.265 813.705 693.749C809.057 692.716 804.927 689.102 802.345 684.971ZM844.686 664.833C838.49 666.382 831.777 667.415 825.581 668.964C820.934 666.898 820.417 661.735 821.45 655.539C821.966 651.924 822.999 646.761 824.548 642.63C831.777 640.564 839.522 638.499 846.751 636.434C843.653 641.081 841.588 647.793 841.071 652.957C840.555 658.12 842.104 661.735 844.686 664.833ZM825.064 685.487C823.515 683.938 823.515 682.389 823.515 680.84C829.712 679.807 835.908 678.775 841.588 677.742C841.588 679.807 842.62 682.389 844.686 684.454C846.235 686.004 847.784 687.553 849.849 688.585C845.719 689.618 841.071 690.134 836.94 691.167C836.424 690.134 835.908 689.618 834.359 689.618C830.744 689.102 827.13 688.069 825.064 685.487ZM846.751 676.709C852.947 675.676 859.66 674.644 866.373 673.611C865.856 675.676 865.856 678.258 866.373 680.324C866.889 681.873 867.922 683.422 868.954 684.971C866.373 685.487 864.307 685.487 861.725 686.004C861.209 686.004 861.209 686.004 860.693 686.004C855.013 685.487 847.784 681.873 846.751 676.709ZM863.275 642.113C861.209 646.761 859.66 651.408 860.693 656.055C861.209 658.12 861.725 659.669 862.758 661.219C858.627 661.735 855.013 662.768 851.398 663.284C850.366 662.251 848.3 660.186 848.3 659.669C847.784 658.637 847.268 657.088 847.268 656.055C846.751 652.957 847.268 650.375 847.784 647.277C848.817 643.146 850.366 639.532 851.398 635.401C856.562 633.852 862.242 632.819 867.405 631.786C865.856 635.401 864.824 638.499 863.275 642.113ZM688.747 691.167C692.361 689.102 695.976 687.036 699.59 684.971C699.074 686.52 698.558 688.585 698.558 690.134C698.041 693.749 697.525 697.88 697.525 701.494C697.525 704.076 698.558 707.69 701.14 709.239C701.14 709.239 701.14 709.239 701.656 709.239C700.623 709.756 700.107 710.272 699.074 711.305C697.525 712.338 695.976 713.37 693.911 714.403C694.427 713.37 694.427 712.338 693.394 711.821C690.812 710.788 689.78 711.305 689.263 708.723C688.747 706.141 688.747 703.043 688.747 699.945C688.747 698.396 688.747 696.331 688.747 694.782C688.747 693.749 688.747 692.2 688.747 691.167ZM680.485 717.501C679.453 716.985 678.42 716.468 677.904 715.952C675.322 711.821 674.805 706.141 677.387 701.494C678.936 698.912 681.002 696.847 683.583 694.782V695.298C683.583 695.814 684.1 696.331 684.616 696.847C684.616 697.363 684.616 697.363 684.616 697.88C684.616 700.978 684.1 704.592 684.616 708.207C685.133 711.305 687.198 715.952 690.812 716.468C688.747 717.501 686.682 718.017 684.616 718.534C682.551 718.017 681.002 717.501 680.485 717.501ZM694.427 742.286C693.394 741.77 692.878 741.77 691.845 741.253C690.296 740.221 688.747 739.188 687.714 737.639C686.165 735.573 685.133 733.508 685.649 730.926C686.165 728.861 687.198 727.828 687.714 726.279C688.747 725.763 689.263 724.73 690.296 724.214C690.812 724.214 691.329 724.214 691.845 723.697C692.361 728.861 697.525 734.024 702.689 737.123C699.59 738.672 697.009 740.221 694.427 742.286ZM790.985 870.342C787.371 868.793 784.789 866.211 781.691 863.629C802.345 855.367 824.548 849.688 846.235 844.008C852.431 842.459 877.216 842.975 877.216 833.681C877.216 832.132 875.667 831.099 874.118 831.099C859.144 834.713 843.653 837.812 828.679 842.459C811.639 847.622 793.567 851.237 778.076 860.015C775.494 857.433 772.913 854.335 770.847 851.237C780.658 844.008 802.345 844.008 811.123 841.942C825.581 838.844 839.522 833.681 853.464 829.55C866.373 825.935 880.314 824.386 893.223 820.255C890.125 823.354 887.027 826.452 883.929 829.55C880.831 832.648 876.7 838.844 875.667 845.557C862.758 845.557 847.268 851.753 834.875 855.367C820.934 860.015 806.476 865.178 793.05 871.374C793.05 871.374 792.018 870.858 790.985 870.342ZM960.349 867.76C959.833 868.793 959.316 869.309 959.316 870.342C958.284 872.407 956.734 878.087 958.284 880.669C940.728 878.603 923.688 874.473 907.681 868.276C896.838 864.146 879.281 858.982 882.896 843.491C884.445 836.262 891.158 831.099 897.354 826.968C888.576 853.302 940.211 864.662 960.349 867.76ZM801.312 876.022C813.705 872.407 825.581 866.727 837.457 863.113C849.333 859.498 864.307 857.949 876.183 852.786C876.7 855.884 877.732 858.466 880.314 861.564C881.347 862.596 882.38 864.146 883.929 865.178C874.634 865.695 863.791 868.793 857.595 869.825C842.104 872.407 826.097 875.505 812.156 883.767C808.541 880.669 804.927 878.087 801.312 876.022ZM824.032 892.029C821.45 889.963 818.868 888.414 816.286 886.349C828.162 881.185 842.104 879.12 854.497 877.054C866.373 874.989 880.831 871.891 893.223 872.407C893.739 872.407 894.256 872.407 894.772 871.891C899.936 873.956 905.099 876.022 909.746 877.571C910.263 877.571 910.263 877.571 910.779 878.087C882.38 882.218 852.947 883.251 826.097 894.094C825.581 893.061 824.548 892.545 824.032 892.029ZM831.777 897.708C844.686 895.127 857.078 890.996 869.987 888.931C884.961 886.865 902.001 888.414 916.459 882.734C918.008 882.218 918.524 881.185 918.524 879.636C926.786 882.218 935.048 884.283 943.309 885.832C924.204 891.512 904.583 894.094 884.961 895.643C869.471 897.192 853.98 898.225 839.006 902.872C836.424 901.323 833.842 899.774 831.777 897.708ZM997.01 948.828C993.912 948.828 990.297 948.827 987.199 948.311C985.134 947.795 983.069 947.795 981.003 947.278C984.101 946.246 985.65 944.18 986.167 941.082C986.167 940.049 985.134 939.017 984.101 939.017C981.519 939.017 979.97 941.082 977.389 941.599C973.258 943.148 969.127 943.148 964.996 943.148C960.349 943.148 955.185 943.664 950.538 943.664C942.793 942.631 935.048 940.566 926.786 939.017C942.277 937.984 957.767 934.886 973.258 930.755C975.323 930.239 975.323 927.657 973.258 927.141C963.447 925.075 954.153 929.206 944.858 931.788C934.531 934.37 923.688 934.886 913.361 935.919C908.714 934.886 904.066 933.337 899.419 932.304C897.87 931.788 895.805 931.271 894.256 930.755C915.426 929.206 960.349 925.075 959.833 914.232C959.833 913.199 958.8 911.65 957.767 912.166C948.473 913.199 938.146 917.33 928.851 919.395C914.91 921.977 899.419 921.461 886.51 927.141C880.831 924.043 875.667 920.428 869.987 917.33C884.961 915.781 899.936 915.781 914.91 913.199C924.204 911.65 933.499 909.585 942.277 907.519C947.44 906.487 953.636 905.97 956.735 901.323C957.767 899.774 956.218 897.192 954.153 897.708C937.629 901.839 920.59 906.487 903.55 908.552C890.125 910.617 875.667 909.585 862.758 913.199C862.242 913.199 862.242 912.683 861.725 912.683C856.046 910.617 850.882 909.068 845.719 906.487C879.798 901.323 914.394 902.356 947.44 891.512C950.022 890.48 950.022 887.898 949.506 886.349C952.087 886.865 954.153 887.381 956.735 887.381C957.767 887.381 958.8 887.381 959.833 887.898C960.865 898.741 966.545 910.101 971.192 918.879C977.389 930.755 986.167 941.082 997.01 948.828ZM989.265 872.924C988.748 871.891 987.716 872.407 987.716 872.924C987.199 874.473 987.199 876.022 987.199 877.571C987.199 878.603 987.199 879.636 987.199 881.185C980.487 881.702 974.807 881.702 969.643 881.185C969.643 877.571 970.16 874.473 971.709 871.374C972.225 871.374 972.225 870.858 972.741 870.342C973.258 869.825 973.774 869.309 973.774 868.793C979.97 869.309 987.199 869.825 995.461 869.825C994.945 873.44 994.428 876.538 994.945 880.152C993.396 880.152 991.847 880.152 989.781 880.669C990.297 878.603 989.781 874.989 989.265 872.924ZM1262.93 761.391C1256.22 759.842 1248.99 759.326 1242.28 757.777C1238.66 756.744 1235.57 755.195 1232.47 754.679C1228.85 754.162 1225.75 754.679 1221.62 753.129C1219.04 752.097 1218.01 755.711 1220.07 756.744C1222.66 758.293 1224.72 758.809 1227.3 759.326C1231.95 759.842 1236.08 761.391 1240.73 762.94C1246.41 765.006 1253.12 766.555 1259.83 767.071C1259.32 768.62 1258.8 770.169 1258.29 771.202C1258.29 771.718 1257.77 771.718 1257.77 772.235C1240.73 769.653 1223.69 768.62 1206.65 769.653C1204.07 769.653 1204.07 773.267 1206.65 773.267C1222.66 774.3 1238.66 775.849 1254.67 777.914C1253.12 780.496 1251.57 783.594 1250.02 786.176C1240.73 784.111 1231.43 785.143 1222.14 783.078C1213.36 781.013 1206.65 781.013 1197.36 782.045C1194.26 782.045 1194.77 786.176 1197.36 786.692C1203.04 787.209 1208.2 786.176 1213.88 787.209C1216.98 787.725 1220.59 789.274 1223.69 790.307C1230.92 791.856 1238.66 791.856 1246.41 792.372C1245.38 793.921 1244.34 795.47 1243.83 797.536C1238.66 796.503 1234.53 797.536 1228.85 798.052C1221.62 798.569 1214.91 795.47 1207.68 794.954C1199.94 794.438 1187.54 791.856 1179.8 794.954C1179.28 794.954 1179.28 794.954 1178.77 794.954C1177.73 795.987 1177.22 798.052 1179.28 798.569C1188.58 802.183 1201.49 799.601 1211.3 801.667C1215.43 802.699 1220.07 804.248 1224.21 804.248C1229.37 804.765 1234.53 803.216 1239.7 803.732C1238.66 805.281 1237.63 807.347 1236.6 808.896C1236.08 809.412 1235.57 809.928 1235.05 810.445C1223.69 810.445 1212.33 811.477 1200.97 810.961C1190.13 810.445 1179.28 811.994 1169.47 807.863C1167.41 806.83 1165.34 809.928 1167.41 810.961C1175.67 816.641 1184.96 816.125 1194.26 816.641C1206.65 816.641 1218.53 816.641 1230.4 816.641C1228.85 818.706 1227.82 821.288 1226.27 823.354C1221.11 822.321 1213.88 823.87 1209.75 823.87C1200.45 824.386 1191.68 824.386 1182.38 823.354C1174.64 822.321 1165.86 822.837 1158.63 821.288C1156.56 820.772 1155.53 823.87 1157.6 824.903C1168.96 829.033 1183.41 830.066 1195.29 830.583C1204.07 830.583 1213.36 830.583 1222.14 830.066C1219.56 834.197 1216.98 837.812 1213.88 841.942C1213.36 841.942 1212.85 841.426 1212.33 841.426C1190.13 841.942 1167.41 840.91 1145.2 841.426C1142.11 841.426 1141.59 846.589 1145.2 846.589C1166.37 846.589 1187.54 848.139 1209.23 847.622C1208.2 848.655 1207.17 850.204 1206.13 851.237C1204.58 853.302 1203.04 854.851 1200.97 856.917C1200.45 856.917 1200.45 856.917 1199.94 856.917C1192.19 860.015 1182.9 859.498 1174.64 858.982C1161.21 858.982 1146.24 858.466 1132.81 855.367C1130.23 854.851 1129.2 858.982 1131.78 859.498C1146.24 863.629 1163.28 865.178 1178.77 865.178C1181.86 865.178 1188.06 865.695 1193.74 865.178C1192.19 866.727 1190.64 868.793 1189.09 870.342C1188.58 870.858 1188.58 870.858 1188.06 871.374C1177.22 873.44 1167.92 870.858 1157.08 869.309C1143.14 867.244 1128.68 867.76 1114.74 869.309C1112.67 869.309 1112.67 872.407 1114.74 872.407C1131.78 874.473 1149.33 873.956 1166.37 877.054C1170.5 878.087 1175.67 879.12 1180.32 879.12C1177.73 881.702 1174.64 884.283 1171.54 886.349C1160.69 889.447 1149.85 886.865 1138.49 885.832C1126.1 884.283 1113.71 886.865 1101.83 883.767C1099.25 883.251 1098.22 886.865 1100.8 887.898C1114.22 892.029 1128.16 889.963 1141.59 892.029C1148.3 893.061 1154.5 894.094 1161.21 893.578C1157.6 896.159 1153.47 898.225 1149.85 900.29C1139.01 898.741 1128.16 901.323 1117.32 900.807C1110.09 900.29 1103.38 898.741 1096.15 898.225C1089.44 897.708 1081.69 898.741 1074.98 897.192C1073.43 896.676 1072.4 899.258 1073.95 899.774C1078.59 901.839 1082.21 902.356 1087.37 902.872C1095.12 903.905 1102.86 905.454 1111.12 906.487C1119.9 907.519 1129.2 907.519 1138.49 907.003C1133.84 909.585 1129.71 911.65 1125.07 914.232C1113.71 913.716 1102.35 914.748 1090.99 914.748C1076.53 914.748 1063.1 913.199 1048.65 911.134C1047.1 911.134 1047.1 913.199 1048.13 913.715C1062.07 919.395 1073.95 920.428 1088.92 920.428C1096.67 920.428 1104.93 920.428 1113.19 920.428C1105.44 924.559 1097.7 928.173 1089.44 930.755C1079.63 931.788 1069.3 929.206 1060.01 929.206C1043.48 928.69 1027.47 926.108 1010.95 925.075C1009.4 925.075 1009.4 927.141 1010.44 927.657C1028.51 930.239 1046.06 933.853 1064.14 935.402C1066.72 935.402 1069.3 935.919 1071.88 935.919C1064.14 937.984 1056.39 939.533 1048.65 941.082C1038.83 940.566 1029.02 939.533 1019.73 938.5C1018.18 938.5 1017.66 941.082 1019.21 941.599C1023.34 942.115 1028.51 943.664 1033.67 944.697C1030.57 945.213 1027.48 946.246 1024.38 947.278C1022.31 947.278 1020.25 947.795 1018.18 947.795C1011.47 944.697 1005.27 937.984 999.592 933.337C992.363 927.141 986.683 919.395 981.003 912.166C976.356 905.97 971.709 897.709 969.127 888.931C992.363 890.48 1019.73 889.447 1036.77 876.022C1047.1 868.276 1055.36 847.622 1044.51 837.811C1037.8 825.935 1022.31 817.674 1010.44 813.026C991.33 805.281 970.16 803.216 949.506 803.732C941.244 804.248 929.884 803.732 920.073 805.798C912.844 806.314 905.099 811.477 899.419 815.092C898.387 815.608 897.354 816.641 896.321 817.157C896.321 815.608 894.772 814.059 892.707 814.576C876.183 818.19 859.66 820.772 843.137 825.419C828.679 829.55 814.221 833.164 799.247 835.746C790.469 837.295 773.429 838.844 765.684 846.589C763.618 843.491 761.037 840.393 758.971 837.295C765.167 832.648 777.043 830.583 782.723 828.001C795.632 823.354 808.541 818.706 821.45 815.608C849.333 808.379 877.732 807.863 905.616 801.15C909.746 800.118 907.681 793.921 904.066 794.954C871.02 802.183 837.457 803.732 804.41 814.059C792.018 818.19 779.625 822.321 767.749 827.484C763.618 829.033 758.971 831.099 755.873 834.197C754.84 833.164 754.324 832.132 753.291 831.099C751.226 828.517 749.16 826.452 747.095 824.386C772.913 815.608 799.247 808.379 825.064 800.118C840.555 794.954 856.046 794.954 872.053 792.889C886.51 790.823 899.419 785.66 913.877 787.725C916.975 787.725 918.008 783.078 914.394 782.045C903.034 777.914 890.125 782.562 878.765 785.143C861.725 788.758 844.169 787.725 827.646 792.889C800.279 801.15 769.298 806.83 743.997 820.772C741.415 818.19 739.35 815.092 737.284 811.994C736.768 810.961 736.252 810.445 735.735 809.412C767.749 796.503 800.279 787.209 834.875 779.98C851.398 776.365 867.405 775.333 883.929 774.816C890.125 774.816 904.066 776.365 908.197 771.202C910.263 768.62 907.681 764.489 904.583 766.555C897.87 770.685 883.412 768.104 875.667 768.62C858.111 768.62 841.071 772.235 823.515 775.849C792.534 783.078 761.037 789.791 733.153 805.798C731.088 802.699 729.539 799.085 727.474 795.987C736.252 791.34 746.579 789.791 755.873 786.176C770.331 781.013 784.789 775.333 799.763 771.202C831.777 762.424 863.791 760.875 896.321 756.228C899.936 755.711 900.452 749.515 896.321 750.031C862.242 754.679 829.195 756.228 796.149 765.522C779.625 770.169 763.618 777.398 747.611 783.078C740.382 785.66 732.121 787.209 725.924 791.856C725.924 791.34 725.408 791.34 725.408 790.823C723.859 788.242 722.31 785.66 720.761 783.594C734.186 780.496 748.128 774.3 760.52 769.653C776.011 764.489 791.501 757.777 807.508 753.646C825.064 749.515 842.62 748.482 860.693 746.417C868.438 745.384 876.183 743.835 883.929 743.835C887.543 743.835 890.641 744.351 893.739 743.319H894.256C895.805 742.286 896.321 739.704 894.256 738.672C884.961 734.024 867.922 739.704 858.111 740.737C841.588 742.802 824.548 743.835 808.025 747.966C777.56 755.195 746.579 767.587 718.179 780.496C716.63 778.431 715.597 776.365 714.048 774.3C743.997 761.391 775.494 752.613 806.992 743.835C821.966 739.704 837.457 735.057 853.464 734.024C863.791 733.508 874.634 735.573 884.445 731.443C887.543 729.894 885.478 725.246 882.38 726.279C871.536 729.894 859.66 727.312 848.3 728.861C831.777 730.926 815.254 735.573 799.247 740.221C769.815 748.999 738.833 755.195 713.016 771.718C712.499 770.685 711.983 770.169 711.467 769.136C710.434 766.038 708.885 762.94 707.852 760.358C718.179 753.646 731.604 748.999 742.964 744.868C759.487 738.672 776.527 735.057 793.567 730.41C810.606 725.763 827.646 721.116 845.202 718.534C856.562 716.985 871.02 710.788 881.863 714.919C885.994 716.468 887.543 709.756 883.929 708.207C873.602 704.076 861.209 709.239 850.882 710.788C831.777 713.887 812.672 717.501 794.083 723.181C774.978 728.345 755.357 732.475 737.284 740.221C727.99 744.351 715.597 748.482 707.336 755.711V755.195C706.819 754.162 706.819 753.129 706.303 752.097C706.303 751.58 706.303 751.58 705.787 751.064C705.27 750.031 705.27 748.999 704.754 748.482C747.095 731.959 789.952 712.338 834.875 705.109C885.994 695.298 937.629 686.52 989.265 687.553C1041.93 688.585 1093.05 697.88 1143.14 712.854C1153.98 715.952 1164.83 719.566 1176.18 721.632C1188.58 724.214 1199.42 729.377 1211.3 734.024C1223.17 738.672 1235.57 742.802 1246.93 748.482C1247.96 748.999 1248.99 749.515 1250.02 750.031C1242.79 747.966 1235.57 745.901 1227.82 746.933C1226.27 746.933 1226.27 749.515 1227.82 749.515C1240.21 750.031 1251.06 757.26 1263.45 757.777C1263.96 757.777 1264.48 758.293 1265 758.293C1264.48 759.326 1263.45 760.358 1262.93 761.391ZM995.977 880.669C997.01 877.571 997.01 873.956 997.526 870.342C999.076 870.342 1000.62 870.342 1002.69 870.342C1002.17 873.44 1001.66 876.538 1001.66 880.152C999.592 880.152 997.526 880.152 995.977 880.669ZM1008.89 878.603C1006.82 879.12 1005.27 879.12 1003.21 879.636C1003.21 876.538 1003.21 873.44 1003.72 870.342C1005.27 870.342 1007.34 870.342 1008.89 869.825C1008.37 872.923 1008.37 876.022 1008.89 878.603ZM1011.98 869.825C1014.05 869.825 1016.12 869.309 1018.18 869.309C1018.18 871.374 1017.66 873.44 1017.66 875.505C1017.66 876.022 1017.66 876.538 1017.66 876.538C1015.6 877.054 1013.53 877.571 1011.47 878.087C1011.98 875.505 1011.47 872.407 1011.98 869.825ZM1020.76 868.793C1022.31 868.793 1023.34 868.276 1024.89 868.276C1024.38 870.342 1024.38 872.923 1024.38 874.989C1023.34 875.505 1022.31 875.505 1021.28 876.022C1020.76 872.924 1020.76 870.858 1020.76 868.793ZM1033.15 869.825C1031.09 870.858 1029.02 872.407 1026.96 873.44C1027.48 871.375 1026.96 869.309 1027.48 867.244C1029.54 866.727 1031.09 866.211 1033.15 865.695C1032.64 867.244 1032.64 868.793 1033.15 869.825ZM1035.22 864.662C1037.29 863.629 1039.35 862.596 1040.9 861.564C1039.87 864.146 1037.8 866.211 1035.74 867.76C1035.74 867.244 1035.74 865.695 1035.22 864.662ZM1286.17 739.704C1285.65 740.737 1285.14 742.286 1284.62 743.319C1281 744.351 1276.36 744.868 1272.74 744.868H1272.23C1271.71 744.868 1271.19 744.351 1270.68 744.351C1257.25 738.155 1242.79 732.992 1229.37 728.345C1209.23 721.116 1188.58 713.887 1167.92 708.207C1127.65 696.847 1086.86 688.069 1045.55 683.422C993.912 677.225 941.244 677.225 889.609 683.422C889.609 683.422 889.609 683.422 889.092 682.905C888.576 681.873 888.576 680.84 888.576 679.807C888.576 677.742 888.06 676.193 888.06 674.127C888.06 673.095 886.51 673.095 886.51 674.127C885.994 676.709 884.961 680.84 885.994 683.938C883.412 684.454 880.831 684.454 878.249 684.971C875.151 684.454 873.085 682.905 871.536 679.807C870.503 677.742 871.02 675.676 871.536 674.127C888.576 671.546 905.616 668.964 923.172 666.382C1005.27 661.219 1088.4 667.931 1168.44 687.553C1181.35 690.651 1194.26 694.265 1206.65 697.88C1208.2 698.396 1209.75 698.912 1211.81 699.429C1211.81 699.429 1211.81 699.429 1212.33 699.429C1219.04 701.494 1226.27 703.56 1232.98 706.141C1234.53 706.658 1236.6 707.174 1238.15 707.69C1239.7 708.207 1241.25 709.239 1242.79 709.756C1256.22 715.952 1270.16 721.632 1283.59 727.312C1285.14 728.861 1286.68 730.926 1287.72 733.508C1287.72 734.541 1287.2 737.123 1286.17 739.704ZM1289.78 715.952C1273.26 706.658 1254.67 700.461 1237.11 692.716C1219.56 684.971 1200.97 679.291 1182.38 674.644C1150.88 666.898 1119.39 659.153 1086.86 655.022C1084.27 654.506 1081.18 653.99 1078.59 653.473C1075.5 652.957 1071.88 652.957 1068.78 652.441C1066.2 651.924 1063.1 651.924 1060.52 651.408C1016.63 648.31 973.258 651.924 929.368 652.957C925.237 652.957 921.106 653.473 916.975 653.473C916.975 652.957 916.975 652.441 916.975 651.924C916.975 649.342 917.492 646.244 918.008 643.663C918.524 642.63 916.459 641.597 915.943 642.63C914.394 646.244 912.844 649.342 912.328 653.473C909.23 653.473 906.132 653.99 903.034 654.506C903.034 652.957 903.034 651.408 903.034 649.859C903.034 647.277 902.517 643.663 903.55 640.564C903.55 640.048 902.517 639.015 902.517 640.048C899.419 643.663 898.903 648.826 898.903 653.473C898.903 653.99 898.903 655.022 898.903 655.539C895.288 656.055 891.674 656.571 888.06 657.088C885.478 651.408 886.51 644.695 886.51 638.499C886.51 637.466 884.445 636.95 884.445 637.983C882.896 644.695 881.347 651.408 883.412 657.604C879.798 658.12 875.667 658.637 872.053 659.669C869.471 658.12 867.922 656.055 867.405 651.924C867.405 647.793 868.954 643.663 870.503 640.048C871.536 637.466 873.085 634.368 873.085 630.754C873.085 630.237 873.602 630.237 873.602 630.237C878.249 629.205 882.896 628.688 887.027 627.656C892.19 626.623 897.354 626.107 902.001 625.074C969.643 617.328 1038.83 619.91 1105.96 632.303C1115.26 634.884 1124.55 636.434 1133.84 637.983C1149.85 641.597 1165.86 646.244 1181.86 651.408C1203.55 658.637 1223.17 671.029 1244.34 678.775C1244.86 678.775 1245.38 678.775 1245.38 678.775C1250.54 681.356 1256.74 683.422 1261.9 685.487C1268.1 688.069 1274.29 689.618 1280.49 692.2C1284.62 693.749 1289.27 695.814 1292.36 698.912C1299.08 706.658 1296.5 714.403 1289.78 715.952ZM812.672 412.852C807.508 418.016 799.763 419.565 793.05 421.63C783.756 424.729 771.364 425.761 766.2 435.572C765.684 436.605 764.135 436.605 763.618 435.572C761.553 431.441 765.167 427.31 767.233 424.212C767.749 423.18 769.298 424.212 768.782 425.245C768.265 426.278 767.749 427.31 767.233 428.859C770.847 425.245 775.494 423.18 781.174 421.63C791.501 419.049 801.828 415.434 811.639 411.303C812.156 410.787 813.188 411.82 812.672 412.852ZM811.639 407.689C809.574 409.754 806.476 410.271 803.894 411.303C800.279 412.852 796.149 414.402 792.534 415.434C790.985 415.951 790.469 413.885 792.018 413.369C795.632 411.82 798.73 410.271 802.345 408.722C804.927 407.689 808.025 407.173 810.606 405.623C811.639 405.623 812.672 406.656 811.639 407.689ZM887.027 357.603C880.314 359.152 873.085 357.603 866.373 359.152C864.307 359.668 863.275 356.57 865.34 356.054C872.053 353.988 879.798 353.988 886.51 355.021C888.059 355.537 888.06 357.603 887.027 357.603ZM882.896 362.25C882.38 363.799 880.831 363.799 879.281 364.315C876.7 364.832 875.151 365.348 873.085 366.897C871.536 367.93 869.471 365.864 871.02 364.832C874.118 362.25 877.732 361.217 881.863 360.184C882.896 360.184 883.929 361.217 882.896 362.25ZM992.879 431.441C991.847 434.539 988.748 434.539 985.65 435.056C982.036 435.572 977.905 436.605 974.291 435.572C967.578 434.023 962.414 426.794 966.029 420.598C966.545 419.049 969.127 419.565 969.127 421.63C968.611 427.827 974.291 430.925 979.454 430.408C983.585 430.408 987.716 428.859 991.33 428.859C992.363 429.376 993.396 430.408 992.879 431.441ZM1048.65 372.061C1040.38 369.479 1031.61 366.897 1023.86 363.799C1022.31 363.283 1022.83 361.217 1024.38 361.733C1029.54 363.282 1034.19 365.348 1039.35 366.381C1042.45 367.413 1047.1 368.446 1049.68 370.511C1050.19 371.028 1049.68 372.061 1048.65 372.061ZM1055.87 381.871C1051.74 380.322 1048.13 377.74 1044 375.675C1038.83 373.093 1033.67 370.511 1028.51 367.93C1027.47 367.413 1028.51 365.864 1029.54 366.381C1038.83 370.511 1048.13 374.642 1056.91 380.322C1056.91 380.839 1056.39 382.388 1055.87 381.871Z" fill="black"/>
</svg>
