<svg width="1980" height="1200" viewBox="0 0 1980 1200" fill="none" xmlns="http://www.w3.org/2000/svg">
<path d="M1015.15 682.841L1007.25 912.116C1007.22 912.792 1007.97 913.243 1008.56 912.905L1056.67 885.08C1056.87 884.967 1057.03 884.764 1057.08 884.539L1123.48 616.593C1123.66 615.849 1122.87 615.24 1122.2 615.623L1020.21 674.408C1017.19 676.144 1015.27 679.323 1015.15 682.841Z" fill="url(#paint0_linear)"/>
<path d="M1092.52 864.384L1131.43 841.836C1131.57 841.745 1131.68 841.633 1131.77 841.497L1306.81 511.046C1307.21 510.279 1306.35 509.445 1305.61 509.896L1191.27 575.828C1191.09 575.941 1190.95 576.099 1190.89 576.302L1091.27 863.37C1090.98 864.114 1091.82 864.79 1092.52 864.384Z" fill="url(#paint1_linear)"/>
<path d="M1140.83 353.972L1024.73 287.092C1024.17 286.777 1023.47 287.16 1023.42 287.814L1010.98 557.451C1010.95 557.925 1011.31 558.308 1011.79 558.353C1044.92 560.879 1075.17 568.974 1099.84 581.466C1100.36 581.736 1100.99 581.421 1101.08 580.857L1141.24 354.896C1141.31 354.536 1141.15 354.175 1140.83 353.972Z" fill="url(#paint2_linear)"/>
<path d="M1190.68 384.012L1141.73 564.041C1141.53 564.785 1142.34 565.416 1143 565.01L1307.78 470.013C1308.05 469.855 1308.21 469.562 1308.21 469.268V455.243C1308.21 452.289 1306.63 449.561 1304.07 448.095L1191.95 383.493C1191.47 383.2 1190.84 383.448 1190.68 384.012Z" fill="url(#paint3_linear)"/>
<path d="M964.848 682.841L972.753 912.116C972.776 912.792 972.031 913.243 971.443 912.905L923.332 885.08C923.128 884.967 922.97 884.764 922.925 884.539L856.517 616.593C856.336 615.849 857.127 615.24 857.805 615.623L959.788 674.408C962.815 676.144 964.735 679.323 964.848 682.841Z" fill="url(#paint4_linear)"/>
<path d="M887.484 864.384L848.566 841.836C848.43 841.745 848.317 841.633 848.227 841.497L673.195 511.046C672.788 510.279 673.646 509.445 674.392 509.896L788.731 575.828C788.912 575.941 789.047 576.099 789.115 576.302L888.727 863.37C889.02 864.114 888.185 864.79 887.484 864.384Z" fill="url(#paint5_linear)"/>
<path d="M839.168 353.972L955.268 287.092C955.833 286.777 956.533 287.16 956.579 287.814L969.024 557.451C969.047 557.925 968.686 558.308 968.211 558.353C935.075 560.879 904.83 568.974 880.164 581.466C879.645 581.736 879.012 581.421 878.922 580.857L838.761 354.896C838.693 354.536 838.851 354.175 839.168 353.972Z" fill="url(#paint6_linear)"/>
<path d="M789.318 384.012L838.265 564.041C838.468 564.785 837.655 565.416 837 565.01L672.223 470.013C671.952 469.855 671.794 469.562 671.794 469.268V455.243C671.794 452.289 673.375 449.561 675.927 448.095L788.053 383.493C788.527 383.2 789.159 383.448 789.318 384.012Z" fill="url(#paint7_linear)"/>
<defs>
<linearGradient id="paint0_linear" x1="1156.07" y1="839.978" x2="1066.78" y2="651.186" gradientUnits="userSpaceOnUse">
<stop stop-opacity="0"/>
<stop offset="0.802083"/>
</linearGradient>
<linearGradient id="paint1_linear" x1="1377.79" y1="746.061" x2="1281.83" y2="518.24" gradientUnits="userSpaceOnUse">
<stop stop-opacity="0"/>
<stop offset="0.724471"/>
</linearGradient>
<linearGradient id="paint2_linear" x1="1042.17" y1="819.097" x2="1177.1" y2="351.803" gradientUnits="userSpaceOnUse">
<stop stop-opacity="0"/>
<stop offset="0.799644"/>
</linearGradient>
<linearGradient id="paint3_linear" x1="1104.77" y1="756.495" x2="1175.37" y2="381.135" gradientUnits="userSpaceOnUse">
<stop stop-opacity="0"/>
<stop offset="0.799644"/>
</linearGradient>
<linearGradient id="paint4_linear" x1="823.93" y1="839.978" x2="913.223" y2="651.186" gradientUnits="userSpaceOnUse">
<stop stop-opacity="0"/>
<stop offset="0.802083"/>
</linearGradient>
<linearGradient id="paint5_linear" x1="602.214" y1="746.061" x2="698.173" y2="518.24" gradientUnits="userSpaceOnUse">
<stop stop-opacity="0"/>
<stop offset="0.724471"/>
</linearGradient>
<linearGradient id="paint6_linear" x1="937.83" y1="819.097" x2="802.9" y2="351.803" gradientUnits="userSpaceOnUse">
<stop stop-opacity="0"/>
<stop offset="0.799644"/>
</linearGradient>
<linearGradient id="paint7_linear" x1="875.227" y1="756.495" x2="804.634" y2="381.135" gradientUnits="userSpaceOnUse">
<stop stop-opacity="0"/>
<stop offset="0.799644"/>
</linearGradient>
</defs>
</svg>
