<svg width="1980" height="1200" viewBox="0 0 1980 1200" fill="none" xmlns="http://www.w3.org/2000/svg">
<path d="M1088.72 600L1131.72 292.552L1215.55 341.097L1088.72 600ZM1327 578.293V467.983L1059.92 669.856L1327 578.293ZM1327 710.113V613.616L1027.77 691.168L1327 710.113ZM1262.11 832.263L1313.39 802.663C1321.87 797.729 1327 788.849 1327 779.18V746.225L989.901 699.062L1262.11 832.263ZM1139.02 903.303L1226.6 852.786L952.227 691.366L1139.02 903.303ZM1023.04 970.2L1109.24 920.274L920.075 669.659L1023.04 970.2ZM898.772 637.888L880.625 926.194L976.291 981.448C980.236 983.618 984.378 984.802 988.718 985L898.772 637.888ZM764.446 859.1L848.474 907.645L891.474 600.197L764.446 859.1ZM654.183 777.996C653 789.836 658.128 797.729 666.61 802.663L734.464 841.932L898.772 562.309L654.183 777.996ZM653 621.707V732.017L920.075 530.341L653 621.707ZM653 489.887V586.384L952.227 508.634L653 489.887ZM717.895 367.934L666.61 397.535C658.128 402.468 653 411.348 653 421.017V453.972L990.099 501.135L717.895 367.934ZM840.978 296.696L753.4 347.411L1027.77 508.831L840.978 296.696ZM956.961 229.8L870.763 279.726L1059.92 530.341L956.961 229.8ZM1081.23 562.309L1099.37 274.003L1003.71 218.749C999.764 216.579 995.622 215.395 991.282 215.197L1081.23 562.309ZM1325.82 422.201C1327 410.361 1321.87 402.468 1313.39 397.535L1245.54 358.265L1081.23 637.691L1325.82 422.201Z" fill="black"/>
</svg>
